<svg width="27" height="26" viewBox="0 0 27 26" fill="none" xmlns="http://www.w3.org/2000/svg">
<circle cx="13.3581" cy="12.8596" r="12.8596" fill="#A29213"/>
<path d="M7.04713 15.2151H4.42713L4.00713 16.4551H2.21713L4.75713 9.43508H6.73713L9.27713 16.4551H7.46713L7.04713 15.2151ZM6.60713 13.8951L5.73713 11.3251L4.87713 13.8951H6.60713ZM12.1702 10.7951C12.5635 10.7951 12.9068 10.8751 13.2002 11.0351C13.5002 11.1951 13.7302 11.4051 13.8902 11.6651V10.8751H15.6002V16.4451C15.6002 16.9584 15.4968 17.4217 15.2902 17.8351C15.0902 18.2551 14.7802 18.5884 14.3602 18.8351C13.9468 19.0817 13.4302 19.2051 12.8102 19.2051C11.9835 19.2051 11.3135 19.0084 10.8002 18.6151C10.2868 18.2284 9.99351 17.7017 9.92018 17.0351H11.6102C11.6635 17.2484 11.7902 17.4151 11.9902 17.5351C12.1902 17.6617 12.4368 17.7251 12.7302 17.7251C13.0835 17.7251 13.3635 17.6217 13.5702 17.4151C13.7835 17.2151 13.8902 16.8917 13.8902 16.4451V15.6551C13.7235 15.9151 13.4935 16.1284 13.2002 16.2951C12.9068 16.4551 12.5635 16.5351 12.1702 16.5351C11.7102 16.5351 11.2935 16.4184 10.9202 16.1851C10.5468 15.9451 10.2502 15.6084 10.0302 15.1751C9.81684 14.7351 9.71018 14.2284 9.71018 13.6551C9.71018 13.0817 9.81684 12.5784 10.0302 12.1451C10.2502 11.7117 10.5468 11.3784 10.9202 11.1451C11.2935 10.9117 11.7102 10.7951 12.1702 10.7951ZM13.8902 13.6651C13.8902 13.2384 13.7702 12.9017 13.5302 12.6551C13.2968 12.4084 13.0102 12.2851 12.6702 12.2851C12.3302 12.2851 12.0402 12.4084 11.8002 12.6551C11.5668 12.8951 11.4502 13.2284 11.4502 13.6551C11.4502 14.0817 11.5668 14.4217 11.8002 14.6751C12.0402 14.9217 12.3302 15.0451 12.6702 15.0451C13.0102 15.0451 13.2968 14.9217 13.5302 14.6751C13.7702 14.4284 13.8902 14.0917 13.8902 13.6651ZM22.0973 13.5751C22.0973 13.7351 22.0873 13.9017 22.0673 14.0751H18.1973C18.224 14.4217 18.334 14.6884 18.5273 14.8751C18.7273 15.0551 18.9706 15.1451 19.2573 15.1451C19.684 15.1451 19.9806 14.9651 20.1473 14.6051H21.9673C21.874 14.9717 21.704 15.3017 21.4573 15.5951C21.2173 15.8884 20.914 16.1184 20.5473 16.2851C20.1806 16.4517 19.7706 16.5351 19.3173 16.5351C18.7706 16.5351 18.284 16.4184 17.8573 16.1851C17.4306 15.9517 17.0973 15.6184 16.8573 15.1851C16.6173 14.7517 16.4973 14.2451 16.4973 13.6651C16.4973 13.0851 16.614 12.5784 16.8473 12.1451C17.0873 11.7117 17.4206 11.3784 17.8473 11.1451C18.274 10.9117 18.764 10.7951 19.3173 10.7951C19.8573 10.7951 20.3373 10.9084 20.7573 11.1351C21.1773 11.3617 21.504 11.6851 21.7373 12.1051C21.9773 12.5251 22.0973 13.0151 22.0973 13.5751ZM20.3473 13.1251C20.3473 12.8317 20.2473 12.5984 20.0473 12.4251C19.8473 12.2517 19.5973 12.1651 19.2973 12.1651C19.0106 12.1651 18.7673 12.2484 18.5673 12.4151C18.374 12.5817 18.254 12.8184 18.2073 13.1251H20.3473Z" fill="white"/>
</svg>
