<svg width="24" height="24" viewBox="0 0 24 24" fill="none" xmlns="http://www.w3.org/2000/svg">
<path d="M0 11.997C0.00569958 5.44436 5.24032 0.108437 11.8008 0.001646C18.5023 -0.107544 23.8971 5.22988 23.9985 11.8074C24.1014 18.4998 18.766 23.9122 12.1707 23.9989C5.4077 24.088 0.00209985 18.6468 0 11.997ZM14.0993 19.2833C15.2047 19.2185 16.3008 19.0914 17.3897 18.897C17.4929 18.8787 17.5547 18.8313 17.6042 18.7386C18.4159 17.2171 19.2295 15.6966 20.0478 14.179C20.1081 14.0674 20.1015 13.9858 20.0466 13.8769C19.5256 12.8387 18.9151 11.8539 18.2906 10.876C18.1031 10.5823 17.9318 10.4698 17.5598 10.5148C15.9672 10.7071 14.3692 10.852 12.7737 11.0197C12.7167 11.0257 12.6414 11.0728 12.615 11.1226C11.979 12.3186 11.3479 13.5169 10.7209 14.7174C10.6948 14.7672 10.6963 14.8569 10.7242 14.9055C11.5459 16.3358 12.3714 17.764 13.2014 19.1891C13.229 19.2362 13.3079 19.2773 13.3646 19.2794C13.6091 19.2893 13.8542 19.2836 14.099 19.2836L14.0993 19.2833ZM12.7791 10.2499C13.6643 10.1596 14.5144 10.0733 15.3646 9.98596C16.185 9.90167 17.0051 9.81558 17.8256 9.73278C17.9078 9.72439 17.9597 9.70039 17.9915 9.6149C18.3539 8.64118 18.718 7.66807 19.0876 6.69705C19.1302 6.58516 19.1038 6.51557 19.0294 6.43248C17.9021 5.16719 16.7763 3.9004 15.6543 2.63061C15.5707 2.53582 15.4867 2.48633 15.3604 2.49203C14.6269 2.52442 13.8923 2.54002 13.1597 2.58742C12.6216 2.62221 12.0864 2.69721 11.5498 2.7542C11.4523 2.7644 11.3941 2.8037 11.3596 2.90869C10.9054 4.29007 10.4461 5.66964 9.98447 7.04832C9.95627 7.13291 9.97157 7.18301 10.0319 7.24481C10.2745 7.49498 10.5172 7.74576 10.7488 8.00584C11.3974 8.73357 12.0399 9.46641 12.687 10.1953C12.7155 10.2277 12.765 10.2415 12.7794 10.2496L12.7791 10.2499ZM11.0146 21.7938C11.0461 21.7641 11.098 21.7284 11.1334 21.6804C11.5941 21.0577 12.0501 20.4316 12.5139 19.8113C12.5892 19.7108 12.5856 19.6388 12.5247 19.5341C11.7357 18.1776 10.9504 16.8191 10.169 15.4584C10.112 15.3591 10.0436 15.3198 9.93677 15.3048C8.57007 15.1137 7.21597 14.8581 5.88287 14.4991C5.77038 14.4688 5.71578 14.4967 5.65518 14.5924C5.02433 15.5889 4.39168 16.5842 3.75092 17.5744C3.66303 17.7103 3.65493 17.8111 3.73443 17.9521C4.27739 18.9162 4.86744 19.8476 5.56699 20.7076C5.64948 20.809 5.73918 20.8564 5.86427 20.8786C7.25167 21.1225 8.63817 21.3715 10.025 21.6186C10.3447 21.6756 10.6645 21.7317 11.0149 21.7938H11.0146ZM2.51652 7.15781C2.54891 7.18541 2.58821 7.22951 2.63651 7.2583C3.45245 7.74336 4.27079 8.22452 5.08523 8.71197C5.17882 8.76807 5.24271 8.75547 5.32731 8.70088C6.54582 7.91855 7.83032 7.2637 9.17453 6.72675C9.27952 6.68475 9.32961 6.62356 9.36351 6.52067C9.77928 5.25898 10.1978 3.99789 10.6204 2.7383C10.6585 2.62491 10.6462 2.56462 10.5415 2.49413C9.91697 2.07446 9.26242 1.71689 8.55807 1.44752C8.41228 1.39172 8.29589 1.38542 8.1528 1.43852C6.59232 2.01657 5.21692 2.88349 4.044 4.06539C3.87302 4.23757 3.70023 4.41966 3.57844 4.62664C3.14617 5.36187 2.86389 6.1652 2.56691 6.96103C2.54771 7.01203 2.53931 7.06722 2.51622 7.15751L2.51652 7.15781ZM3.11737 17.1313C3.15607 17.0824 3.18307 17.0536 3.20406 17.0209C3.86012 15.9929 4.51707 14.9655 5.16802 13.9345C5.20792 13.8715 5.22292 13.7722 5.20822 13.6981C4.93854 12.3357 4.79455 10.9612 4.80205 9.5723C4.80265 9.45441 4.76125 9.39561 4.66406 9.33862C3.99091 8.94565 3.32136 8.54639 2.65031 8.14952C2.46672 8.04093 2.28193 7.93414 2.09685 7.82585C2.06655 7.85975 2.04345 7.87985 2.02755 7.90445C1.75457 8.32891 1.47799 8.75097 1.21341 9.18023C1.13332 9.31012 1.06132 9.45531 1.03012 9.6029C0.593956 11.6487 0.703748 13.6654 1.3793 15.6474C1.4072 15.729 1.45429 15.815 1.51699 15.8714C1.81367 16.1387 2.11184 16.4057 2.42412 16.6544C2.64131 16.8275 2.88189 16.9708 3.11767 17.1313H3.11737ZM23.194 12.8906C23.0746 12.9821 22.9825 13.0583 22.8853 13.1267C22.2908 13.5442 21.6542 13.8883 20.9973 14.1964C20.9301 14.2279 20.8584 14.2828 20.8242 14.3461C19.9635 15.9419 19.1062 17.5399 18.2543 19.1406C18.2177 19.2095 18.215 19.3124 18.2327 19.3916C18.3008 19.6985 18.3901 20.0006 18.4588 20.3074C18.5152 20.5594 18.5533 20.8153 18.5998 21.0721C19.3429 20.7109 20.8842 19.0422 21.6545 17.7517C22.5448 16.2599 23.0491 14.6434 23.194 12.8903V12.8906ZM16.2585 1.58941C16.2462 1.74689 16.2285 1.87498 16.2291 2.00307C16.2291 2.06606 16.2447 2.14466 16.284 2.18905C17.4143 3.47054 18.5485 4.74903 19.684 6.02631C19.7218 6.06891 19.7748 6.10581 19.8279 6.1253C20.6376 6.42558 21.3992 6.81854 22.1189 7.2943C22.1438 7.3108 22.1729 7.3201 22.2002 7.3327C20.9586 4.65843 18.9811 2.7584 16.2585 1.58911V1.58941ZM6.53832 21.7725C7.49465 22.5944 11.4979 23.5493 12.3543 23.2046C11.8959 22.9952 11.4202 22.7774 10.9432 22.5614C10.9075 22.5453 10.8661 22.5408 10.8271 22.5336C9.78498 22.3482 8.74286 22.1631 7.70073 21.9783C7.31316 21.9096 6.92589 21.8409 6.53832 21.7722V21.7725Z" fill="#A29213"/>
</svg>
