<svg width="66" height="55" viewBox="0 0 66 55" fill="none" xmlns="http://www.w3.org/2000/svg">
<path d="M15.3285 22.559V52.2571C15.3285 53.2419 16.1391 53.9849 17.113 53.9849H49.9466C50.9204 53.9849 51.7309 53.2422 51.7312 52.2577L51.7312 52.2588L15.3285 22.559ZM15.3285 22.559L12.6289 24.7337V24.7995L12.3777 24.9436C11.8148 25.2664 11.1635 25.501 10.4847 25.501C9.29551 25.501 8.21982 24.9319 7.56101 24.0161L7.55635 24.0096L7.5564 24.0095L2.05886 16.1034C0.959932 14.5279 1.46439 12.4464 3.06936 11.4206L18.3259 1.25746L18.3555 1.23777L18.3872 1.22265C18.3875 1.22246 18.3896 1.22136 18.394 1.21887C18.4005 1.21519 18.4084 1.21042 18.4212 1.20266C18.4234 1.2013 18.4259 1.19979 18.4286 1.19815C18.4514 1.18422 18.4891 1.1612 18.5292 1.1399C18.6141 1.09486 18.7381 1.04119 18.8958 1.02887C18.9018 1.02732 18.9088 1.0255 18.9169 1.02338C18.9243 1.02145 18.9324 1.01935 18.941 1.01709C18.9852 1.00551 19.0453 0.989772 19.1178 0.971533C19.2921 0.927698 19.5403 0.868803 19.8497 0.808392C20.4677 0.687708 21.3312 0.560726 22.3415 0.535314L22.3541 0.534998V0.535156H23.947C24.4158 0.535156 24.9176 0.719814 25.2369 1.0856C25.5967 1.44165 25.7392 1.92652 25.6799 2.39691C25.6792 2.43255 25.6764 2.48714 25.6663 2.54525C25.6611 2.57511 25.6519 2.61913 25.6338 2.66979C25.7231 4.28939 26.6577 5.89383 28.1099 7.11685C29.5962 8.36857 31.5783 9.17856 33.6069 9.17856C35.6356 9.17856 37.6176 8.36857 39.1039 7.11685C40.5706 5.88167 41.5092 4.25744 41.5824 2.62148L41.5645 2.60432L41.5392 2.43505C41.4594 1.90126 41.6983 1.41799 41.9586 1.10711C42.2767 0.727055 42.789 0.535156 43.2669 0.535156H46.4012C47.0888 0.535156 47.6976 0.685301 48.1437 0.838519C48.3678 0.915506 48.5536 0.994234 48.691 1.05735C48.7616 1.08978 48.8384 1.12761 48.8854 1.15112C48.9061 1.15772 48.9256 1.1653 48.944 1.17359H48.9718L49.1 1.26193L63.838 11.4216C65.402 12.4067 65.886 14.5397 64.7953 16.1034L64.7879 16.114L64.7878 16.1139L59.2977 23.5679C58.6786 24.5045 57.5395 25.059 56.3695 25.059C55.7021 25.059 55.051 24.9054 54.4968 24.5194C54.4696 24.5072 54.4428 24.4925 54.4167 24.475C54.3307 24.4175 54.2815 24.3486 54.264 24.3236L51.8305 22.3975L51.7312 52.2571L15.3285 22.559Z" fill="#001A99" stroke="white"/>
</svg>
