<svg width="25" height="25" viewBox="0 0 25 25" fill="none" xmlns="http://www.w3.org/2000/svg">
<g clip-path="url(#clip0_1001_3741)">
<path d="M21.7105 24.2111H2.4593C2.4099 24.1921 2.3595 24.1759 2.30832 24.1624C1.45676 23.9786 0.788392 23.5257 0.375244 22.7581C0.200257 22.434 0.122554 22.0575 0 21.705V8.84375H24.2083C24.2121 8.91071 24.2165 8.94862 24.2165 8.98715C24.2165 13.1388 24.2165 17.291 24.2165 21.4435C24.2165 22.5699 23.4679 23.6154 22.4136 24.014C22.1843 24.0974 21.9442 24.146 21.7105 24.2111ZM5.95968 11.4502C5.95968 11.0712 5.95968 10.6922 5.95968 10.3169C5.95463 9.97454 5.77396 9.79134 5.43283 9.79134C4.67728 9.78755 3.92174 9.78755 3.1662 9.79134C2.84276 9.79134 2.65324 9.98085 2.65324 10.3024C2.64692 11.0567 2.64692 11.8129 2.65324 12.5709C2.65324 12.9133 2.8377 13.0978 3.17884 13.0997C3.92595 13.1035 4.67349 13.1035 5.42146 13.0997C5.77775 13.0997 5.95842 12.9171 5.96221 12.5621C5.96221 12.1919 5.95968 11.8198 5.95968 11.4502ZM7.85486 11.4332C7.85486 11.8027 7.85486 12.1729 7.85486 12.5425C7.85486 12.9121 8.03237 13.0959 8.40193 13.0971C9.13431 13.1001 9.86627 13.1001 10.5978 13.0971C10.9876 13.0971 11.1632 12.9228 11.1664 12.5374C11.1664 11.8059 11.1664 11.0742 11.1664 10.3422C11.1664 9.96885 10.9882 9.78944 10.6186 9.78818C9.87869 9.78565 9.13894 9.78565 8.3994 9.78818C8.04121 9.78818 7.86054 9.96885 7.85675 10.3232C7.84917 10.6934 7.8517 11.0636 7.8517 11.4338L7.85486 11.4332ZM16.3686 11.4547C16.3686 11.0927 16.3686 10.7307 16.3686 10.3694C16.3686 9.96127 16.2006 9.78944 15.8 9.78818C15.0761 9.78818 14.3519 9.78818 13.6276 9.78818C13.2365 9.78818 13.059 9.96127 13.059 10.3447C13.0565 11.0767 13.0565 11.8084 13.059 12.54C13.059 12.9146 13.2359 13.0959 13.6035 13.0971C14.3435 13.1001 15.0833 13.1001 15.8228 13.0971C16.1911 13.0971 16.3661 12.9152 16.3686 12.5406C16.3673 12.1786 16.3654 11.8166 16.3654 11.4547H16.3686ZM19.898 13.0971C20.2834 13.0971 20.6694 13.1016 21.0547 13.0971C21.3801 13.0934 21.5683 12.9076 21.5696 12.5823C21.5742 11.8192 21.5742 11.056 21.5696 10.2929C21.5696 9.97706 21.3801 9.7926 21.0642 9.78755C20.3011 9.78249 19.5378 9.78249 18.7742 9.78755C18.4489 9.78755 18.2612 9.97706 18.2594 10.3018C18.2551 11.0565 18.2543 11.8129 18.2568 12.5709C18.2568 12.9127 18.4419 13.0946 18.7837 13.0984C19.1551 13.1016 19.5253 13.0978 19.8949 13.0978L19.898 13.0971ZM5.95968 21.1491C5.95968 20.7795 5.95968 20.41 5.95968 20.0398C5.95968 19.6696 5.7828 19.4845 5.41451 19.4832C4.67455 19.4803 3.9348 19.4803 3.19526 19.4832C2.83518 19.4832 2.65198 19.662 2.65071 20.0152C2.64692 20.7631 2.64692 21.5107 2.65071 22.2578C2.65071 22.6109 2.83518 22.7903 3.19463 22.7916C3.93417 22.7941 4.67391 22.7941 5.41387 22.7916C5.78217 22.7916 5.95716 22.6096 5.95968 22.235C5.96158 21.8731 5.95968 21.5111 5.95968 21.1491ZM7.85486 21.1302C7.85486 21.5092 7.8517 21.8882 7.85486 22.2635C7.85486 22.6052 8.03932 22.7897 8.38108 22.791C9.12862 22.7947 9.87616 22.7947 10.6237 22.791C10.9794 22.791 11.1619 22.6078 11.1632 22.2521C11.1661 21.5046 11.1661 20.7572 11.1632 20.0101C11.1632 19.6677 10.9787 19.4845 10.637 19.4826C9.88901 19.4788 9.14147 19.4788 8.39435 19.4826C8.03743 19.4826 7.85738 19.6646 7.85422 20.0202C7.84917 20.391 7.8517 20.7606 7.8517 21.1302H7.85486ZM14.7027 22.7922C15.0818 22.7922 15.4608 22.7954 15.8361 22.7922C16.1785 22.7884 16.3623 22.6071 16.3642 22.266C16.368 21.5104 16.368 20.7551 16.3642 20C16.3642 19.674 16.1747 19.4864 15.85 19.4845C15.0944 19.4803 14.3389 19.4803 13.5833 19.4845C13.2409 19.4845 13.0571 19.669 13.0558 20.0101C13.052 20.7576 13.052 21.5052 13.0558 22.2527C13.0558 22.609 13.2384 22.7897 13.5941 22.7928C13.9611 22.7947 14.3332 22.7922 14.7027 22.7922ZM21.5683 21.1535C21.5683 20.7682 21.5721 20.3828 21.5683 19.9968C21.5639 19.6721 21.3788 19.4851 21.0522 19.4839C20.2882 19.4797 19.5249 19.4797 18.7622 19.4839C18.4463 19.4839 18.2625 19.6734 18.2606 19.9893C18.2556 20.7524 18.2556 21.5155 18.2606 22.2786C18.2606 22.6033 18.4501 22.791 18.7767 22.7928C19.5323 22.7975 20.2876 22.7975 21.0427 22.7928C21.3839 22.7928 21.5652 22.6071 21.569 22.2647C21.5715 21.8933 21.5683 21.5237 21.5683 21.1535ZM5.95968 16.3038C5.95968 15.9247 5.95968 15.5457 5.95968 15.1667C5.95589 14.8186 5.7847 14.6405 5.43535 14.6379C4.67728 14.6329 3.92069 14.6329 3.16557 14.6379C2.82002 14.6379 2.65135 14.8211 2.65008 15.1749C2.64756 15.9161 2.64756 16.6569 2.65008 17.3973C2.65324 17.7511 2.81559 17.9406 3.15862 17.9406C3.92385 17.9507 4.68844 17.9507 5.45241 17.9406C5.78659 17.9362 5.95273 17.7511 5.95779 17.4131C5.96284 17.0448 5.95968 16.6771 5.95968 16.3038ZM11.1626 16.2918C11.1626 15.921 11.1626 15.5508 11.1626 15.1806C11.1626 14.8104 10.9901 14.6417 10.6262 14.6398C9.88543 14.6356 9.14442 14.6356 8.40319 14.6398C8.02416 14.6398 7.85422 14.8129 7.85296 15.1901C7.85043 15.9229 7.85043 16.6559 7.85296 17.3891C7.85296 17.7548 8.01847 17.9406 8.37729 17.945C9.13536 17.9543 9.89196 17.9543 10.6471 17.945C10.9939 17.9406 11.1594 17.7555 11.1626 17.4042C11.1651 17.0322 11.1626 16.662 11.1626 16.2918ZM16.3654 16.2848C16.3654 15.9058 16.3692 15.5268 16.3654 15.1477C16.361 14.8274 16.1879 14.6423 15.8702 14.6423C15.0978 14.6348 14.3252 14.6348 13.5524 14.6423C13.2365 14.6423 13.059 14.8319 13.0571 15.1477C13.0533 15.9058 13.0533 16.6624 13.0571 17.4175C13.0571 17.7511 13.2277 17.9374 13.5625 17.9418C14.3269 17.9519 15.0915 17.9519 15.8563 17.9418C16.1999 17.9368 16.3617 17.7473 16.3648 17.3948C16.3673 17.0252 16.3654 16.655 16.3654 16.2848ZM21.5683 16.2848C21.5683 15.9058 21.5721 15.5268 21.5683 15.1477C21.5639 14.8268 21.3914 14.6423 21.073 14.6392C20.3002 14.6316 19.5279 14.6316 18.7559 14.6392C18.4369 14.6392 18.2619 14.8287 18.26 15.1446C18.2562 15.9026 18.2562 16.6592 18.26 17.4144C18.26 17.7479 18.4299 17.9343 18.7654 17.9387C19.5297 17.9488 20.2943 17.9488 21.0592 17.9387C21.4028 17.9336 21.5645 17.7447 21.5677 17.3916C21.5702 17.0258 21.5683 16.655 21.5683 16.2848Z" fill="#A29213"/>
<path d="M0 8.36948V4.91711C0.0173319 4.88325 0.0317045 4.84795 0.0429572 4.81161C0.299437 3.61134 1.01076 2.81789 2.21103 2.54751C2.73157 2.43001 3.29065 2.47992 3.83267 2.4597C4.04935 2.45149 4.26666 2.4597 4.49535 2.4597C4.49535 2.62648 4.48903 2.75977 4.49535 2.89244C4.51556 3.27147 4.48524 3.65809 4.57558 4.01754C4.77015 4.79456 5.56928 5.29678 6.3444 5.19191C6.73895 5.14253 7.10266 4.95313 7.36932 4.65817C7.63599 4.36322 7.78789 3.98232 7.79737 3.58481C7.80558 3.21714 7.79737 2.84885 7.79737 2.47423H16.4147C16.4147 2.86527 16.3977 3.24304 16.4185 3.61892C16.4545 4.27086 16.7742 4.75602 17.3661 5.03777C17.958 5.31952 18.519 5.25572 19.0421 4.88047C19.4843 4.56461 19.7104 4.11356 19.7237 3.56775C19.7325 3.20135 19.7237 2.83495 19.7237 2.4597C20.2885 2.4597 20.8159 2.4597 21.3434 2.4597C22.9676 2.46602 24.2127 3.71305 24.2171 5.341C24.2171 6.27026 24.2171 7.20016 24.2171 8.13006C24.2171 8.20587 24.2102 8.28167 24.2064 8.37075L0 8.36948Z" fill="#A29213"/>
<path d="M4.96653 2.35132C4.96653 1.96597 4.96274 1.58062 4.96653 1.19463C4.976 0.521216 5.48833 4.37676e-05 6.1428 4.37676e-05C6.2987 -0.00130181 6.45331 0.0283913 6.59762 0.0873931C6.74193 0.146395 6.87305 0.233526 6.98335 0.343709C7.09365 0.453891 7.18092 0.584923 7.24008 0.72917C7.29923 0.873417 7.32909 1.02799 7.32791 1.18389C7.33549 1.9706 7.33549 2.75731 7.32791 3.54402C7.32875 3.69988 7.29864 3.85435 7.23933 3.99849C7.18001 4.14262 7.09267 4.27355 6.98237 4.38367C6.87207 4.49379 6.74101 4.58092 6.59678 4.64001C6.45255 4.69909 6.29803 4.72896 6.14217 4.72787C5.48833 4.72787 4.97537 4.20606 4.96716 3.53201C4.96274 3.13845 4.96653 2.74488 4.96653 2.35132Z" fill="#A29213"/>
<path d="M19.2503 2.35814C19.2503 2.75171 19.2548 3.14527 19.2503 3.53821C19.2402 4.21099 18.7235 4.72774 18.0684 4.72774C17.9124 4.72825 17.7578 4.69775 17.6137 4.63801C17.4695 4.57827 17.3387 4.49048 17.2288 4.37975C17.1189 4.26901 17.0321 4.13753 16.9734 3.99296C16.9147 3.84838 16.8854 3.69359 16.8871 3.53757C16.8807 2.75045 16.8807 1.96353 16.8871 1.17682C16.8942 0.868494 17.0217 0.575196 17.2423 0.359654C17.4629 0.144112 17.759 0.0234375 18.0674 0.0234375C18.3758 0.0234375 18.672 0.144112 18.8926 0.359654C19.1132 0.575196 19.2407 0.868494 19.2478 1.17682C19.2554 1.57102 19.2497 1.96458 19.2503 2.35814Z" fill="#A29213"/>
</g>
<defs>
<clipPath id="clip0_1001_3741">
<rect width="24.2178" height="24.2115" fill="white"/>
</clipPath>
</defs>
</svg>
