<svg width="30" height="22" viewBox="0 0 30 22" fill="none" xmlns="http://www.w3.org/2000/svg">
<path d="M18.3453 11.7586C19.4149 12.3559 20.4714 12.9472 21.5269 13.536C20.6233 16.2366 17.8463 18.8923 14.2427 18.4671C10.5394 18.0297 7.85136 14.7294 7.77326 10.6416C7.69841 6.73304 10.304 3.24736 13.773 2.62946C17.5089 1.96431 20.5267 4.56918 21.5334 7.49997C20.4801 8.08879 19.4246 8.67882 18.3464 9.28097C17.9114 8.00156 17.1445 7.10984 15.9773 6.6967C15.2093 6.42531 14.4412 6.46286 13.6852 6.77181C12.2045 7.3776 11.2315 9.07622 11.3616 10.8294C11.4961 12.6358 12.6959 14.1127 14.2905 14.4519C15.8514 14.7839 17.6673 13.8595 18.3475 11.755L18.3453 11.7586Z" fill="#FFFF00"/>
<path d="M0.00743866 3.97152V0H29.9998V3.97152C29.9185 3.97152 29.8371 3.97152 29.7547 3.97152C26.8953 3.97152 24.0369 3.97273 21.1775 3.96546C21.068 3.96546 20.9313 3.91094 20.8532 3.82734C17.587 0.34772 12.6275 0.298046 9.30596 3.72436C9.13348 3.90246 8.9686 3.97758 8.73212 3.97637C5.89657 3.96789 3.06102 3.97152 0.225474 3.97152C0.157135 3.97152 0.0887953 3.97152 0.00743866 3.97152Z" fill="#FFFF00"/>
<path d="M0.00743866 21.0103V17.0327C0.101812 17.0327 0.185338 17.0327 0.268865 17.0327C3.11201 17.0327 5.95623 17.0339 8.79937 17.029C8.95992 17.029 9.07056 17.0811 9.18663 17.2059C10.9081 19.0596 12.9779 19.9404 15.3556 19.8399C17.459 19.7514 19.2868 18.8634 20.8109 17.229C20.9367 17.0933 21.0593 17.0278 21.2372 17.0278C24.0966 17.0339 26.9549 17.0315 29.8143 17.0327H29.9977V21.0103H0.00743866Z" fill="#FFFF00"/>
<path d="M0.00242615 9.89274V5.18701H8.06758C7.74974 5.93455 7.37225 6.66876 7.12167 7.45264C6.87326 8.23047 6.75286 9.05918 6.57062 9.89274H0.00242615Z" fill="#FFFF00"/>
<path d="M30 9.89732H23.4405C23.2594 9.06133 23.1379 8.22535 22.8905 7.43783C22.6465 6.65879 22.2766 5.92943 21.9642 5.18311H30V9.8961V9.89732Z" fill="#FFFF00"/>
<path d="M0 15.8185V11.1116H6.63653C6.7526 12.809 7.22556 14.3792 8.12265 15.8185H0Z" fill="#FFFF00"/>
<path d="M23.4362 11.1013H29.9978V15.818H21.975C22.2863 15.0813 22.6649 14.3483 22.91 13.562C23.153 12.7818 23.2615 11.9482 23.4362 11.1013Z" fill="#FFFF00"/>
</svg>
