<svg width="16" height="16" viewBox="0 0 16 16" fill="none" xmlns="http://www.w3.org/2000/svg">
<circle cx="7.51039" cy="7.51039" r="7.51039" fill="#F9C30E"/>
<path d="M11.6293 10.5022C10.706 12.0265 8.7165 13.0275 6.68927 12.4138C4.71057 11.8146 3.33886 9.82899 3.39368 7.63675C3.44849 5.4349 4.90062 3.5281 6.87348 3.03506C8.94025 2.51847 10.8309 3.63286 11.6248 5.00337C11.0326 5.25565 10.4454 5.51034 9.85277 5.75062C9.8011 5.77176 9.70181 5.7165 9.64834 5.667C8.67561 4.77559 7.32817 4.73234 6.3204 5.56512C5.50942 6.23548 5.15133 7.38302 5.41506 8.46809C5.67161 9.52337 6.52168 10.335 7.53125 10.495C8.32831 10.6214 9.02876 10.3946 9.63441 9.83716C9.7418 9.73865 9.82447 9.72424 9.95027 9.77998C10.5025 10.0241 11.0582 10.2581 11.6293 10.5022Z" fill="white"/>
</svg>
