<?xml version="1.0" encoding="utf-8"?>
<!-- Generator: Adobe Illustrator 27.8.1, SVG Export Plug-In . SVG Version: 6.00 Build 0)  -->
<svg version="1.1" id="Layer_1" xmlns="http://www.w3.org/2000/svg" xmlns:xlink="http://www.w3.org/1999/xlink" x="0px" y="0px"
	 viewBox="0 0 480.45 286.96" style="enable-background:new 0 0 480.45 286.96;" xml:space="preserve">
<style type="text/css">
	.st0{fill:#FFFFFF;}
</style>
<path class="st0" d="M0.21,222.34c0,12.81-0.57,24.82,0.15,36.76c0.79,13.21,10.35,23.81,23.24,26.83
	c3.99,0.94,8.26,0.97,12.41,0.97c129.84,0.05,259.68,0.05,389.53,0.03c8.83,0,17.68,0.17,26.49-0.33
	c12.75-0.73,24.87-10.11,26.57-22.63c1.84-13.55,1.32-27.42,1.86-41.84c-45.84,0-90.53,0-134.55,0
	c5.7-11.58,11.53-22.76,16.64-34.26c1.56-3.51,3.02-4.66,6.76-4.64c34.84,0.14,69.67,0.08,104.51,0.08c1.93,0,3.87,0,5.88,0
	c0-26.8,0-52.9,0-79.54c-2.05,0-3.84,0-5.63,0c-35,0-70.01-0.06-105.01,0.07c-3.53,0.01-5.06-1.02-6.4-4.41
	C359.74,92,356.23,84.8,352.6,77.7c-2.16-4.22-5.01-8.08-8.11-12.98c45.59,0,90.29,0,135.46,0c0-10.29-0.5-19.94,0.1-29.54
	C481.31,15.21,467-0.11,445.25,0c-97.84,0.52-195.68,0.22-293.52,0.22c-39.84,0-79.67-0.04-119.51,0.02
	C15.43,0.27,2.51,10.18,0.75,26.29c-1.36,12.47-0.27,25.2-0.27,38.46c44.81,0,89.5,0,135.04,0c-1.28,2.06-2.12,3.23-2.78,4.5
	c-5.2,10.03-10.63,19.94-15.37,30.18c-1.51,3.27-2.89,4.4-6.42,4.39c-34.84-0.13-69.67-0.08-104.51-0.08c-1.95,0-3.91,0-6.01,0
	c0,26.77,0,52.98,0,79.55c2.84,0,5.32,0,7.79,0c34.34,0,68.67,0.04,103.01-0.08c3.37-0.01,4.63,1.11,6.07,4.18
	c4.85,10.37,10.33,20.45,15.59,30.63c0.64,1.23,1.38,2.4,2.49,4.31C89.92,222.34,45.33,222.34,0.21,222.34z"/>
<path d="M0.21,222.34c45.12,0,89.71,0,135.17,0c-1.1-1.9-1.85-3.08-2.49-4.31c-5.26-10.18-10.74-20.26-15.59-30.63
	c-1.44-3.07-2.7-4.19-6.07-4.18c-34.34,0.13-68.67,0.08-103.01,0.08c-2.48,0-4.95,0-7.79,0c0-26.58,0-52.79,0-79.55
	c2.1,0,4.06,0,6.01,0c34.84,0,69.67-0.05,104.51,0.08c3.52,0.01,4.91-1.12,6.42-4.39c4.74-10.24,10.17-20.16,15.37-30.18
	c0.66-1.27,1.5-2.45,2.78-4.5c-45.54,0-90.24,0-135.04,0c0-13.26-1.09-26,0.27-38.46C2.51,10.18,15.43,0.27,32.22,0.24
	c39.84-0.06,79.67-0.02,119.51-0.02c97.84,0,195.68,0.3,293.52-0.22c21.75-0.12,36.06,15.21,34.81,35.19
	c-0.6,9.59-0.1,19.25-0.1,29.54c-45.18,0-89.87,0-135.46,0c3.09,4.9,5.95,8.76,8.11,12.98c3.63,7.1,7.14,14.3,10.06,21.72
	c1.34,3.4,2.87,4.43,6.4,4.41c35-0.13,70-0.07,105.01-0.07c1.79,0,3.58,0,5.63,0c0,26.64,0,52.74,0,79.54c-2.01,0-3.94,0-5.88,0
	c-34.84,0-69.67,0.06-104.51-0.08c-3.74-0.02-5.2,1.14-6.76,4.64c-5.11,11.5-10.95,22.68-16.64,34.26c44.02,0,88.71,0,134.55,0
	c-0.54,14.42-0.02,28.29-1.86,41.84c-1.7,12.52-13.82,21.9-26.57,22.63c-8.81,0.5-17.66,0.33-26.49,0.33
	c-129.84,0.01-259.68,0.02-389.53-0.03c-4.14,0-8.41-0.03-12.41-0.97c-12.88-3.02-22.44-13.62-23.24-26.83
	C-0.35,247.16,0.21,235.15,0.21,222.34z M322.45,200.77c-12.7-5.09-25.08-9.96-37.37-15.03c-2.8-1.16-4.64-0.86-7.03,1.19
	c-13.48,11.6-29.07,16.33-46.81,13.69c-22.47-3.33-41.4-20.22-47.1-42.18c-5.87-22.59,2.1-46.46,20.15-60.41
	c22.43-17.33,52.42-16.43,74.07,2.12c1.19,1.02,3.4,2.17,4.55,1.74c13.19-5,26.26-10.3,39.44-15.55
	c-17.67-28.52-59.75-51.71-105.75-40.96c-43.91,10.26-76.22,49.94-77.45,95.76c-1.22,45.61,29.31,86.94,73.35,99.41
	C257.61,253.33,301.89,232.49,322.45,200.77z"/>
<path class="st0" d="M322.45,200.77c-20.55,31.72-64.83,52.55-109.95,39.78c-44.04-12.47-74.57-53.79-73.35-99.41
	c1.22-45.82,33.54-85.5,77.45-95.76c46-10.75,88.08,12.44,105.75,40.96c-13.18,5.25-26.25,10.55-39.44,15.55
	c-1.15,0.44-3.36-0.71-4.55-1.74c-21.65-18.55-51.64-19.45-74.07-2.12c-18.05,13.95-26.02,37.83-20.15,60.41
	c5.71,21.96,24.63,38.85,47.1,42.18c17.74,2.63,33.33-2.09,46.81-13.69c2.39-2.05,4.23-2.35,7.03-1.19
	C297.37,190.82,309.74,195.69,322.45,200.77z"/>
</svg>
