<svg width="35" height="27" viewBox="0 0 35 27" fill="none" xmlns="http://www.w3.org/2000/svg">
<path d="M12.8974 12.2399C13.4098 12.7833 13.846 13.3355 14.3714 13.7875C16.5264 15.6429 19.5822 15.4265 21.4932 13.3147C21.8094 12.9652 22.1191 12.611 22.454 12.2351C23.1164 12.7456 23.5307 13.3972 23.705 14.1899C23.7756 14.5096 23.7966 14.8454 23.7974 15.1732C23.8039 18.585 23.8015 21.9968 23.8007 25.4086C23.8007 26.2678 23.4545 26.6084 22.5861 26.6084C19.3179 26.6084 16.0497 26.6084 12.7815 26.6084C11.9164 26.6084 11.5734 26.267 11.5734 25.4022C11.5726 21.9904 11.5783 18.5786 11.5694 15.1668C11.5669 14.1746 11.8466 13.2994 12.5398 12.5693C12.6485 12.4547 12.7725 12.3537 12.8966 12.2399H12.8974ZM20.5925 17.0174C20.4303 17.0174 20.2681 17.0078 20.1076 17.019C19.6163 17.0535 19.2433 17.4293 19.2133 17.9102C19.1841 18.3799 19.489 18.8183 19.9673 18.8792C20.3792 18.9313 20.8089 18.9329 21.2208 18.8792C21.7129 18.815 22.0056 18.3742 21.9675 17.8765C21.9319 17.4149 21.5597 17.0518 21.0781 17.019C20.9168 17.0078 20.7546 17.0174 20.5933 17.0174H20.5925Z" fill="#A29213"/>
<path d="M13.7196 4.69511C13.6037 2.73074 14.9958 1.08937 16.8103 0.719093C18.787 0.315962 20.6793 1.28011 21.3847 3.08178C21.5225 3.43282 21.6336 3.82473 21.6263 4.195C21.6085 5.11908 21.6004 6.05678 21.4342 6.96162C21.1025 8.77291 19.3675 10.056 17.5197 9.96387C15.616 9.8693 14.0529 8.42588 13.8623 6.57452C13.7983 5.94939 13.7659 5.32185 13.7196 4.69511Z" fill="#A29213"/>
<path d="M14.7397 11.3472H20.6381C19.8857 12.365 19.0287 13.1328 17.6877 13.132C16.3475 13.132 15.4913 12.3642 14.7397 11.3472Z" fill="#A29213"/>
<path d="M28.5698 1.95412C30.8164 1.9485 32.425 3.68205 32.2296 5.89487C32.1866 6.38295 32.1793 6.87424 32.1218 7.36073C31.9539 8.78732 31.1894 9.80596 29.8451 10.3253C28.453 10.8631 26.9458 10.4776 25.9956 9.44451C25.4491 8.84983 25.1045 8.16298 25.0534 7.35912C25.0024 6.55286 24.8791 5.72897 24.9878 4.94033C25.2367 3.13466 26.7147 1.95973 28.5698 1.95412Z" fill="#A29213"/>
<path d="M34.2578 25.4496C34.0194 26.0002 33.5962 26.1798 32.9979 26.1734C30.7123 26.1501 28.4267 26.1637 26.1411 26.1637H25.7114V14.5018C26.8919 15.3441 28.2175 15.6406 29.6672 15.3257C31.1152 15.0107 32.0874 14.0401 32.9711 12.9109C33.6319 13.4519 34.0097 14.1179 34.1889 14.9057C34.2075 14.9867 34.2351 15.066 34.2578 15.1461V25.4488V25.4496ZM31.3123 19.0901C31.3123 19.0829 31.3123 19.0757 31.3123 19.0693C31.4736 19.0693 31.6366 19.0829 31.7955 19.0669C32.3225 19.014 32.6768 18.61 32.6598 18.0939C32.6435 17.597 32.2706 17.2139 31.7566 17.1891C31.4452 17.1738 31.1314 17.1722 30.8209 17.1923C30.3345 17.2243 29.968 17.6194 29.9518 18.1019C29.9356 18.5788 30.285 18.9971 30.765 19.0604C30.9458 19.0845 31.1298 19.0813 31.3123 19.0901Z" fill="#A29213"/>
<path d="M25.9043 11.925H31.2303C30.1065 13.7828 27.5899 14.3414 25.9043 11.925Z" fill="#A29213"/>
<path d="M31.3127 19.2159C31.1303 19.2071 30.9463 19.2103 30.7655 19.1862C30.2847 19.1229 29.9352 18.7046 29.9523 18.2277C29.9693 17.746 30.3358 17.3501 30.8214 17.3181C31.1319 17.298 31.4457 17.2996 31.757 17.3149C32.2711 17.3397 32.644 17.7236 32.6602 18.2197C32.6773 18.735 32.323 19.1398 31.796 19.1927C31.6362 19.2087 31.4733 19.1951 31.3127 19.1951C31.3127 19.2023 31.3127 19.2095 31.3127 19.2159Z" fill="white"/>
<path d="M6.22863 1.95412C3.98198 1.9485 2.3734 3.68205 2.5688 5.89487C2.61177 6.38295 2.61907 6.87424 2.67663 7.36073C2.84446 8.78732 3.60902 9.80596 4.95328 10.3253C6.34538 10.8631 7.85261 10.4776 8.80284 9.44451C9.3493 8.84983 9.69388 8.16298 9.74496 7.35912C9.79604 6.55286 9.91927 5.72897 9.81063 4.94033C9.56172 3.13466 8.08368 1.95973 6.22863 1.95412Z" fill="#A29213"/>
<path d="M0.946289 25.4904C1.18466 26.041 1.60788 26.2205 2.20623 26.2141C4.4918 26.1909 6.77737 26.2045 9.06294 26.2045H9.49265V14.5425C8.31217 15.3849 6.98655 15.6814 5.53689 15.3664C4.08885 15.0515 3.11673 14.0809 2.23299 12.9517C1.57221 13.4926 1.19439 14.1587 1.0152 14.9465C0.996557 15.0274 0.968991 15.1068 0.946289 15.1869V25.4896V25.4904ZM3.89183 19.1309C3.89183 19.1237 3.89183 19.1164 3.89183 19.11C3.73049 19.11 3.56752 19.1237 3.40861 19.1076C2.88161 19.0547 2.5273 18.6508 2.54432 18.1347C2.56054 17.6378 2.9335 17.2547 3.44753 17.2298C3.75886 17.2146 4.07263 17.213 4.38316 17.233C4.86962 17.2651 5.23609 17.6602 5.25231 18.1427C5.26852 18.6195 4.91908 19.0379 4.4391 19.1012C4.2583 19.1253 4.07425 19.1221 3.89183 19.1309Z" fill="#A29213"/>
<path d="M9.29863 11.9658H3.97266C5.09639 13.8236 7.61303 14.3822 9.29863 11.9658Z" fill="#A29213"/>
<path d="M3.89009 19.1309C4.07251 19.1221 4.25656 19.1253 4.43736 19.1013C4.91815 19.038 5.26759 18.6196 5.25056 18.1427C5.23354 17.6611 4.86707 17.2652 4.38141 17.2331C4.07089 17.2131 3.75712 17.2147 3.44578 17.2299C2.93175 17.2547 2.5588 17.6386 2.54258 18.1347C2.52555 18.6501 2.87986 19.0548 3.40686 19.1077C3.56659 19.1237 3.72955 19.1101 3.89009 19.1101C3.89009 19.1173 3.89009 19.1245 3.89009 19.1309Z" fill="white"/>
<path d="M20.5923 17.0175C20.7545 17.0175 20.9166 17.0079 21.0772 17.0191C21.5596 17.0528 21.9317 17.4158 21.9666 17.8767C22.0047 18.3744 21.7112 18.8144 21.2199 18.8793C20.808 18.933 20.3783 18.9322 19.9664 18.8793C19.488 18.8184 19.1832 18.38 19.2124 17.9103C19.2424 17.4295 19.6153 17.0536 20.1067 17.0191C20.268 17.0079 20.4302 17.0175 20.5915 17.0175H20.5923Z" fill="white"/>
</svg>
