<svg width="23" height="24" viewBox="0 0 23 24" fill="none" xmlns="http://www.w3.org/2000/svg">
<path d="M12.9395 16.5584H9.33757C9.33757 16.1045 9.35433 15.6621 9.33288 15.2217C9.32065 14.8123 9.27582 14.4045 9.1988 14.0022C9.04126 13.2648 8.58541 12.6923 8.05916 12.1708C7.6147 11.7263 7.15951 11.2919 6.73181 10.83C5.78054 9.80766 5.31864 8.5507 5.05586 7.20994C4.72066 5.50315 4.56916 3.77759 4.49944 2.04332C4.47665 1.48221 4.46257 0.921103 4.45117 0.359324C4.45117 0.0730715 4.52424 0 4.8105 0C9.03389 0 13.2573 0 17.4807 0C17.6992 0 17.8393 0.061675 17.8333 0.309716C17.7931 2.77537 17.6577 5.22897 17.1328 7.65172C16.8364 9.06334 16.1191 10.352 15.0754 11.3475C14.6182 11.79 14.165 12.2391 13.7447 12.7158C13.2023 13.3312 12.9791 14.082 12.9576 14.8925C12.9449 15.3618 12.9543 15.831 12.9523 16.3003C12.9523 16.3821 12.9456 16.4632 12.9395 16.5584Z" fill="white"/>
<path d="M11.1479 23.4534H6.27026C5.91362 23.4534 5.86133 23.4018 5.86133 23.0511C5.86133 22.0371 5.86133 21.0226 5.86133 20.0076C5.86133 19.657 5.92367 19.5913 6.26356 19.5913H16.0223C16.3689 19.5913 16.4305 19.6537 16.4305 20.0009C16.4305 21.0069 16.4305 22.0125 16.4305 23.0176C16.4305 23.4131 16.3903 23.454 16.0035 23.454L11.1479 23.4534Z" fill="white"/>
<path d="M17.2344 9.63179C17.3745 9.22956 17.4918 8.86353 17.6366 8.50756C17.6888 8.40846 17.7722 8.3293 17.8739 8.28231C19.2817 7.55763 20.4884 6.59228 21.3733 5.2656C21.6227 4.89019 21.7923 4.44774 21.9244 4.01333C22.0625 3.55881 21.8747 3.19547 21.4605 2.95145C20.8457 2.58944 20.1546 2.49961 19.4627 2.42386C19.1483 2.389 18.8319 2.37425 18.5141 2.35012V1.30566C18.966 1.34321 19.3943 1.34388 19.8086 1.42164C20.4059 1.53359 21.0153 1.63683 21.5784 1.8594C22.8334 2.35682 23.2698 3.39256 22.8374 4.67499C22.6115 5.34538 22.2374 5.92727 21.7883 6.46223C20.654 7.8117 19.2985 8.8642 17.6433 9.50441C17.5186 9.55067 17.3906 9.5862 17.2344 9.63179Z" fill="white"/>
<path d="M4.86969 9.34677C4.40042 9.06722 3.91306 8.81046 3.46189 8.50343C2.36917 7.76601 1.42058 6.87574 0.697244 5.76291C0.35468 5.24002 0.0871985 4.68494 0.0168086 4.0521C-0.0837485 3.1558 0.268201 2.48408 1.03713 2.03426C1.7008 1.64544 2.44493 1.51002 3.1924 1.41416C3.3734 1.39069 3.55575 1.37661 3.77094 1.35449V2.37816C3.38212 2.43984 2.97319 2.47872 2.57833 2.57928C2.22173 2.66385 1.87568 2.78797 1.54662 2.94933C1.11154 3.16921 0.963385 3.54865 1.05858 4.0273C1.17724 4.62528 1.48427 5.13141 1.84695 5.60739C2.51478 6.47069 3.33055 7.20861 4.25629 7.78679C4.34098 7.83636 4.41448 7.90293 4.47217 7.98231C4.52986 8.06169 4.57049 8.15216 4.59148 8.24801C4.67997 8.59527 4.79997 8.93448 4.90723 9.27772L4.86969 9.34677Z" fill="white"/>
<path d="M14.3174 18.8701H7.97763C7.97763 18.4082 7.96624 17.9577 7.98769 17.5092C7.99171 17.4288 8.12177 17.3423 8.21026 17.284C8.25785 17.2532 8.34433 17.2739 8.41137 17.2739H13.889C14.2725 17.2739 14.3235 17.3256 14.3241 17.707L14.3174 18.8701Z" fill="white"/>
</svg>
