<svg width="31" height="31" viewBox="0 0 31 31" fill="none" xmlns="http://www.w3.org/2000/svg">
<g clip-path="url(#clip0_949_1852)">
<path d="M17.0952 21.5997C17.1004 21.4782 17.1091 21.3724 17.1091 21.2657C17.1091 20.6535 17.0995 20.0414 17.1161 19.4293C17.1441 18.372 17.4353 17.3926 18.1428 16.5898C18.6911 15.9681 19.2796 15.3821 19.8786 14.805C21.2401 13.5063 22.1759 11.8254 22.5624 9.98397C23.2498 6.82096 23.4264 3.62036 23.4789 0.404011C23.4867 0.0804524 23.304 0 23.0198 0C17.51 0 12.0007 0 6.49205 0C6.11865 0 6.02333 0.0926952 6.0312 0.466099C6.04607 1.19892 6.06443 1.93086 6.09416 2.6628C6.18161 4.92509 6.38537 7.176 6.81999 9.40244C7.16278 11.1514 7.7653 12.7919 9.00619 14.1246C9.56411 14.7237 10.1579 15.2903 10.7377 15.8736C11.4198 16.554 12.0144 17.2981 12.2243 18.2627C12.3247 18.7874 12.3832 19.3193 12.3992 19.8534C12.4272 20.4279 12.4053 21.0051 12.4053 21.5971L17.0952 21.5997Z" fill="white"/>
<path d="M14.7595 30.5935H21.0898C21.5944 30.5935 21.6469 30.5401 21.6469 30.0242C21.6469 28.7124 21.6469 27.4007 21.6469 26.089C21.6469 25.636 21.5664 25.5547 21.1143 25.5547H8.38797C7.94461 25.5547 7.86328 25.6421 7.86328 26.0977C7.86328 27.4217 7.86328 28.7451 7.86328 30.0679C7.86328 30.5279 7.93149 30.5926 8.39672 30.5926L14.7595 30.5935Z" fill="white"/>
<path d="M22.6997 12.565C22.9035 12.5011 23.0705 12.4592 23.2305 12.3971C25.3896 11.5619 27.1578 10.189 28.6374 8.42867C29.2233 7.72908 29.7113 6.96828 30.006 6.0973C30.5701 4.42616 30.0008 3.07509 28.3637 2.42447C27.6327 2.13414 26.8343 1.99947 26.0551 1.85343C25.5147 1.75199 24.9559 1.75112 24.3665 1.70215V3.06634C24.781 3.09782 25.1937 3.11706 25.6039 3.16253C26.5063 3.26135 27.4079 3.37853 28.2098 3.85075C28.7503 4.16906 28.9969 4.64303 28.815 5.23593C28.6401 5.8026 28.4214 6.37976 28.0961 6.86947C26.9462 8.60007 25.3704 9.85932 23.5313 10.8046C23.3987 10.8659 23.2899 10.9692 23.2218 11.0985C23.0355 11.5628 22.8825 12.0403 22.6997 12.565Z" fill="white"/>
<path d="M6.57008 12.1932L6.62167 12.1057C6.48176 11.658 6.32522 11.2155 6.20979 10.7625C6.1824 10.6375 6.12941 10.5195 6.05416 10.4159C5.97891 10.3124 5.88302 10.2255 5.77255 10.1609C4.5638 9.40611 3.49874 8.44262 2.62704 7.3153C2.15394 6.69441 1.75255 6.0333 1.59865 5.25327C1.47447 4.62889 1.66773 4.13393 2.23527 3.8471C2.66441 3.63571 3.11582 3.47292 3.5811 3.36176C4.09617 3.23409 4.63048 3.18686 5.1368 3.09942V1.76758C4.85609 1.79644 4.61823 1.8148 4.38212 1.84541C3.40358 1.97046 2.4364 2.1471 1.57066 2.6543C0.56763 3.24108 0.108527 4.11731 0.239699 5.2865C0.33152 6.11201 0.680439 6.83608 1.1238 7.5208C2.06737 8.97244 3.30476 10.1338 4.73017 11.0957C5.32219 11.4918 5.95532 11.8285 6.57008 12.1932Z" fill="white"/>
<path d="M18.894 24.6145V23.0973C18.894 22.5997 18.8267 22.5324 18.3265 22.5324H11.1811C11.0936 22.5324 10.9852 22.5053 10.9187 22.5455C10.8033 22.6216 10.6336 22.7344 10.6284 22.8393C10.6004 23.4243 10.6153 24.012 10.6153 24.6145H18.894Z" fill="white"/>
<path d="M17.0952 21.5997H12.3966C12.3966 21.0077 12.4184 20.4305 12.3904 19.856C12.3745 19.322 12.316 18.7901 12.2155 18.2653C12.01 17.3034 11.4154 16.5566 10.7289 15.8762C10.1491 15.2965 9.55537 14.7298 8.99745 14.1273C7.75656 12.7937 7.15404 11.154 6.81124 9.40506C6.374 7.17863 6.17637 4.92771 6.08542 2.66542C6.05569 1.93348 6.03733 1.20154 6.02246 0.468723C6.02246 0.0953186 6.11778 0 6.49118 0C12.0004 0 17.5097 0 23.0189 0C23.304 0 23.4868 0.0804524 23.4789 0.404011C23.4264 3.62036 23.2498 6.82096 22.5651 9.98134C22.1785 11.8227 21.2427 13.5037 19.8813 14.8024C19.2849 15.3795 18.6937 15.9654 18.1454 16.5872C17.438 17.39 17.1468 18.3694 17.1188 19.4266C17.1022 20.0388 17.1144 20.6509 17.1118 21.263C17.1118 21.3697 17.103 21.4755 17.0952 21.5997Z" fill="#A29213"/>
<path d="M14.7595 30.5936H8.39672C7.93149 30.5936 7.86328 30.5262 7.86328 30.0689C7.86328 28.7461 7.86328 27.4227 7.86328 26.0987C7.86328 25.6414 7.94461 25.5557 8.38797 25.5557H21.1178C21.5699 25.5557 21.6504 25.637 21.6504 26.09C21.6504 27.4023 21.6504 28.714 21.6504 30.0251C21.6504 30.5411 21.5979 30.5944 21.0933 30.5944L14.7595 30.5936Z" fill="#A29213"/>
<path d="M22.6997 12.5642C22.8825 12.0395 23.0355 11.562 23.2244 11.0977C23.2925 10.9684 23.4013 10.8652 23.534 10.8039C25.3704 9.85855 26.9444 8.5993 28.0988 6.86869C28.4241 6.37898 28.6453 5.80183 28.8176 5.23516C28.9977 4.64226 28.7529 4.16829 28.2124 3.84998C27.4105 3.37776 26.509 3.26058 25.6065 3.16176C25.1964 3.11629 24.7836 3.09705 24.3691 3.06557V1.70312C24.9585 1.7521 25.5173 1.75297 26.0577 1.85441C26.8369 2.00045 27.6318 2.13512 28.3664 2.42545C30.0034 3.07431 30.5727 4.42539 30.0086 6.09827C29.7139 6.97276 29.226 7.73181 28.6401 8.42965C27.1604 10.19 25.3922 11.5629 23.2331 12.398C23.0705 12.4584 22.9035 12.5047 22.6997 12.5642Z" fill="#A29213"/>
<path d="M6.57008 12.1932C5.95794 11.8285 5.32219 11.4936 4.73367 11.0931C3.30826 10.1311 2.07087 8.96982 1.1273 7.51818C0.680439 6.83608 0.33152 6.11201 0.239699 5.2865C0.108527 4.11731 0.56763 3.24108 1.57066 2.6543C2.4364 2.1471 3.40708 1.97046 4.38212 1.84541C4.61823 1.8148 4.85609 1.79644 5.1368 1.76758V3.10291C4.6296 3.18337 4.09617 3.23409 3.5811 3.36526C3.11592 3.47558 2.66452 3.63749 2.23527 3.84797C1.66773 4.1348 1.47447 4.62976 1.59865 5.25414C1.75343 6.03418 2.15394 6.69441 2.62704 7.3153C3.4982 8.44144 4.56233 9.40402 5.76993 10.1582C5.8804 10.2229 5.97628 10.3097 6.05153 10.4133C6.12679 10.5168 6.17978 10.6348 6.20717 10.7599C6.3226 11.2129 6.47913 11.6554 6.61905 12.1031L6.57008 12.1932Z" fill="#A29213"/>
<path d="M18.894 24.6145H10.6241C10.6241 24.012 10.6092 23.4243 10.6372 22.8393C10.6424 22.7344 10.8121 22.6216 10.9275 22.5455C10.9896 22.5053 11.1024 22.5324 11.1899 22.5324H18.3352C18.8355 22.5324 18.9019 22.5997 18.9028 23.0973L18.894 24.6145Z" fill="#A29213"/>
</g>
<defs>
<clipPath id="clip0_949_1852">
<rect width="30" height="30.5938" fill="white" transform="translate(0.217773)"/>
</clipPath>
</defs>
</svg>
