<svg width="30" height="31" viewBox="0 0 30 31" fill="none" xmlns="http://www.w3.org/2000/svg">
<path d="M17.9943 0C18.2527 0.177022 18.3177 0.427855 18.3071 0.728729C18.2927 1.28294 18.3071 1.83777 18.3015 2.39198C18.2965 2.77855 18.1201 2.98372 17.8098 2.98748C17.4995 2.99123 17.3006 2.76854 17.2975 2.37697C17.2925 1.82214 17.3063 1.26793 17.2919 0.713717C17.285 0.406587 17.3738 0.16326 17.6434 0H17.9943Z" fill="#FDD020"/>
<path d="M10.8444 5.57191C10.6505 5.44681 10.4953 5.38425 10.3827 5.27103C9.75723 4.65803 9.13796 4.03626 8.52183 3.41325C8.26099 3.14928 8.24347 2.85653 8.45927 2.6401C8.67508 2.42367 8.97157 2.44494 9.23304 2.70266C9.86273 3.32817 10.4895 3.95494 11.1133 4.58296C11.281 4.75248 11.4017 4.95828 11.2603 5.18346C11.1671 5.33296 10.9983 5.43367 10.8444 5.57191Z" fill="#FDD020"/>
<path d="M27.3626 2.95811C27.2638 3.13013 27.2156 3.274 27.1205 3.37095C26.4804 4.02441 25.8341 4.67203 25.1814 5.31381C24.9375 5.55464 24.6372 5.55839 24.4308 5.34509C24.2375 5.14367 24.2432 4.84467 24.4683 4.61386C25.1172 3.95581 25.7701 3.30194 26.4268 2.65223C26.5964 2.48272 26.8153 2.4283 27.013 2.5509C27.1562 2.63784 27.2419 2.81111 27.3626 2.95811Z" fill="#FDD020"/>
<path d="M28.2873 12.4858C27.9745 12.4858 27.6617 12.494 27.349 12.4858C27.0031 12.474 26.7816 12.2632 26.7898 11.976C26.7979 11.6983 27.0137 11.4906 27.3427 11.485C27.9762 11.4737 28.61 11.4737 29.2443 11.485C29.5714 11.4913 29.7848 11.7064 29.7873 11.9854C29.7898 12.2644 29.5796 12.4714 29.2499 12.4858C28.9203 12.5002 28.6069 12.4858 28.2848 12.4858H28.2873Z" fill="#FDD020"/>
<path d="M10.8887 11.9449C11.2265 9.26203 13.3795 6.65612 16.5896 6.11567C19.8186 5.57272 22.8899 7.27788 24.1741 10.3029C25.3625 13.1071 24.4731 16.2409 22.5827 17.9499C22.2074 17.3456 21.7533 16.8183 21.1722 16.4117C19.8843 15.511 18.4743 15.2451 16.9524 15.6386C16.7273 15.6974 16.6272 15.6773 16.5046 15.4565C15.3299 13.3354 13.5302 12.1682 11.1064 11.9805C11.0325 11.9755 10.96 11.9568 10.8887 11.9449Z" fill="#FDD020"/>
<path d="M14.0649 30.0374C11.0217 30.0374 7.97857 30.0499 4.93605 30.033C3.02759 30.0224 1.60454 29.1635 0.762587 27.4415C-0.514096 24.8412 1.15792 21.6242 4.01528 21.1494C4.23609 21.1125 4.46128 21.1044 4.68146 21.0675C5.0868 20.9999 5.24943 20.7547 5.15811 20.3562C5.10181 20.1098 5.01236 19.8702 4.96357 19.6231C4.69819 18.2951 4.93469 16.9158 5.62733 15.7519C6.31996 14.5881 7.41954 13.7225 8.71342 13.3224C10.0073 12.9223 11.4036 13.0162 12.6323 13.5859C13.8609 14.1556 14.8347 15.1607 15.3653 16.4067C15.6205 17.011 15.7832 17.0785 16.3943 16.8358C18.5411 15.9839 21.0482 17.2437 21.6587 19.4868C21.6873 19.6199 21.7279 19.7501 21.78 19.8758C21.9189 20.1642 22.1747 20.1886 22.4537 20.1448C23.9061 19.9121 25.2179 20.2409 26.3888 21.1313C27.9726 22.3385 28.6451 24.4284 28.0927 26.4538C27.5923 28.2841 25.8815 29.7559 23.9812 29.9805C23.6812 30.0161 23.3794 30.0343 23.0773 30.0349C20.0728 30.0386 17.0686 30.0395 14.0649 30.0374Z" fill="#A3D4F7"/>
</svg>
