<svg width="28" height="29" viewBox="0 0 28 29" fill="none" xmlns="http://www.w3.org/2000/svg">
<path d="M13.7776 28.6517C21.3868 28.6517 27.5552 22.2378 27.5552 14.3258C27.5552 6.41389 21.3868 0 13.7776 0C6.16845 0 0 6.41389 0 14.3258C0 22.2378 6.16845 28.6517 13.7776 28.6517Z" fill="#FFD432"/>
<path d="M13.7775 26.0807C20.021 26.0807 25.0824 20.8179 25.0824 14.326C25.0824 7.83405 20.021 2.57129 13.7775 2.57129C7.53402 2.57129 2.47266 7.83405 2.47266 14.326C2.47266 20.8179 7.53402 26.0807 13.7775 26.0807Z" fill="#F07B0F"/>
<path d="M9.40658 10.3115H4.08789V11.3737H9.40658V10.3115Z" fill="white"/>
<path d="M23.4681 10.311H18.1494V11.3732H23.4681V10.311Z" fill="white"/>
<path d="M8.35414 15.3104H4.08789V18.3406H4.98891V16.3094H8.35414V15.3093V15.3104Z" fill="white"/>
<path d="M21.6347 12.3113H20.6729V18.3405H21.6347V12.3113Z" fill="white"/>
<path d="M11.4189 10.3112H12.3807V17.3405H15.7161V10.3112H16.6929V17.305C16.6929 17.4447 16.6758 17.5833 16.6331 17.7152C16.5542 17.958 16.3719 18.2618 15.9571 18.2618H12.1867C12.1867 18.2618 11.7346 18.3073 11.5106 17.7795C11.4467 17.6287 11.4211 17.4635 11.4211 17.2983V10.3101L11.4189 10.3112Z" fill="white"/>
<path d="M5.16256 21.9684C5.16256 21.9684 1.15115 17.1144 3.32746 10.4842C3.32746 10.4842 5.32037 3.74317 12.5051 2.7176C12.5051 2.7176 17.1723 1.85723 21.3159 5.71337C21.3159 5.71337 18.117 1.99582 12.6629 2.35727C12.6629 2.35727 8.41477 2.30183 4.82241 6.76777C4.82241 6.76777 2.69835 9.2369 2.35713 13.5643C2.35713 13.5643 1.96367 18.2519 5.16256 21.9695V21.9684Z" fill="#C96512"/>
<path opacity="0.57" d="M5.64797 5.82859C5.64797 5.82859 6.90407 4.42716 8.87032 3.4149L7.18877 1.74072C7.18877 1.74072 5.14148 2.92595 4.08691 4.14111L5.64797 5.82748V5.82859Z" fill="#F9F7F2"/>
<path opacity="0.57" d="M24.6325 17.621L24.48 18.1233L24.2764 18.6954L26.6073 19.5613C26.6073 19.5613 27.0605 18.3151 27.0765 18.0878L27.2236 17.4702L24.753 17.1609L24.6336 17.621H24.6325Z" fill="#F9F7F2"/>
<path opacity="0.57" d="M23.8177 19.7354L23.5991 20.1522L23.3262 20.6223L25.3159 22.159L25.6496 21.6013L25.9525 21.0392L23.8177 19.7354Z" fill="#F9F7F2"/>
<path opacity="0.57" d="M4.59574 7.06584L4.3409 7.42839L3.99222 8.02156L2.07715 6.75762L2.37358 6.2853L2.75318 5.73315L4.59574 7.06584Z" fill="#F9F7F2"/>
</svg>
