<svg width="34" height="35" viewBox="0 0 34 35" fill="none" xmlns="http://www.w3.org/2000/svg">
<path d="M16.7143 34.7587C25.9453 34.7587 33.4286 26.9777 33.4286 17.3793C33.4286 7.781 25.9453 0 16.7143 0C7.48324 0 0 7.781 0 17.3793C0 26.9777 7.48324 34.7587 16.7143 34.7587Z" fill="#FFD432"/>
<path d="M16.7142 31.6395C24.2885 31.6395 30.4287 25.255 30.4287 17.3793C30.4287 9.50364 24.2885 3.11914 16.7142 3.11914C9.13992 3.11914 2.99974 9.50364 2.99974 17.3793C2.99974 25.255 9.13992 31.6395 16.7142 31.6395Z" fill="#F07B0F"/>
<path d="M11.4119 12.5093H4.95952V13.7978H11.4119V12.5093Z" fill="white"/>
<path d="M28.4703 12.5089H22.0179V13.7975H28.4703V12.5089Z" fill="white"/>
<path d="M10.1351 18.5737H4.9595V22.2497H6.05257V19.7856H10.1351V18.5724V18.5737Z" fill="white"/>
<path d="M26.2466 14.9354H25.0798V22.2498H26.2466V14.9354Z" fill="white"/>
<path d="M13.8529 12.5089H15.0197V21.0365H19.066V12.5089H20.2509V20.9935C20.2509 21.1629 20.2302 21.3311 20.1785 21.4911C20.0827 21.7857 19.8615 22.1542 19.3583 22.1542H14.7842C14.7842 22.1542 14.2358 22.2094 13.9641 21.5691C13.8865 21.3862 13.8555 21.1858 13.8555 20.9854V12.5076L13.8529 12.5089Z" fill="white"/>
<path d="M6.26348 26.6508C6.26348 26.6508 1.39705 20.7622 4.03724 12.7188C4.03724 12.7188 6.45493 4.54092 15.171 3.29675C15.171 3.29675 20.833 2.25299 25.8598 6.93107C25.8598 6.93107 21.9791 2.42113 15.3625 2.85961C15.3625 2.85961 10.2089 2.79236 5.85083 8.21021C5.85083 8.21021 3.27403 11.2056 2.86008 16.4553C2.86008 16.4553 2.38275 22.1422 6.26348 26.6521V26.6508Z" fill="#C96512"/>
<path opacity="0.57" d="M6.85208 7.07088C6.85208 7.07088 8.37591 5.37074 10.7613 4.14271L8.72129 2.11169C8.72129 2.11169 6.23763 3.54955 4.95828 5.02372L6.85208 7.06954V7.07088Z" fill="#F9F7F2"/>
<path opacity="0.57" d="M29.883 21.3768L29.698 21.9861L29.4509 22.6801L32.2787 23.7306C32.2787 23.7306 32.8284 22.2188 32.8478 21.9431L33.0263 21.1939L30.0291 20.8186L29.8842 21.3768H29.883Z" fill="#F9F7F2"/>
<path opacity="0.57" d="M28.8945 23.9418L28.6293 24.4475L28.2982 25.0178L30.712 26.882L31.1169 26.2055L31.4842 25.5235L28.8945 23.9418Z" fill="#F9F7F2"/>
<path opacity="0.57" d="M5.57532 8.57207L5.26616 9.0119L4.84316 9.7315L2.5199 8.19815L2.87951 7.62516L3.34002 6.95532L5.57532 8.57207Z" fill="#F9F7F2"/>
</svg>
