<svg width="34" height="35" viewBox="0 0 34 35" fill="none" xmlns="http://www.w3.org/2000/svg">
<path d="M16.7143 34.7587C25.9453 34.7587 33.4286 26.9777 33.4286 17.3793C33.4286 7.781 25.9453 0 16.7143 0C7.48324 0 0 7.781 0 17.3793C0 26.9777 7.48324 34.7587 16.7143 34.7587Z" fill="#FFD432"/>
<path d="M16.7142 31.6396C24.2885 31.6396 30.4287 25.2551 30.4287 17.3794C30.4287 9.5037 24.2885 3.1192 16.7142 3.1192C9.13994 3.1192 2.99976 9.5037 2.99976 17.3794C2.99976 25.2551 9.13994 31.6396 16.7142 31.6396Z" fill="#F07B0F"/>
<path d="M11.4118 12.5092H4.95947V13.7978H11.4118V12.5092Z" fill="white"/>
<path d="M28.4702 12.5089H22.0178V13.7975H28.4702V12.5089Z" fill="white"/>
<path d="M10.1351 18.5737H4.95947V22.2497H6.05254V19.7856H10.1351V18.5724V18.5737Z" fill="white"/>
<path d="M26.2464 14.9354H25.0796V22.2498H26.2464V14.9354Z" fill="white"/>
<path d="M13.8528 12.5089H15.0196V21.0365H19.0659V12.5089H20.2508V20.9935C20.2508 21.1629 20.2301 21.3311 20.1784 21.4911C20.0826 21.7857 19.8614 22.1542 19.3582 22.1542H14.7842C14.7842 22.1542 14.2357 22.2094 13.964 21.5691C13.8864 21.3862 13.8554 21.1858 13.8554 20.9854V12.5076L13.8528 12.5089Z" fill="white"/>
<path d="M6.26355 26.6507C6.26355 26.6507 1.39713 20.7621 4.03731 12.7187C4.03731 12.7187 6.455 4.54086 15.1711 3.29669C15.1711 3.29669 20.8331 2.25293 25.8599 6.931C25.8599 6.931 21.9792 2.42106 15.3626 2.85955C15.3626 2.85955 10.209 2.7923 5.8509 8.21014C5.8509 8.21014 3.2741 11.2056 2.86016 16.4553C2.86016 16.4553 2.38283 22.1421 6.26355 26.6521V26.6507Z" fill="#C96512"/>
<path opacity="0.57" d="M6.85205 7.07088C6.85205 7.07088 8.37588 5.37074 10.7612 4.14271L8.72126 2.11169C8.72126 2.11169 6.2376 3.54955 4.95825 5.02372L6.85205 7.06954V7.07088Z" fill="#F9F7F2"/>
<path opacity="0.57" d="M29.883 21.3768L29.698 21.9861L29.4509 22.6801L32.2787 23.7306C32.2787 23.7306 32.8285 22.2188 32.8479 21.9431L33.0264 21.1939L30.0292 20.8186L29.8843 21.3768H29.883Z" fill="#F9F7F2"/>
<path opacity="0.57" d="M28.8944 23.9418L28.6293 24.4476L28.2981 25.0179L30.7119 26.8821L31.1168 26.2055L31.4842 25.5236L28.8944 23.9418Z" fill="#F9F7F2"/>
<path opacity="0.57" d="M5.57544 8.57201L5.26628 9.01184L4.84328 9.73144L2.52002 8.19808L2.87963 7.62509L3.34015 6.95526L5.57544 8.57201Z" fill="#F9F7F2"/>
</svg>
