<svg width="44" height="31" viewBox="0 0 44 31" fill="none" xmlns="http://www.w3.org/2000/svg">
<path d="M35.641 13.6436H40.0893C39.9691 16.3005 39.2237 18.7116 38.0795 20.9672C37.5525 22.0048 37.6426 22.6165 38.4181 23.4193C40.2422 25.3089 41.9734 27.2859 43.9559 29.4595C41.7659 29.4595 39.8408 29.5086 37.9184 29.4185C37.5252 29.3994 37.1211 28.8888 36.7852 28.5447C36.0588 27.802 35.3707 27.0183 34.5815 26.1581C32.2741 28.3481 29.5926 29.6943 26.4633 29.9565C23.3121 30.2213 20.4204 29.5059 17.9983 27.2722C14.7516 30.0657 11.0761 30.6637 7.13031 29.4076C2.42266 27.9085 -0.559209 22.7394 0.0879553 17.4555C0.724197 12.2619 3.53404 8.84854 7.985 7.85731C13.0968 6.71863 17.4276 8.87038 19.6148 13.6272C19.6886 13.7883 19.7787 13.9412 19.9152 14.2006C20.8081 13.7692 21.6738 13.3487 22.4711 12.9636C21.6656 11.5164 20.7317 10.2057 20.1719 8.75023C18.7847 5.14577 20.3002 1.95637 23.9102 0.659313C26.1029 -0.129846 28.3529 -0.222688 30.6057 0.446322C34.9775 1.74611 36.635 6.25442 34.1692 10.1128C33.0797 11.8195 31.5423 13.0046 29.721 13.8074C28.1017 14.5201 26.4333 15.1154 24.8031 15.8008C23.0828 16.5244 21.6683 17.5757 20.8546 19.3615C20.6853 19.7302 19.9753 20.0469 19.5084 20.0524C15.142 20.1043 10.7757 20.0824 6.40668 20.0824C5.9179 20.0824 5.42911 20.0824 4.95398 20.0824C4.80106 22.5755 6.33022 24.8638 8.60213 25.724C10.9614 26.6169 13.8313 26.0325 15.1775 24.1757C15.8083 23.3046 16.4855 23.0698 17.444 23.1544C17.8945 23.1954 18.356 23.1926 18.8066 23.1544C20.0244 23.0507 20.9064 23.2609 21.7393 24.4378C23.2848 26.6196 27.1787 26.8135 29.8411 25.0795C32.6373 23.2582 34.0081 20.4702 34.8901 17.3955C35.226 16.224 35.3762 15.0007 35.6438 13.6408L35.641 13.6436ZM15.8984 16.579C15.7346 13.2995 13.3562 11.0549 10.2487 11.1723C7.22861 11.2843 4.82837 13.7146 4.94852 16.579H15.8984ZM30.8651 6.51929C30.9307 5.2905 30.3654 4.32658 29.1366 3.81868C27.7631 3.25343 26.4305 3.42546 25.3055 4.39211C24.2515 5.29596 24.2624 6.52475 24.8331 7.63613C25.4066 8.75296 26.1957 9.76604 26.9548 10.7736C27.0968 10.9621 27.5993 11.0494 27.856 10.9566C29.5517 10.3422 30.8487 8.42802 30.8651 6.51929Z" fill="#E40513"/>
</svg>
