<svg width="20" height="18" viewBox="0 0 20 18" fill="none" xmlns="http://www.w3.org/2000/svg">
<path d="M12.2254 3.05078L2.86182 12.3159L6.5471 15.9529L15.9006 6.69089L12.2254 3.05078Z" fill="white"/>
<path d="M16.9193 5.71097C16.9456 5.68813 16.982 5.6589 17.0153 5.62647C17.5786 5.06881 18.1437 4.51297 18.7047 3.95303C19.2828 3.37481 19.281 2.63902 18.7015 2.06126C18.19 1.55156 17.677 1.04368 17.1624 0.537624C16.4335 -0.17898 15.4494 -0.179436 14.7223 0.537624C14.3007 0.950048 13.8827 1.36978 13.4592 1.78083C13.3715 1.86716 13.2746 1.9416 13.186 2.01468L16.9193 5.71097Z" fill="white"/>
<path d="M0.863281 17.4474C0.95832 17.0551 1.05797 16.6637 1.14794 16.2705C1.36846 15.3013 1.58437 14.3317 1.79383 13.4004L5.45005 17.0145C5.1414 17.0903 4.78754 17.178 4.43507 17.2634L1.50917 17.9654C1.16639 18.0476 1.03906 17.9951 0.863281 17.6964V17.4474Z" fill="white"/>
<path d="M12.2254 3.05078L15.9006 6.69089L6.5471 15.9529L2.86182 12.3159L12.2254 3.05078Z" fill="white"/>
<path d="M16.9184 5.71154L13.186 2.01708C13.2723 1.944 13.3706 1.86955 13.4592 1.78323C13.8818 1.36944 14.2997 0.950619 14.7214 0.535912C15.4485 -0.178866 16.4326 -0.178409 17.1615 0.535912C17.6761 1.04349 18.1888 1.55213 18.6997 2.06184C19.2791 2.63959 19.281 3.37538 18.7029 3.9536C18.1419 4.51354 17.5767 5.06984 17.0134 5.62704C16.9802 5.65947 16.9437 5.6887 16.9184 5.71154Z" fill="white"/>
</svg>
