<svg width="37" height="26" viewBox="0 0 37 26" fill="none" xmlns="http://www.w3.org/2000/svg">
<path d="M3.81656 25.6683C3.81656 25.1672 3.80356 24.7291 3.82555 24.2899C3.82555 24.1915 3.9405 24.0842 4.02546 24.0123C4.48824 23.6372 4.96401 23.2768 5.4248 22.8968C5.5251 22.8146 5.58951 22.6976 5.60471 22.5699C5.6237 21.4633 5.61571 20.3586 5.61571 19.1988L3.81656 19.888C3.81656 19.4942 3.80256 19.1398 3.82655 18.7893C3.83936 18.7362 3.86393 18.6867 3.8985 18.6441C3.93306 18.6016 3.97676 18.5671 4.02646 18.5431C4.47225 18.3462 4.93203 18.1916 5.37682 17.9977C5.47677 17.9544 5.60171 17.8224 5.60271 17.7309C5.61671 16.2068 5.61271 14.6788 5.61271 13.1409L3.82855 12.6043V11.3904L5.61571 11.8994V9.84561C5.61571 9.03336 5.58972 8.22012 5.6257 7.40983C5.64769 6.92346 5.53375 6.53752 5.18091 6.18801C4.84807 5.8572 4.60418 5.43384 4.25235 5.12764C3.74159 4.68164 3.79657 4.14309 3.82955 3.58781C4.26934 3.46671 4.5692 3.58092 4.84107 3.93634C5.31385 4.55562 5.8356 5.13749 6.34936 5.72527C6.43299 5.82418 6.55157 5.88821 6.6812 5.90445C7.78069 5.91824 8.88017 5.91233 10.0406 5.91233L8.85318 3.54449C9.29697 3.54449 9.68878 3.52972 10.0776 3.55532C10.1626 3.56123 10.2635 3.69709 10.3145 3.79456C10.6403 4.41778 10.9472 5.04987 11.277 5.66521C11.33 5.76366 11.4629 5.88969 11.5609 5.89067C12.7214 5.90642 13.8818 5.90052 15.1022 5.90052C14.9723 5.10402 14.8473 4.33804 14.7204 3.55433H15.9198C16.0558 4.33607 16.1897 5.10795 16.3247 5.88772H20.1089C20.2418 5.12075 20.3757 4.35182 20.5137 3.56123H21.7201C21.5922 4.34 21.4682 5.10106 21.3363 5.90052C22.5497 5.90052 23.7222 5.90642 24.8946 5.88969C24.9946 5.88969 25.1175 5.7548 25.1715 5.65339C25.5007 5.03182 25.8185 4.40531 26.125 3.77389C26.1524 3.69393 26.2075 3.62598 26.2805 3.5819C26.3536 3.53782 26.4401 3.5204 26.5248 3.53267C26.8577 3.5504 27.1915 3.53267 27.5873 3.53267C27.1815 4.33508 26.8017 5.08826 26.3939 5.89559C27.3584 5.89559 28.267 5.85818 29.1706 5.90938C29.7423 5.94187 30.1241 5.77843 30.449 5.31176C30.7868 4.82736 31.2276 4.41286 31.5824 3.93831C31.8433 3.58978 32.1422 3.44603 32.595 3.56615C32.632 4.0791 32.7119 4.58713 32.2471 5.03805C31.7824 5.48897 31.4035 6.01965 30.9907 6.51783C30.9005 6.61484 30.8429 6.7369 30.8258 6.86734C30.8158 8.5273 30.8188 10.1882 30.8188 11.9033L32.603 11.3914V12.6122L30.8198 13.1507C30.8198 14.6857 30.8198 16.2028 30.8288 17.7122C30.8389 17.7714 30.8626 17.8275 30.8981 17.8763C30.9336 17.9251 30.98 17.9653 31.0337 17.9937C31.4655 18.1838 31.9063 18.359 32.3531 18.5136C32.57 18.5874 32.6359 18.7026 32.624 18.9173C32.606 19.2234 32.619 19.5316 32.619 19.89L30.8198 19.1959C30.8198 20.3636 30.8198 21.4919 30.8288 22.6192C30.852 22.7343 30.9184 22.8366 31.0147 22.9057C31.4765 23.2827 31.9543 23.6401 32.4141 24.0212C32.5228 24.1109 32.594 24.2372 32.614 24.3756C32.6389 24.7793 32.623 25.1859 32.623 25.6555C32.497 25.5718 32.4081 25.5196 32.3281 25.4586C30.6399 24.1304 28.9547 22.8003 27.2585 21.4791C27.0949 21.357 26.8968 21.2882 26.6918 21.2821C21.0551 21.2723 15.4191 21.2723 9.78374 21.2821C9.56705 21.2871 9.35736 21.3588 9.18402 21.4869C7.50581 22.7885 5.8406 24.1058 4.17039 25.4192C4.07144 25.4901 3.97348 25.5571 3.81656 25.6683ZM19.5091 9.44096L19.9 7.11742H16.5326C16.6675 7.90506 16.7964 8.67104 16.9264 9.44096H19.5091ZM11.9967 7.10068C12.3905 7.87848 12.7543 8.60114 13.1282 9.31986C13.1495 9.35457 13.1786 9.38404 13.2133 9.40604C13.2479 9.42805 13.2872 9.442 13.3281 9.44687C14.1117 9.45179 14.8883 9.45179 15.7109 9.45179C15.573 8.64052 15.4421 7.87159 15.3111 7.0997L11.9967 7.10068ZM20.7296 9.45179C21.1944 9.45179 21.6291 9.39469 22.036 9.4636C22.9675 9.62015 23.5193 9.28934 23.7981 8.39438C23.9361 7.95133 24.2099 7.54865 24.4358 7.10068H21.1264C20.9954 7.87651 20.8665 8.64544 20.7296 9.45179ZM11.8448 9.45179C11.445 8.66415 11.0831 7.93066 10.6973 7.20603C10.6583 7.13317 10.4894 7.09478 10.3805 7.09379C9.51886 7.08887 8.65827 7.08887 7.79668 7.08887C7.70862 7.09598 7.62114 7.10881 7.5348 7.12727C8.1715 7.87946 8.77621 8.59818 9.38793 9.311C9.44749 9.38695 9.53448 9.43737 9.63081 9.45179C10.3495 9.4577 11.0681 9.45179 11.8448 9.45179ZM24.5907 9.45179C25.3664 9.45179 26.076 9.46065 26.7897 9.44293C26.9175 9.41822 27.0317 9.34815 27.1106 9.24602C27.6053 8.67793 28.0881 8.1 28.5749 7.52502L28.9317 7.08887C27.8782 7.08887 26.9206 7.08887 25.9641 7.09576C25.913 7.10234 25.8641 7.12007 25.8208 7.14766C25.7776 7.17526 25.7412 7.21202 25.7142 7.25526C25.3434 7.96216 24.9856 8.67596 24.5907 9.45179ZM27.8192 12.7993C28.365 12.6368 28.8497 12.4783 29.3425 12.3533C29.5734 12.2942 29.6244 12.1829 29.6234 11.9663C29.6134 10.7977 29.6234 9.62901 29.6174 8.46035C29.6091 8.36847 29.5957 8.2771 29.5774 8.18664C28.9967 8.87583 28.4499 9.51086 27.9112 10.1557C27.8574 10.2216 27.8266 10.3027 27.8232 10.3871C27.8162 11.1718 27.8192 11.9585 27.8192 12.7993ZM6.84513 13.5062V17.4316C7.39887 17.215 7.92162 17.019 8.43438 16.8005C8.48246 16.7735 8.52366 16.736 8.55484 16.691C8.58601 16.646 8.60635 16.5945 8.61429 16.5406C8.62828 15.7785 8.62828 15.0158 8.61429 14.2525C8.60978 14.1966 8.59149 14.1426 8.56101 14.0952C8.53053 14.0479 8.48877 14.0086 8.43937 13.9807C7.92162 13.8124 7.39387 13.6676 6.84513 13.5062ZM6.81514 8.13446C6.81514 9.53449 6.81514 10.8213 6.82214 12.1081C6.83105 12.1511 6.85019 12.1913 6.878 12.2256C6.9058 12.2598 6.94147 12.287 6.98206 12.305C7.51281 12.4724 8.04956 12.6211 8.61429 12.7855C8.61429 11.9575 8.61429 11.1708 8.61429 10.3842C8.61171 10.2996 8.58157 10.2182 8.52833 10.1518C7.98859 9.50988 7.44284 8.86992 6.81514 8.13446ZM29.6044 13.5072C29.0376 13.6716 28.5109 13.8153 27.9921 13.9847C27.9446 14.0123 27.9043 14.0506 27.8746 14.0964C27.8449 14.1423 27.8266 14.1944 27.8212 14.2485C27.8082 15.0106 27.8102 15.7726 27.8212 16.5356C27.821 16.58 27.831 16.6238 27.8504 16.6639C27.8698 16.704 27.8981 16.7392 27.9332 16.767C28.4789 16.9964 29.0326 17.2081 29.6074 17.4345L29.6044 13.5072ZM9.82072 12.9755H12.1866V10.6657H9.82572L9.82072 12.9755ZM13.43 12.9755H15.7909V10.6618H13.435L13.43 12.9755ZM17.0333 10.648V12.9765H19.3872V10.652L17.0333 10.648ZM20.6316 12.9696H22.9845V10.6549H20.6356L20.6316 12.9696ZM24.2299 12.9696H26.5968V10.6579H24.2329L24.2299 12.9696ZM12.2006 16.5297V14.2022H9.84371V16.5297H12.2006ZM15.7989 16.5297V14.2022H13.444V16.5297H15.7989ZM19.3972 16.5297V14.2062H17.0473V16.5258L19.3972 16.5297ZM20.6346 16.5218H22.9885V14.2013H20.6346V16.5218ZM24.2379 14.2003V16.5268H26.5928V14.1963L24.2379 14.2003ZM9.84471 17.7447V20.0623H12.1976V17.7427L9.84471 17.7447ZM15.7909 20.0751V17.7555H13.439V20.0731L15.7909 20.0751ZM19.4022 17.7555H17.0363V20.0711H19.4032L19.4022 17.7555ZM20.6436 17.7456V20.0633H22.9985V17.7437L20.6436 17.7456ZM24.2349 20.0652H26.5878V17.7456H24.2359L24.2349 20.0652ZM8.61429 18.0174C8.03756 18.2419 7.51481 18.4378 7.00105 18.6514C6.95581 18.6733 6.91624 18.705 6.8854 18.7443C6.85456 18.7836 6.83326 18.8292 6.82314 18.8779C6.81114 19.8299 6.81614 20.782 6.81614 21.8177C7.42785 21.3343 7.97959 20.9031 8.52333 20.462C8.58092 20.4011 8.61243 20.3207 8.61129 20.2375C8.62129 19.5119 8.61429 18.7883 8.61429 18.0174ZM27.8152 18.0115C27.8152 18.7863 27.8152 19.51 27.8152 20.2336C27.8137 20.3168 27.8444 20.3974 27.9012 20.4591C28.4449 20.9001 29.0007 21.3304 29.6104 21.8138C29.6104 20.781 29.6154 19.8289 29.6034 18.8769C29.593 18.8283 29.5715 18.7828 29.5405 18.7437C29.5095 18.7046 29.4698 18.6731 29.4245 18.6514C28.9177 18.4338 28.397 18.2359 27.8192 18.0095L27.8152 18.0115Z" fill="#A29213"/>
<path d="M2.61664 25.9921C1.97894 25.9921 1.39222 26.003 0.806495 25.9921C0.455661 25.9823 0.24576 25.7509 0.217773 25.4014C0.217773 25.3276 0.217773 25.2537 0.217773 25.1799C0.217773 17.8161 0.217773 10.454 0.217773 3.09346C0.217773 1.48569 1.2263 0.295365 2.79156 0.0344593C2.99027 0.00787011 3.19079 -0.00332246 3.39127 0.00098455C13.2759 0.000328183 23.1613 0 33.0473 0C34.9464 0 36.2168 1.25629 36.2168 3.12988C36.2168 10.4812 36.2168 17.8292 36.2168 25.174C36.2168 25.8198 36.0329 25.9961 35.3632 25.997H33.8179V3.24902C33.8179 2.52242 33.657 2.36292 32.9183 2.36292H3.51622C2.77557 2.36292 2.61664 2.51946 2.61664 3.24902V25.9921Z" fill="#A29213"/>
</svg>
