<svg width="43" height="28" viewBox="0 0 43 28" fill="none" xmlns="http://www.w3.org/2000/svg">
<g clip-path="url(#clip0_626_314)">
<path d="M38.9272 24.3612C38.6625 24.4545 38.3983 24.6248 38.1332 24.6253C37.1182 24.633 36.1027 24.595 35.0879 24.5551C34.853 24.5452 34.7197 24.6059 34.6146 24.8235C34.4261 25.2143 34.1939 25.5833 34.0018 25.972C33.8292 26.3215 33.5746 26.4143 33.216 26.3098C32.874 26.2102 32.5311 26.1135 32.1839 26.0332C31.7986 25.9458 31.6266 25.7207 31.6494 25.3231C31.6716 24.9434 31.6731 24.5624 31.6846 24.146C31.269 24.069 30.8735 23.9843 30.4732 23.931C30.3989 23.9212 30.2784 24.0192 30.2292 24.0987C30.0674 24.3584 29.9236 24.6298 29.7832 24.902C29.6389 25.1812 29.4183 25.281 29.118 25.2064C28.7116 25.1033 28.3064 24.9937 27.9021 24.8806C27.608 24.7986 27.4566 24.6108 27.4701 24.2912C27.4844 23.9624 27.4827 23.6325 27.4883 23.2933L26.009 22.8969C25.8394 23.1995 25.6663 23.4938 25.5085 23.7937C25.3507 24.0936 25.1268 24.1783 24.8105 24.0866C24.4195 23.9734 24.0257 23.87 23.631 23.7706C23.3277 23.6936 23.1821 23.5094 23.1928 23.1923C23.2045 22.85 23.2062 22.5072 23.2119 22.1517L15.7481 19.8567C15.6187 20.0917 15.4908 20.3096 15.3762 20.5347C15.2137 20.8525 14.9823 20.9806 14.6259 20.8719C14.2489 20.7571 13.8666 20.6584 13.4837 20.5659C13.1593 20.4869 13.0226 20.2834 13.023 19.9577C13.0224 19.6434 13.1222 19.2511 12.973 19.0374C12.8334 18.8368 12.4267 18.8232 12.1356 18.732C11.9899 18.686 11.8408 18.6529 11.656 18.6034C11.5003 18.8796 11.3351 19.1621 11.1808 19.4508C11.0389 19.7169 10.8225 19.8051 10.5422 19.7348C10.1233 19.6296 9.70571 19.5177 9.2894 19.3991C8.99178 19.3146 8.86241 19.1093 8.87923 18.7949C8.89672 18.4643 8.89348 18.1323 8.90208 17.7267C8.44649 17.6047 7.9843 17.4718 7.51683 17.3646C7.44281 17.3479 7.30799 17.4225 7.26089 17.4941C7.11754 17.7203 6.9862 17.9538 6.86742 18.1939C6.73004 18.4569 6.52586 18.5643 6.23746 18.4886C5.8073 18.3758 5.37743 18.2606 4.94785 18.1431C4.67754 18.0706 4.55255 17.8825 4.55573 17.6052C4.5581 17.4135 4.56516 17.2221 4.56802 17.0305C4.57645 16.3484 4.70515 16.4952 4.04551 16.2893C3.72963 16.1903 3.40991 16.1057 3.09466 16.0064C2.55365 15.8355 2.44122 15.683 2.4618 15.1206C2.54325 12.8508 2.46878 10.5731 2.83023 8.31787C2.83047 8.26719 2.82416 8.21671 2.81147 8.16769L3.20878 6.68492C3.61263 5.96409 3.96012 5.2059 4.42588 4.5292C5.37347 3.15521 6.7092 2.21207 8.11665 1.37078C8.29473 1.2711 8.48709 1.19986 8.68682 1.15963C9.32754 1.01346 9.78752 1.26067 10.0091 1.88052C10.1712 2.32549 10.2555 2.79729 10.4357 3.22964C11.2522 5.17168 12.7607 6.30429 14.739 6.84762C16.2154 7.25478 17.7693 7.2946 19.2665 6.96365C19.4649 6.92094 19.6667 6.8892 19.8683 6.86428C20.9712 6.72539 21.8675 7.03284 22.4766 8.03092C22.7879 8.53813 23.1551 9.01369 23.5152 9.52761C23.8567 9.26155 24.1947 9.17571 24.4871 9.49775C24.7592 9.79739 24.6256 10.1133 24.4112 10.4278L25.5139 11.4553C25.7912 11.1694 26.1181 11.0875 26.4274 11.3447C26.7367 11.6018 26.6464 11.9331 26.452 12.2672L27.5208 13.1363C27.7933 12.9057 28.0752 12.7736 28.393 12.9991C28.7219 13.2303 28.6353 13.5514 28.5351 13.9177C29.5415 14.565 30.5374 15.244 31.57 15.8608C33.4122 16.961 35.2782 18.0199 37.1275 19.1034C37.4464 19.2895 37.7467 19.5018 38.0518 19.7076C38.9147 20.2873 39.5287 21.0213 39.5209 22.1354L38.9272 24.3612ZM5.70688 4.85973C5.73503 5.01613 5.74139 5.08087 5.75763 5.1382C6.20981 6.92434 7.11312 8.43247 8.53291 9.60539C9.75672 10.6172 11.033 11.5668 12.2252 12.6141C13.7665 13.9685 15.0242 15.5361 15.4824 17.6221C15.5075 17.7347 15.6635 17.8586 15.7856 17.9041C16.3337 18.1076 16.8903 18.287 17.4461 18.4698C20.4527 19.4569 23.4599 20.4433 26.4676 21.429C26.5945 21.4704 26.7256 21.4982 26.9291 21.5527C26.8237 21.2993 26.7561 21.1111 26.6695 20.9332C25.3772 18.2699 23.3834 16.2471 20.8744 14.7611C19.1837 13.7598 17.3939 12.9279 15.657 12.0027C12.59 10.372 9.6106 8.60689 7.05605 6.20974C6.61436 5.79791 6.19918 5.35398 5.70688 4.85973Z" fill="#A29213"/>
<path d="M21.3772 6.09572C20.5175 5.77953 19.6745 5.96314 18.8261 6.14529C17.7227 6.38256 16.6133 6.37295 15.4454 6.14319C15.5682 6.0426 15.6502 5.96868 15.7372 5.90352C16.447 5.40505 17.1537 4.9084 17.8682 4.42018C18.9002 3.71404 19.6153 3.79757 20.431 4.73607C20.7852 5.14406 21.1031 5.58362 21.4373 6.00905L21.3772 6.09572Z" fill="#A29213"/>
</g>
<defs>
<clipPath id="clip0_626_314">
<rect width="39.0763" height="18.1426" fill="white" transform="translate(5) rotate(15)"/>
</clipPath>
</defs>
</svg>
