<svg width="36" height="36" viewBox="0 0 36 36" fill="none" xmlns="http://www.w3.org/2000/svg">
<g clip-path="url(#clip0_920_2635)">
<path d="M0 17.9953C0.00854936 8.16645 7.86046 0.162653 17.7012 0.00246896C27.7535 -0.161315 35.8457 7.84473 35.9978 17.7109C36.1521 27.7494 28.149 35.8679 18.256 35.998C8.11154 36.1316 0.00314976 27.9699 0 17.9953ZM21.1489 28.9247C22.807 28.8275 24.4512 28.6367 26.0845 28.3451C26.2393 28.3177 26.332 28.2466 26.4063 28.1076C27.6239 25.8254 28.8442 23.5446 30.0717 21.2682C30.1621 21.1009 30.1522 20.9785 30.0699 20.8151C29.2883 19.2578 28.3726 17.7806 27.4358 16.3138C27.1546 15.8733 26.8976 15.7045 26.3397 15.772C23.9508 16.0605 21.5538 16.2778 19.1605 16.5293C19.075 16.5383 18.962 16.609 18.9224 16.6837C17.9685 18.4776 17.0218 20.2752 16.0813 22.0759C16.0422 22.1506 16.0444 22.2851 16.0863 22.358C17.3188 24.5034 18.5571 26.6457 19.8021 28.7834C19.8435 28.854 19.9619 28.9157 20.0469 28.9188C20.4136 28.9337 20.7812 28.9251 21.1484 28.9251L21.1489 28.9247ZM19.1686 15.3747C20.4964 15.2393 21.7716 15.1097 23.0468 14.9788C24.2775 14.8523 25.5077 14.7232 26.7383 14.599C26.8616 14.5864 26.9395 14.5504 26.9872 14.4222C27.5307 12.9616 28.077 11.502 28.6314 10.0455C28.6952 9.87763 28.6557 9.77324 28.5441 9.6486C26.8531 7.75069 25.1644 5.85053 23.4815 3.94587C23.3559 3.80369 23.23 3.72945 23.0405 3.738C21.9404 3.78659 20.8384 3.80999 19.7396 3.88108C18.9323 3.93328 18.1296 4.04576 17.3246 4.13126C17.1784 4.14655 17.0911 4.2055 17.0393 4.36298C16.3581 6.43503 15.6692 8.50437 14.9767 10.5724C14.9344 10.6992 14.9573 10.7744 15.0478 10.8671C15.4118 11.2423 15.7758 11.6185 16.1232 12.0086C17.096 13.1002 18.0598 14.1994 19.0304 15.2928C19.0732 15.3414 19.1474 15.3621 19.169 15.3743L19.1686 15.3747ZM16.5219 32.6904C16.5691 32.6458 16.647 32.5923 16.7 32.5203C17.3912 31.5862 18.0751 30.6471 18.7708 29.7166C18.8837 29.5659 18.8783 29.4579 18.787 29.3008C17.6036 27.2661 16.4256 25.2283 15.2534 23.1873C15.1679 23.0384 15.0653 22.9794 14.9051 22.9569C12.8551 22.6703 10.8239 22.2869 8.82429 21.7483C8.65555 21.7029 8.57366 21.7447 8.48276 21.8883C7.53649 23.383 6.58751 24.876 5.62638 26.3613C5.49454 26.5651 5.48239 26.7163 5.60163 26.9278C6.41607 28.3739 7.30115 29.771 8.35047 31.0611C8.47421 31.2132 8.60876 31.2842 8.79639 31.3175C10.8775 31.6834 12.9572 32.0568 15.0374 32.4276C15.5171 32.5131 15.9968 32.5972 16.5223 32.6904H16.5219ZM3.77477 10.7366C3.82336 10.778 3.88231 10.8441 3.95475 10.8873C5.17866 11.6149 6.40617 12.3366 7.62783 13.0678C7.76822 13.152 7.86406 13.1331 7.99095 13.0512C9.81871 11.8777 11.7455 10.8954 13.7618 10.09C13.9193 10.027 13.9944 9.93523 14.0452 9.78089C14.6689 7.88838 15.2966 5.99677 15.9306 4.10741C15.9878 3.93733 15.9693 3.84688 15.8123 3.74115C14.8754 3.11166 13.8936 2.57531 12.8371 2.17125C12.6184 2.08756 12.4438 2.07811 12.2292 2.15775C9.88846 3.02482 7.82536 4.32519 6.066 6.09801C5.80951 6.35628 5.55033 6.62941 5.36765 6.93988C4.71925 8.04272 4.29583 9.24769 3.85036 10.4414C3.82156 10.5179 3.80896 10.6007 3.77432 10.7361L3.77477 10.7366ZM4.67605 25.6967C4.7341 25.6234 4.77459 25.5802 4.80609 25.5311C5.79017 23.9891 6.77559 22.448 7.75202 20.9015C7.81186 20.807 7.83436 20.6581 7.81231 20.547C7.40779 18.5033 7.19181 16.4416 7.20306 14.3583C7.20396 14.1815 7.14186 14.0933 6.99608 14.0078C5.98635 13.4183 4.98203 12.8194 3.97545 12.2241C3.70007 12.0613 3.42289 11.9011 3.14526 11.7386C3.09982 11.7895 3.06517 11.8196 3.04132 11.8565C2.63185 12.4932 2.21698 13.1263 1.82011 13.7702C1.69997 13.965 1.59198 14.1828 1.54518 14.4042C0.890933 17.4729 1.05562 20.4979 2.06894 23.4708C2.11079 23.5932 2.18144 23.7223 2.27548 23.8069C2.7205 24.2078 3.16776 24.6083 3.63618 24.9813C3.96195 25.2409 4.32283 25.456 4.6765 25.6967H4.67605ZM34.7909 19.3357C34.6119 19.4729 34.4737 19.5872 34.3279 19.6898C33.4361 20.3161 32.4813 20.8322 31.4958 21.2943C31.395 21.3416 31.2875 21.4239 31.2362 21.5189C29.9453 23.9126 28.6593 26.3095 27.3813 28.7105C27.3265 28.814 27.3224 28.9683 27.3489 29.0871C27.4511 29.5474 27.5852 30.0005 27.6882 30.4608C27.7728 30.8388 27.83 31.2226 27.8997 31.6078C29.0143 31.066 31.3262 28.5629 32.4817 26.6272C33.8172 24.3896 34.5736 21.9648 34.7909 19.3352V19.3357ZM24.3877 2.38408C24.3693 2.62031 24.3427 2.81244 24.3436 3.00457C24.3436 3.09906 24.367 3.21695 24.426 3.28354C26.1214 5.20575 27.8228 7.12346 29.5259 9.03937C29.5826 9.10326 29.6622 9.1586 29.7419 9.18785C30.9563 9.63826 32.0988 10.2277 33.1783 10.9413C33.2156 10.9661 33.2593 10.98 33.3002 10.9989C31.4378 6.98757 28.4716 4.13756 24.3877 2.38363V2.38408ZM9.80746 32.6584C11.242 33.8913 17.2468 35.3235 18.5314 34.8065C17.8439 34.4924 17.1302 34.1658 16.4148 33.8418C16.3612 33.8175 16.2991 33.8107 16.2406 33.7999C14.6774 33.5219 13.1143 33.2442 11.5511 32.9671C10.9697 32.864 10.3888 32.761 9.80746 32.658V32.6584Z" fill="#A29213"/>
</g>
<defs>
<clipPath id="clip0_920_2635">
<rect width="36" height="36" fill="white"/>
</clipPath>
</defs>
</svg>
