<svg width="29" height="28" viewBox="0 0 29 28" fill="none" xmlns="http://www.w3.org/2000/svg">
<path d="M10.7046 6.63253C9.36669 6.62736 8.27969 5.40769 8.27969 3.90943C8.27969 3.14202 8.5652 2.44817 9.02315 1.95267L8.45994 1.36009C8.35806 1.26205 8.23236 1.21362 8.10696 1.21362C7.96777 1.21362 7.82887 1.27338 7.72351 1.39148L1.01846 8.90608C0.826743 9.12115 0.806983 9.46187 0.972293 9.70294L3.43894 12.855C3.48858 12.9274 3.52212 13.011 3.53947 13.1002C3.64001 13.6163 3.81197 14.1644 4.04061 14.7337L4.27204 14.4747C4.6765 14.0218 5.21446 13.7723 5.78673 13.7723C6.35871 13.7723 6.89667 14.0217 7.30123 14.4744L7.30874 14.4829L7.31568 14.4908C7.59435 14.8041 7.78357 15.1894 7.87514 15.6082C8.19487 15.4035 8.5573 15.2923 8.93563 15.2923C9.50675 15.2923 10.0436 15.5408 10.4479 15.9919L10.457 16.002L10.4604 16.0059C10.8649 16.4584 11.0877 17.0603 11.0877 17.7004C11.0877 17.9976 11.0376 18.2855 10.9458 18.5551C11.4079 18.6244 11.8355 18.8573 12.1712 19.2327L12.1817 19.2444C12.4791 19.5773 12.6685 19.9849 12.7541 20.4135L17.6161 25.854C17.8764 26.1453 18.2249 26.2993 18.5724 26.2993C18.8487 26.2993 19.1242 26.2019 19.3538 25.9985C19.9669 25.4554 20.005 24.4449 19.4679 23.8438L14.7629 18.5791C14.5203 18.3078 14.5203 17.8678 14.7629 17.5965C14.8859 17.4589 15.0472 17.39 15.2085 17.39C15.3698 17.39 15.5311 17.4589 15.6541 17.5965L21.6381 24.2925C21.8985 24.5837 22.247 24.7378 22.5944 24.7378C22.8708 24.7378 23.1463 24.6403 23.3759 24.437C23.989 23.894 24.027 22.8834 23.4899 22.2823L17.4777 15.5548C17.2318 15.2798 17.2318 14.8338 17.4777 14.5588C17.5992 14.4229 17.7582 14.355 17.9173 14.355C18.0764 14.355 18.2355 14.4229 18.357 14.5588L23.0337 19.7919C23.294 20.0832 23.6427 20.2372 23.9901 20.2372C24.2663 20.2372 24.5419 20.1398 24.7714 19.9364C25.3846 19.3934 25.4226 18.3828 24.8854 17.7817L14.976 6.69326L10.7046 6.63253Z" fill="#A29213"/>
<path d="M14.4101 27.2641C14.7313 27.2641 15.0525 27.085 15.2726 26.7267C15.6217 26.1586 15.5605 25.334 15.1628 24.8218L14.8117 24.3696C14.7812 24.9126 14.6068 25.4447 14.2853 25.859L13.8286 26.447C13.7422 26.5584 13.6487 26.657 13.5493 26.7426L13.634 26.8518C13.8475 27.1267 14.1288 27.2641 14.4101 27.2641Z" fill="#A29213"/>
<path d="M21.2131 0.434262C21.1059 0.311057 20.9648 0.248779 20.8232 0.248779C20.6957 0.248779 20.5679 0.299366 20.4644 0.40155L20.0092 0.699334C20.0084 0.700121 20.0075 0.700571 20.0066 0.700796L10.9437 2.13059C10.2298 2.13059 9.64551 2.8008 9.64551 3.61985C9.64551 4.43889 10.2298 5.10899 10.9437 5.10899L15.7772 5.17936C15.7772 5.17936 23.2677 13.7762 24.9327 15.6861C26.2414 13.7732 27.4089 11.7729 27.7401 10.0293C27.7579 9.93649 27.7919 9.84926 27.8423 9.77394L28.0766 9.09676C28.2448 8.84563 28.2247 8.49051 28.0298 8.26614L21.2131 0.434262Z" fill="#A29213"/>
<path d="M4.10663 17.3121C4.31143 17.5145 4.57964 17.6157 4.84806 17.6157C5.11638 17.6157 5.3847 17.5145 5.5895 17.3121L6.40953 16.5014C6.81914 16.0967 6.81914 15.4404 6.40953 15.0357L6.39865 15.0249C6.19385 14.8224 5.92553 14.7212 5.65722 14.7212C5.3889 14.7212 5.12048 14.8224 4.91578 15.0249L4.09555 15.8357C3.68625 16.2403 3.68625 16.8966 4.09555 17.3013L4.10663 17.3121Z" fill="#A29213"/>
<path d="M6.7634 20.5102C7.02213 20.5102 7.28086 20.4126 7.47845 20.2174L9.34983 18.3675C9.74461 17.9774 9.74461 17.3444 9.34983 16.9541L9.33924 16.9437C9.14185 16.7485 8.88312 16.6509 8.62429 16.6509C8.36546 16.6509 8.10673 16.7485 7.90904 16.9437L6.03786 18.7935C5.64298 19.1838 5.64298 19.8166 6.03786 20.2069L6.04834 20.2174C6.24583 20.4126 6.50456 20.5102 6.7634 20.5102Z" fill="#A29213"/>
<path d="M8.94691 23.0525C9.12509 23.2874 9.35873 23.4047 9.59229 23.4047C9.82585 23.4047 10.0595 23.2874 10.2376 23.0525L11.3309 21.6116C11.6871 21.1419 11.6871 20.38 11.3309 19.9103L11.3212 19.8976C11.143 19.6628 10.9094 19.5454 10.6758 19.5454C10.4423 19.5454 10.2087 19.6628 10.0304 19.8976L8.93726 21.3386C8.58081 21.8084 8.58081 22.5701 8.93726 23.0398L8.94691 23.0525Z" fill="#A29213"/>
<path d="M12.5894 25.9675L13.2138 25.3504C13.6611 24.9081 13.6611 24.1909 13.2138 23.7485L13.2019 23.7366C12.9782 23.5154 12.6849 23.4048 12.3915 23.4048C12.0983 23.4048 11.805 23.5154 11.5811 23.7366L10.9568 24.3537C10.5092 24.7959 10.5092 25.5134 10.9568 25.9558L10.9689 25.9675C11.1926 26.1887 11.4859 26.2993 11.7791 26.2993C12.0723 26.2993 12.3657 26.1887 12.5894 25.9675Z" fill="#A29213"/>
</svg>
