<?xml version="1.0" encoding="UTF-8"?>
<svg id="Layer_1" data-name="Layer 1" xmlns="http://www.w3.org/2000/svg" viewBox="0 0 258.43 258.43">
  <defs>
    <style>
      .cls-1 {
        fill: #f9f7f2;
        opacity: .57;
      }

      .cls-1, .cls-2, .cls-3, .cls-4, .cls-5 {
        stroke-width: 0px;
      }

      .cls-2 {
        fill: #ffd432;
      }

      .cls-3 {
        fill: #fff;
      }

      .cls-4 {
        fill: #c96512;
      }

      .cls-5 {
        fill: #f07b0f;
      }
    </style>
  </defs>
  <circle class="cls-2" cx="129.21" cy="129.21" r="129.21"/>
  <circle class="cls-5" cx="129.21" cy="129.21" r="106.02"/>
  <g>
    <rect class="cls-3" x="38.34" y="93" width="49.88" height="9.58"/>
    <rect class="cls-3" x="170.21" y="93" width="49.88" height="9.58"/>
    <path class="cls-3" d="m78.35,138.09h-40.01v27.33h8.45v-18.32h31.56v-9.02Z"/>
    <rect class="cls-3" x="193.88" y="111.04" width="9.02" height="54.38"/>
    <path class="cls-3" d="m107.09,93h9.02v63.4h31.28v-63.4h9.16v63.08c0,1.26-.16,2.51-.56,3.7-.74,2.19-2.45,4.93-6.34,4.93h-35.36s-4.24.41-6.34-4.35c-.6-1.36-.84-2.85-.84-4.34v-63.03Z"/>
  </g>
  <path class="cls-4" d="m48.42,198.14s-37.62-43.78-17.21-103.58c0,0,18.69-60.8,86.07-70.05,0,0,43.77-7.76,82.63,27.02,0,0-30-33.53-81.15-30.27,0,0-39.84-.5-73.53,39.78,0,0-19.92,22.27-23.12,61.3,0,0-3.69,42.28,26.31,75.81Z"/>
  <path class="cls-1" d="m52.97,52.57s11.78-12.64,30.22-21.77l-15.77-15.1s-19.2,10.69-29.09,21.65l14.64,15.21Z"/>
  <path class="cls-1" d="m231.01,158.93l-1.43,4.53-1.91,5.16,21.86,7.81s4.25-11.24,4.4-13.29l1.38-5.57-23.17-2.79-1.12,4.15Z"/>
  <polygon class="cls-1" points="223.37 178 221.32 181.76 218.76 186 237.42 199.86 240.55 194.83 243.39 189.76 223.37 178"/>
  <polygon class="cls-1" points="43.1 63.73 40.71 67 37.44 72.35 19.48 60.95 22.26 56.69 25.82 51.71 43.1 63.73"/>
</svg>