<svg width="38" height="46" viewBox="0 0 38 46" fill="none" xmlns="http://www.w3.org/2000/svg">
<g filter="url(#filter0_d_168_193)">
<path d="M18.5742 4.68445L22.3163 0H25.9789L20.4211 7.05602L18.5742 4.68445Z" fill="#9B8C12"/>
<path d="M22.2747 9.68305L29.9831 0H25.9787L20.4209 7.05602L22.2747 9.68305Z" fill="white"/>
<path d="M22.2744 9.68305L29.9829 0H33.6904L25.6333 10.1594C25.6333 10.1594 25.5055 10.0524 25.0844 10.0524H22.7094L22.2744 9.68305Z" fill="#9B8C12"/>
<path d="M26.4072 16.3973V11.0466C26.4072 10.477 25.9446 10.0145 25.3751 10.0145H12.2296C11.7083 10.0145 11.2803 10.4391 11.2803 10.9638V16.3973L13.2618 15.0579V11.958H24.4223V15.0614L26.4072 16.3973Z" fill="#EFA128"/>
<path d="M18.8442 37.2823C25.3683 37.2823 30.6572 31.9935 30.6572 25.4693C30.6572 18.9452 25.3683 13.6564 18.8442 13.6564C12.3201 13.6564 7.03125 18.9452 7.03125 25.4693C7.03125 31.9935 12.3201 37.2823 18.8442 37.2823Z" fill="#F9AC30"/>
<path d="M18.8435 34.6898C23.9358 34.6898 28.064 30.5617 28.064 25.4694C28.064 20.377 23.9358 16.2489 18.8435 16.2489C13.7512 16.2489 9.62305 20.377 9.62305 25.4694C9.62305 30.5617 13.7512 34.6898 18.8435 34.6898Z" fill="#DD8D19"/>
<path d="M4 0H7.62812L16.928 11.9545H13.2584L4 0Z" fill="#9B8C12"/>
<path d="M11.5529 0H7.62793L16.9278 11.9545H20.9184L11.5529 0Z" fill="white"/>
<path d="M20.9182 11.9545H24.5049L15.136 0H11.5527L20.9182 11.9545Z" fill="#9B8C12"/>
<path d="M11.2842 30.7475C11.2842 30.7475 7.57663 25.9146 11.1909 20.3292C11.1909 20.3292 14.2702 15.3202 20.6358 16.4214C20.6358 16.4214 23.1938 16.8875 25.2029 18.7896C25.2029 18.7896 21.8716 15.555 16.6901 16.8115C16.628 16.8288 16.5624 16.8426 16.5002 16.8564C16.0756 16.9531 13.6074 17.6193 11.5741 20.4845C11.5741 20.488 8.39132 24.7202 11.2842 30.7475Z" fill="#C96512"/>
<path d="M16.4338 26.4739H13.3027V27.0746H16.4338V26.4739Z" fill="white"/>
<path d="M24.715 26.4739H21.584V27.0746H24.715V26.4739Z" fill="white"/>
<path d="M15.8158 29.3046H13.3027V31.0203H13.8344V29.8708H15.8158V29.3046Z" fill="white"/>
<path d="M23.6355 27.6062H23.0693V31.0203H23.6355V27.6062Z" fill="white"/>
<path d="M17.6211 26.4739H18.1872V30.4542H20.1515V26.4739H20.728V30.4335C20.728 30.5129 20.7176 30.5923 20.6934 30.6647C20.6486 30.8028 20.5381 30.9754 20.2964 30.9754H18.0768C18.0768 30.9754 17.811 31.003 17.6798 30.7027C17.6418 30.6164 17.628 30.5232 17.628 30.43L17.6211 26.4739Z" fill="white"/>
<path d="M18.8653 24.8445C20.7508 24.8445 22.2794 23.3159 22.2794 21.4304C22.2794 19.5448 20.7508 18.0163 18.8653 18.0163C16.9797 18.0163 15.4512 19.5448 15.4512 21.4304C15.4512 23.3159 16.9797 24.8445 18.8653 24.8445Z" fill="#C96512"/>
<path d="M17.9424 19.6284V18.6411H19.7858V24.2197H18.6846V19.6284H17.9424Z" fill="white"/>
</g>
<defs>
<filter id="filter0_d_168_193" x="0" y="0" width="37.6904" height="45.2823" filterUnits="userSpaceOnUse" color-interpolation-filters="sRGB">
<feFlood flood-opacity="0" result="BackgroundImageFix"/>
<feColorMatrix in="SourceAlpha" type="matrix" values="0 0 0 0 0 0 0 0 0 0 0 0 0 0 0 0 0 0 127 0" result="hardAlpha"/>
<feOffset dy="4"/>
<feGaussianBlur stdDeviation="2"/>
<feComposite in2="hardAlpha" operator="out"/>
<feColorMatrix type="matrix" values="0 0 0 0 0 0 0 0 0 0 0 0 0 0 0 0 0 0 0.25 0"/>
<feBlend mode="normal" in2="BackgroundImageFix" result="effect1_dropShadow_168_193"/>
<feBlend mode="normal" in="SourceGraphic" in2="effect1_dropShadow_168_193" result="shape"/>
</filter>
</defs>
</svg>
