<?xml version="1.0" encoding="utf-8"?>
<!-- Generator: Adobe Illustrator 27.8.1, SVG Export Plug-In . SVG Version: 6.00 Build 0)  -->
<svg version="1.1" id="Layer_1" xmlns="http://www.w3.org/2000/svg" xmlns:xlink="http://www.w3.org/1999/xlink" x="0px" y="0px"
	 viewBox="0 0 1080 1080" style="enable-background:new 0 0 1080 1080;" xml:space="preserve">
<style type="text/css">
	.st0{fill:#E32934;}
	.st1{fill:#FFFFFF;}
	.st2{fill:#004883;}
	.st3{fill:#EFA128;}
	.st4{fill:#F9AC30;}
	.st5{fill:#DD8D19;}
	.st6{fill:#C96512;}
</style>
<g>
	<g>
		<polygon class="st0" points="531.02,135.74 639.37,0 745.47,0 584.45,204.4 		"/>
		<polygon class="st1" points="638.25,280.54 861.55,0 745.47,0 584.45,204.4 		"/>
		<path class="st2" d="M638.25,280.54L861.55,0H968.9L735.48,294.27c0,0-3.74-3.12-15.91-3.12h-68.81L638.25,280.54z"/>
	</g>
	<path class="st3" d="M757.92,475V320.02c0-16.5-13.37-29.87-29.87-29.87H347.24c-15.15,0-27.45,12.31-27.45,27.48v157.34
		c0-0.03,0.03,0,0.03,0l57.35-38.78c0.03,0,0.03,0,0.05-0.03v-89.84h323.28v89.87L757.92,475z"/>
	<circle class="st4" cx="538.85" cy="737.83" r="342.17"/>
	<circle class="st5" cx="538.85" cy="737.83" r="267.1"/>
	<g>
		<polygon class="st0" points="108.83,0 213.87,0 483.26,346.32 376.99,346.32 		"/>
		<polygon class="st1" points="327.56,0 213.87,0 483.26,346.32 598.89,346.32 		"/>
		<polygon class="st2" points="598.89,346.32 702.77,346.32 431.36,0 327.56,0 		"/>
	</g>
	<path class="st6" d="M319.78,890.68c0,0-107.35-139.96-2.71-301.75c0,0,89.22-145.07,273.63-113.17c0,0,74.09,13.52,132.29,68.58
		c0,0-96.55-93.66-246.57-57.26c-1.84,0.45-3.69,0.89-5.53,1.31c-12.3,2.78-83.79,22.08-142.73,105.06
		C328.16,593.45,235.96,716.06,319.78,890.68z"/>
</g>
<g>
	<rect x="378.3" y="766.92" class="st1" width="90.73" height="17.43"/>
	<rect x="618.15" y="766.92" class="st1" width="90.73" height="17.43"/>
	<path class="st1" d="M451.07,848.93H378.3v49.71h15.37v-33.32h57.4v-16.41V848.93z"/>
	<rect x="661.21" y="799.73" class="st1" width="16.41" height="98.91"/>
	<path class="st1" d="M503.35,766.92h16.41v115.32h56.9V766.92h16.66v114.74c0,2.29-0.29,4.57-1.02,6.73
		c-1.35,3.98-4.46,8.97-11.53,8.97h-64.32c0,0-7.71,0.75-11.53-7.91c-1.09-2.47-1.53-5.18-1.53-7.89V766.9L503.35,766.92z"/>
</g>
<circle class="st6" cx="539.43" cy="620.8" r="98.92"/>
<g>
	<path class="st1" d="M512.71,568.6V540h53.42v161.6h-31.92v-133H512.71z"/>
</g>
</svg>
