<?xml version="1.0" encoding="UTF-8"?>
<svg id="Layer_1" data-name="Layer 1" xmlns="http://www.w3.org/2000/svg" viewBox="0 0 779.39 694.51">
  <defs>
    <style>
      .cls-1 {
        stroke-width: 0px;
      }
    </style>
  </defs>
  <path class="cls-1" d="m491.06,675.95c1.65-5.84,3.24-11.44,4.82-17.05,8.87,2.33,17.45,4.95,26.18,6.82,43.98,9.41,87.17,7.72,128.76-10.77,32.04-14.25,56.95-36.6,73.76-67.57,7.75-14.29,10.14-29.96,10.59-45.93.84-29.38-4.31-57.91-13.17-85.84-.15-.46-.41-.89-.65-1.32-.04-.07-.23-.06-1.05-.24-.19,2.17-.53,4.28-.53,6.38,0,3.62.35,7.24.19,10.84-.04.94-1.37,2.58-2.16,2.61-5.21.24-10.44.12-16.4.12-.15-5.94-.69-11.54-.33-17.08.63-9.58,1.86-19.12,2.75-28.68.22-2.34,1.37-3.08,3.47-2.54,6.77,1.75,13.08,1.93,17.31-5.8,18.55,16.37,36.57,32.28,54.79,48.36-4.65,4.91-8.76,9.24-13.15,13.88-6.93-6.31-13.69-12.46-20.46-18.61-.26.18-.51.35-.77.53,1.2,6.72,2.48,13.42,3.6,20.15,3.62,21.71,6.32,43.43,5.21,65.58-1.32,26.27-11.66,48.84-27.21,69.28-24.02,31.58-56.21,51.27-93.9,62.17-46.33,13.41-92.42,12.6-137.99-3.86-1.14-.41-2.26-.9-3.66-1.46Z"/>
  <path class="cls-1" d="m373.78,155.35c2.05,3.03,3.71,5.46,5.53,8.14,2.32-1.94,5.33-2.63,4.93-6.5-.12-1.16,1.39-2.48,2.62-4.5,2.44,2.06,5.14,3.47,6.57,5.7,13.57,21.08,26.92,42.31,40.52,63.78-5.81,3.63-10.85,6.78-16.47,10.3-7.62-12.72-15.15-25.28-22.68-37.85-.34.07-.68.13-1.03.2-.21,1.26-.66,2.53-.6,3.77,1.4,28.71,7.21,56.19,23.01,80.79,10.61,16.51,24.17,29.54,43.1,36.13,14.13,4.92,28.75,6.81,43.56,5.29,16.25-1.67,32.37-4.49,48.59-6.49,22.09-2.73,44.22-5.15,66.44-1.23,8.43,1.49,16.36,4.3,24.08,8.89-3.02,5.01-5.96,9.88-8.91,14.78-5.17-1.4-10.15-2.94-15.21-4.07-18.46-4.13-37.01-2.94-55.54-.5-19.44,2.56-38.79,5.92-58.3,7.73-48.95,4.54-84.45-16.66-108.2-58.72-14.22-25.17-20.74-52.56-21.81-81.33-.05-1.22,0-2.43-.83-3.99-1.65,2.82-3.58,5.5-4.89,8.47-3.51,7.99-6.89,16.04-10.02,24.18-.99,2.58-2.19,3.32-4.67,2.51-4.61-1.5-9.24-2.94-14.04-4.46,6.64-25.91,21.09-47.76,34.25-71.04Z"/>
  <path class="cls-1" d="m93.89,533.84c-4.52-4.03-8.8-7.84-13.29-11.84,5.67-9.21,12.73-17.01,21.16-23.54,16.49-12.76,35.35-19.85,55.87-22.78,25.68-3.67,51.04-1.54,76.26,4.01,44.78,9.84,80.02,33.76,106.04,71.41.43.62.85,1.23,1.31,1.83.14.18.38.3,1.39,1.05v-18.56h18.9c.16,3.53.45,6.63.41,9.72-.14,10.37-.3,20.74-.69,31.1-.07,1.96-.79,5.05-2.03,5.53-1.66.65-4.14-.63-6.21-1.27-1.18-.36-2.24-1.11-3.36-1.68-.29.24-.58.47-.87.71.93,2.46,1.86,4.91,3.03,8-2.1-.25-3.85-.15-5.37-.68-14.2-5.02-26.72-13.21-39.95-20.77,3.14-5.4,6.01-10.34,9-15.48-6.06-8.46-13.4-15.72-21.46-22.24-21.08-17.06-45.54-26.56-71.89-31.65-20.99-4.05-42.19-5.34-63.38-2.41-25.56,3.52-45.97,16.46-62.2,36.28-.79.96-1.56,1.93-2.65,3.27Z"/>
  <path class="cls-1" d="m222.35,119.23c.32-7.16.62-13.91.96-21.56-1.15,1.01-1.67,1.29-1.95,1.73-8.63,13.82-21.37,21.43-37.15,24.03-15.72,2.6-30.89.71-44.91-7.29-17.21-9.81-32.58-39.95-21.65-67.74C129.31,18.83,162.69-.91,194.05,3.96c1.34.21,2.65.6,4.42,1-.27,3.02-.41,5.98-.82,8.9-.4,2.83-1.07,5.61-1.7,8.79-5.52,0-11.04-.52-16.43.09-20.42,2.31-35.76,12.08-43.59,31.68-8,20.02.15,40.4,19.61,48.07,12.87,5.07,26.06,4.31,38.47-2,7.77-3.95,12.79-10.25,12.91-19.85h-29.98c0-5.37-.09-10.69.1-16,.03-.76,1.43-2.05,2.25-2.1,15.33-.9,30.66-2.03,46.01-2.32,11.37-.21,16.46,3.83,16.93,15,.63,14.89-.51,29.84-.89,45.1-6.79-.39-12.49-.72-19-1.1Zm8.67-56.48c-.73,2.45-1.32,4.44-1.95,6.54q5.15.32,7.51-3.89c-1.64-.78-3.27-1.56-5.56-2.65Z"/>
  <path class="cls-1" d="m253.35,105.62c-.87-17.33-2.46-33.77-2.37-50.2.21-39.1,38.71-51.17,63.58-42.73,23.87,8.1,48.06,38.18,32.15,74.1-6.69,15.12-17.16,26.92-32.3,34.04-19.84,9.33-38.42,5.12-52.39-11.79-2.07-2.5-3.81-5-8.67-3.42Zm18.56-26.07c-.17.05-.35.09-.52.14.96,4.61,1.46,9.38,2.98,13.79,2.86,8.31,9.65,12.77,18.4,12.52,14.36-.41,25.14-7.51,33.1-18.93,14.02-20.11,5.86-47.46-16.42-56.07-9.89-3.82-26.82-2.17-33.9,7.79-6.18,8.7-6.99,18.44-5.75,28.6.07.55.45,1.34.89,1.52,2.3.98,2.04,2.74,1.75,4.68-.29,1.97-.36,3.97-.53,5.96Z"/>
  <path class="cls-1" d="m445.66,121.9c-5.19,1.82-10.57,3.71-16.49,5.79-1.37-3.6-2.8-7-3.95-10.5-1.71-5.21-3.25-10.48-4.81-15.75-.52-1.75-1.29-2.65-3.39-2.58-11.73.42-23.47.54-35.2,1.04-7.78.33-7.81.54-8.81,8.08-.79,5.92-1.46,11.85-2.25,18.42-6.08-.67-11.83-1.31-18.13-2.01.4-4.91.51-9.61,1.2-14.23,3.91-26.16,7.59-52.37,12.2-78.41,1.27-7.16,4.6-14.33,8.48-20.56,6.77-10.88,20.9-11.85,30.05-2.82,6.33,6.25,10.9,13.83,13.68,22.13,6.09,18.19,11.65,36.57,17.18,54.94,3.59,11.92,6.76,23.97,10.25,36.46Zm-31.98-41.6c-1.41-5.84-2.5-10.81-3.81-15.71-3.76-14.12-7.67-28.21-16.27-40.37-1.68-2.37-3.39-4.43-2.43-7.67.24-.83-.64-2.56-1.46-2.97-.85-.42-2.44-.06-3.37.51-2.57,1.55-3.12,5.21-.83,7.88,1.64,1.92,1.57,3.6,1.1,5.75-2.19,9.86-4.5,19.7-6.32,29.63-1.42,7.78-2.17,15.68-3.14,22.95h36.53Z"/>
  <path class="cls-1" d="m50.38,565.36c12.6.19,24.66,2.59,34.87,10.45,11.39,8.77,16.8,21.15,19.4,34.87,2.35,12.37,2.73,24.72-3.78,36.12-9.78,17.13-25.14,24.67-44.39,23.67-34.79-1.82-62.28-37.9-55.44-72.11,2.04-10.22,7.61-18.04,16.26-23.74,10.03-6.61,21.18-9.25,33.07-9.26Zm-31.31,43.37c.81,23.35,16.88,41.1,38.82,42.91,14.76,1.22,26.83-7.89,28.73-21.89,1.49-10.97-.64-21.36-5.99-30.99-3.32-5.98-8.22-10.3-14.99-12.17-10.2-2.81-20.44-3.19-30.59.1-10.92,3.54-16.37,11.19-15.99,22.04Z"/>
  <path class="cls-1" d="m351.77,638.7c-.57-12.41,3.98-22.22,13.32-30.71,10.08-9.17,21.85-14.79,34.75-16.14,24.9-2.61,48.9,7.21,57.59,33.24,10.69,32.01-11.84,65.12-45.36,69.06-31.51,3.71-57.02-22.2-59.91-50.98-.15-1.49-.26-2.99-.39-4.48Zm55.92-28.4c-10.5-.23-19.26,4.26-27.56,10.1-7.27,5.11-10.65,11.61-9.25,20.81,2.67,17.55,16.08,36.81,39.74,34.05,25.19-2.93,38.93-30.71,24.9-51.56-6.6-9.8-16.55-13.07-27.83-13.4Z"/>
  <path class="cls-1" d="m679.11,422.4c-20.39-.11-40.87-13.95-47.54-33.09-6.38-18.31-1.98-34.52,11.91-47.93,12.71-12.27,27.72-18.54,45.43-14.11,13.05,3.27,25.18,9.07,35.02,18.59,10.7,10.34,12.12,23.13,8.32,36.73-6.17,22.11-30.2,39.93-53.14,39.81Zm-.5-77.82c-6.87.5-13.14,2.6-18.58,6.68-14.73,11.04-16.02,30.07-2.91,42.91,11.44,11.2,26.46,12.3,41.08,2.98,7.48-4.77,13.28-10.92,15.88-19.63,2.96-9.92.13-17.42-8.91-22.51-5.31-2.99-10.84-5.66-16.46-7.99-3.16-1.31-6.72-1.65-10.1-2.43Z"/>
  <path class="cls-1" d="m630.63,179.25c4.73,5.26,8.69,9.67,12.64,14.06-5.62,6.92-11.26,13.86-17.24,21.24,12.68,7.9,24.79,15.44,37.17,23.16-3.16,4.98-5.99,9.35-8.72,13.79-1.47,2.4-2.9,1.01-4.36.12-10.53-6.46-21.05-12.94-31.58-19.4-1.16-.71-2.35-1.37-4.08-2.39-9.08,11.43-18.12,22.82-27.41,34.52-4.8-3.8-9.45-7.48-14.6-11.56,8.52-11.01,16.88-21.82,25.46-32.91-10.63-6.6-20.95-13.01-31.8-19.75,3.74-5.35,7.14-10.21,10.71-15.32,11.16,6.74,21.89,13.22,32.74,19.77,6.84-8.22,13.44-16.15,21.06-25.31Z"/>
  <path class="cls-1" d="m480.45,114.44c14.5-.68,27.61-5.83,41.49-9,1.55,5.91,3.02,11.52,4.64,17.73-4.96,1.5-9.61,3.21-14.4,4.3-10.33,2.34-20.73,4.37-31.11,6.52-.37.08-.73.2-1.1.21-8.08.2-9.07-.01-7.4-8.86.26-1.37.4-2.77.67-4.73-3.6,1.21-6.69,1.72-5.2,6.14.28.83-.44,1.99-.82,3.45-4.21-2.77-5.15-6.61-5.48-10.55-.84-9.95-1.78-19.91-2.08-29.89-.74-24.69-1.15-49.4-1.72-75.14,4.43-.58,9.92-1.39,15.43-1.9.57-.05,1.79,1.56,1.89,2.48,1.08,10.17,2.5,20.34,2.85,30.54.63,18.35.51,36.72.89,55.08.09,4.44.92,8.87,1.45,13.63Z"/>
  <path class="cls-1" d="m490.83,477.42c7.44-10.7,14.62-21.02,22.09-31.77,5.23,4.18,9.86,7.87,14.64,11.69-7.13,10.52-14.1,20.8-21.24,31.34,8.88,6.51,17.12,12.55,25.76,18.87-3.61,4.95-7.16,9.82-11.05,15.16-8.21-5.86-16.2-11.56-24.62-17.56-3.1,4.72-6.34,9.26-9.13,14.05-1.94,3.32-3.94,3.58-6.86,1.46-3.63-2.63-7.36-5.13-11.39-7.92,3.85-6.14,7.66-12.22,11.67-18.63-10.16-8.88-21.77-15.3-34.37-21.56,2.36-5.24,4.57-10.34,7.03-15.32.27-.55,2.27-.85,3.02-.45,7.57,4.05,15.11,8.14,22.51,12.5,4.07,2.4,7.83,5.31,11.94,8.14Z"/>
  <path class="cls-1" d="m101.68,406.19c-5.2-3.83-10.08-7.44-15.11-11.15,7.5-10.64,14.82-21.02,22.31-31.63-10.8-6.77-22.85-11.28-31.87-21.2,3.91-4.55,7.7-8.97,11.32-13.18,10.65,6.47,20.93,12.72,31.39,19.08,6.28-8.69,12.17-16.85,18.53-25.65,5.13,4.02,9.87,7.74,14.74,11.56-5.54,7.87-10.76,15.28-16.17,22.96,5.02,2.94,9.68,5.83,14.49,8.43,2.18,1.18,2.55,2.48,1.37,4.47-2.55,4.27-5.11,8.55-8,13.37-6.29-3.47-12.44-6.88-19.01-10.5-7.97,11.11-15.92,22.21-23.98,33.45Z"/>
  <path class="cls-1" d="m595.25,2.51c4.52-.79,9.76-1.82,15.04-2.51.68-.09,2.18,1.46,2.31,2.38,1.08,8.03,2.68,16.09,2.69,24.14.03,20.59-.68,41.19-1.11,61.78,0,.34-.21.68-.39,1.24h-17.25c-.26-5.71-.75-11.28-.71-16.84.07-10.24.73-20.47.64-30.7-.12-12.81-.76-25.62-1.21-39.48Z"/>
  <path class="cls-1" d="m532.9,1.83c5.79-.5,11.32-1.06,16.87-1.33.59-.03,1.74,1.56,1.81,2.47,1.36,16.78,2.66,33.57,3.85,50.37.75,10.57,1.28,21.16,1.96,32.45-6.08.46-12.05.92-18.55,1.41-1.98-28.45-3.93-56.53-5.94-85.36Z"/>
  <path class="cls-1" d="m580.21,86.02c-5.42,0-10.16-.14-14.89.05-2.81.12-3.64-.93-3.74-3.64-.4-11.98-.84-23.97-1.56-35.93-.73-12.21-1.79-24.4-2.7-36.6-.04-.59,0-1.19,0-2.11,5.81-.63,11.47-1.23,17.43-1.88,5.29,26.43,4.69,52.87,5.46,80.1Z"/>
  <path class="cls-1" d="m612.3,135.41c-5.95-.65-11.26-1.13-16.53-1.91-.74-.11-1.84-1.74-1.79-2.61.25-4.58.69-9.17,1.4-13.7.12-.76,1.91-1.82,2.91-1.79,4.94.11,9.88.54,15.56.9-.52,6.48-1.01,12.47-1.54,19.11Z"/>
  <path class="cls-1" d="m581.98,112.13v14.01c-5.7-.36-10.78-.56-15.83-1.1-.9-.1-2.25-1.51-2.39-2.47-1.49-10.16.44-12.14,10.51-11.17,2.58.25,5.16.48,7.72.72Z"/>
  <path class="cls-1" d="m538.29,123.47v-5.95c5.45-.32,10.84-.78,16.24-.81.76,0,1.98,1.95,2.14,3.12.1.78-1.23,2.45-2.05,2.54-5.28.54-10.6.76-16.33,1.11Z"/>
</svg>