<svg width="19" height="24" viewBox="0 0 19 24" fill="none" xmlns="http://www.w3.org/2000/svg">
<path d="M9.69649 24H9.3011C9.1179 23.875 8.91889 23.7606 8.75414 23.6144C6.8708 21.9529 5.17387 20.111 3.6905 18.1181C2.34024 16.2956 1.19953 14.3681 0.522757 12.2212C-0.170496 10.0162 -0.23903 7.8125 0.712545 5.66187C1.94946 2.86312 4.12872 1.05 7.2365 0.273125C7.76369 0.140625 8.31789 0.089375 8.85958 0H10.1446C10.5986 0.0675 11.058 0.110625 11.5054 0.205625C16.5901 1.28375 19.8146 5.99625 18.8201 10.8569C18.4715 12.5613 17.8086 14.1475 16.9289 15.6581C15.1924 18.6394 12.909 21.2119 10.3186 23.5519C10.1294 23.7212 9.90407 23.8512 9.69649 24ZM9.34064 14C12.1875 14.125 14.627 11.9513 14.7687 9.16187C14.9071 6.45125 12.6006 4.12312 9.65629 4.00125C6.80157 3.8825 4.35871 6.06 4.22823 8.83875C4.09973 11.5575 6.39234 13.87 9.34064 14Z" fill="#A29213"/>
</svg>
