<svg width="41" height="46" viewBox="0 0 41 46" fill="none" xmlns="http://www.w3.org/2000/svg">
<g clip-path="url(#clip0_82_968)">
<path d="M28.0246 0C28.3094 0.0768167 28.5965 0.145232 28.8777 0.232851C30.9547 0.876191 32.3606 2.7666 32.3905 5.03269C32.4192 7.11395 32.4048 9.1952 32.3941 11.2765C32.3893 12.2631 31.6786 12.9964 30.7621 13.006C29.8313 13.0168 29.1086 12.2643 29.1062 11.2584C29.1002 9.25161 29.1062 7.24598 29.1038 5.23914C29.1038 3.96686 28.4422 3.30312 27.1728 3.30312C20.9034 3.30192 14.6351 3.30312 8.36574 3.30312C8.23892 3.30312 8.11209 3.31632 7.87759 3.32952C8.08697 3.45915 8.20662 3.53597 8.32865 3.60678C11.3617 5.36637 14.3875 7.13795 17.4313 8.87833C19.2917 9.94176 20.1795 11.5081 20.1735 13.6614C20.152 20.6841 20.1651 27.7068 20.1651 34.7284C20.1651 34.9216 20.1651 35.1148 20.1651 35.3621C20.347 35.3717 20.5037 35.3861 20.6605 35.3861C22.8249 35.3873 24.9892 35.3885 27.1536 35.3861C28.4314 35.3849 29.1026 34.7007 29.1038 33.4093C29.105 31.6425 29.0967 29.8757 29.1086 28.1089C29.1146 27.2795 29.6769 26.6242 30.4498 26.4898C31.2347 26.3529 31.9801 26.749 32.2565 27.48C32.3438 27.7116 32.3905 27.9745 32.3929 28.2229C32.4036 30.0041 32.4144 31.7865 32.3953 33.5689C32.3654 36.4219 30.3398 38.5596 27.497 38.6484C25.2453 38.7192 22.99 38.6688 20.7359 38.6724C20.5612 38.6724 20.3877 38.6724 20.1651 38.6724C20.1651 39.4334 20.152 40.1331 20.1675 40.8329C20.2429 44.1492 17.4396 46.1044 14.9845 45.9964C14.1649 45.9604 13.3992 45.7287 12.6909 45.3183C9.29419 43.3534 5.89268 41.3958 2.50433 39.4154C0.8616 38.4552 0.0145119 36.98 0.0109225 35.08C-0.00343492 25.0783 -0.00343492 15.0753 0.00972605 5.0735C0.0133154 2.51575 1.7027 0.55092 4.22243 0.0720157C4.27747 0.0612133 4.32772 0.0240052 4.38036 0C12.2626 0 20.1436 0 28.0246 0Z" fill="white"/>
<path d="M35.3968 17.6918C34.7675 17.0629 34.2303 16.5288 33.6967 15.9899C32.9549 15.2397 32.9058 14.2327 33.5746 13.5545C34.2506 12.8692 35.2533 12.9016 36.0034 13.6494C37.4739 15.1161 38.9407 16.5876 40.404 18.0639C41.196 18.8633 41.1996 19.8043 40.4148 20.5941C38.9515 22.0692 37.4846 23.5395 36.0154 25.0086C35.264 25.76 34.2686 25.8056 33.589 25.1311C32.8998 24.4457 32.9501 23.4339 33.7122 22.6621C34.2159 22.152 34.7208 21.6419 35.2233 21.1306C35.2401 21.1138 35.2389 21.0802 35.2664 20.983C35.081 20.983 34.9111 20.983 34.7412 20.983C30.9807 20.983 27.2203 20.9854 23.4598 20.9818C22.3376 20.9818 21.6137 20.2928 21.6424 19.2774C21.6664 18.4276 22.3244 17.7471 23.1727 17.6978C23.3366 17.6882 23.5005 17.6918 23.6644 17.6918C27.3651 17.6918 31.0657 17.6918 34.7663 17.6918C34.929 17.6918 35.0917 17.6918 35.3968 17.6918Z" fill="white"/>
</g>
<defs>
<clipPath id="clip0_82_968">
<rect width="41" height="46" fill="white"/>
</clipPath>
</defs>
</svg>
