<svg width="28" height="34" viewBox="0 0 28 34" fill="none" xmlns="http://www.w3.org/2000/svg">
<g clip-path="url(#clip0_1289_51)">
<path d="M18.7179 27.967H21.6579C21.9976 27.967 22.1004 28.0497 22.2006 28.3875C22.6908 30.0562 23.1815 31.725 23.6726 33.3939C23.7855 33.779 23.627 33.9988 23.2384 33.9991C21.6405 34.0011 20.0426 34.0011 18.4447 33.9991H4.85736C4.77274 34.003 4.68796 33.9989 4.60407 33.9869C4.3714 33.9429 4.24946 33.7023 4.3269 33.4378C4.65497 32.3204 4.98437 31.2021 5.3151 30.083C5.48408 29.509 5.65451 28.935 5.82168 28.3599C5.90708 28.0642 6.02431 27.967 6.32827 27.9666C7.3161 27.9666 8.30394 27.9666 9.29757 27.9562C5.76415 26.5605 3.093 24.1663 1.43538 20.6557C-0.222231 17.1452 -0.44151 13.4949 0.763799 9.79927C1.73645 6.80148 3.64372 4.21828 6.18927 2.45102C8.73482 0.683768 11.7761 -0.168601 14.8407 0.0263469C21.0847 0.409993 26.0717 4.92771 27.5292 10.7647C28.4258 14.3553 28.0452 17.829 26.3532 21.109C24.6612 24.389 22.0798 26.6372 18.7179 27.967ZM0.803964 14.3777C0.811924 21.8178 6.62534 27.8575 13.8062 27.9699C20.9932 28.0817 27.0657 22.1992 27.1974 14.6354C27.3284 7.10369 21.5265 0.977641 14.3012 0.811146C6.93146 0.639808 0.839425 6.71446 0.803964 14.3777ZM14.0113 30.5907V30.5933H11.9861C10.9136 30.5933 9.84119 30.5933 8.76892 30.5933C8.53661 30.5933 8.37342 30.7572 8.37089 30.9814C8.36835 31.2056 8.53046 31.3717 8.75987 31.3848C8.808 31.3877 8.85648 31.3848 8.90461 31.3848H19.1029C19.169 31.3873 19.2352 31.3856 19.3012 31.3796C19.3707 31.374 19.4372 31.3477 19.4925 31.3038C19.5478 31.2599 19.5894 31.2005 19.6124 31.1326C19.7245 30.8261 19.5277 30.5881 19.1619 30.5881L14.0113 30.5907Z" fill="#A29213"/>
<path d="M22.8705 14.457C22.8641 15.6674 22.6233 16.8644 22.1623 17.9779C21.7012 19.0915 21.0292 20.0992 20.1853 20.9423C19.3415 21.7853 18.3429 22.4467 17.2478 22.8879C16.1528 23.329 14.9832 23.541 13.8077 23.5114C9.01538 23.4078 5.08429 19.3471 5.14074 14.283C5.19646 9.27475 9.18075 5.20922 14.1145 5.26323C18.969 5.31612 22.9099 9.44832 22.8705 14.457ZM13.9897 11.0753C14.4177 11.0753 14.8458 11.0712 15.2735 11.0783C15.3799 11.0801 15.4349 11.041 15.4856 10.9494C15.9104 10.1843 16.341 9.42374 16.7632 8.66017C16.7775 8.62977 16.7852 8.59653 16.7857 8.56277C16.7863 8.529 16.7797 8.49552 16.7665 8.46463C16.3718 7.74799 15.9727 7.03421 15.5691 6.32328C15.542 6.27486 15.4935 6.21862 15.4457 6.20707C15.2928 6.17278 15.1382 6.14704 14.9826 6.12997C14.2099 6.03534 13.4281 6.05553 12.661 6.18994C12.5394 6.2108 12.4721 6.25438 12.4131 6.3609C12.0296 7.05618 11.6423 7.74849 11.2512 8.43781C11.2049 8.52012 11.1937 8.58233 11.2444 8.67135C11.6759 9.42995 12.1036 10.1912 12.5275 10.955C12.5803 11.05 12.6404 11.0786 12.7417 11.0775C13.1574 11.0723 13.5736 11.0753 13.9897 11.0753ZM9.08486 13.9862C9.50062 13.9862 9.9171 13.9832 10.3321 13.9884C10.4505 13.9884 10.5243 13.9631 10.5894 13.845C11.0073 13.0859 11.4379 12.3342 11.8559 11.5755C11.8699 11.5417 11.8766 11.5051 11.8756 11.4683C11.8746 11.4316 11.8659 11.3954 11.8501 11.3625C11.4258 10.5927 10.9959 9.82589 10.5605 9.06207C10.5414 9.03435 10.5168 9.0112 10.4883 8.99422C10.4597 8.97724 10.4279 8.96684 10.3951 8.96374C9.59904 8.95778 8.80298 8.95778 8.00692 8.96374C7.93897 8.96505 7.87415 8.99334 7.826 9.0427C7.23293 9.7828 6.73177 10.5803 6.43615 11.4984C6.41035 11.5836 6.41642 11.6757 6.45315 11.7565C6.83852 12.4642 7.23619 13.1641 7.623 13.8703C7.67691 13.969 7.74024 13.9884 7.83721 13.9876C8.2537 13.9847 8.66946 13.9865 9.08486 13.9862ZM18.8352 8.96076C18.4433 8.96076 18.0514 8.96374 17.6599 8.96076C17.5604 8.96076 17.4974 8.98236 17.4428 9.07995C17.0187 9.84985 16.587 10.6153 16.1629 11.3852C16.1496 11.4125 16.1421 11.4425 16.141 11.4731C16.14 11.5037 16.1453 11.5342 16.1568 11.5625C16.584 12.338 17.0163 13.1101 17.4536 13.8789C17.4862 13.9359 17.5843 13.9832 17.6519 13.9835C18.4954 13.9902 19.3388 13.9835 20.1819 13.9902C20.2948 13.9902 20.3527 13.9508 20.4067 13.8543C20.7927 13.1615 21.1868 12.4735 21.5685 11.7785C21.6075 11.6935 21.6134 11.5964 21.5852 11.507C21.2765 10.6008 20.7978 9.79621 20.2022 9.06468C20.1469 9.00526 20.0718 8.96971 19.992 8.96523C19.6066 8.95592 19.2209 8.96076 18.8352 8.96076ZM14.0056 17.706C13.5775 17.706 13.1495 17.7019 12.7214 17.7109C12.6859 17.7137 12.6514 17.7242 12.6202 17.7419C12.589 17.7596 12.5618 17.7839 12.5405 17.8133C12.1041 18.5771 11.6736 19.3439 11.2491 20.1137C11.2348 20.1441 11.2272 20.1772 11.2267 20.211C11.2262 20.2447 11.2328 20.2781 11.2462 20.3089C11.6401 21.0255 12.0391 21.7393 12.4431 22.4502C12.4791 22.5116 12.5366 22.5564 12.6038 22.5754C13.5294 22.7503 14.4784 22.7484 15.4034 22.5698C15.4749 22.5486 15.536 22.5003 15.5742 22.4346C15.969 21.7399 16.3547 21.0397 16.7506 20.3454C16.8085 20.2441 16.803 20.174 16.7488 20.0783C16.3273 19.3353 15.9094 18.5904 15.495 17.8435C15.4356 17.7355 15.3694 17.7023 15.2536 17.7045C14.8375 17.7105 14.4217 17.706 14.0056 17.706ZM9.18183 19.8068C9.57986 19.8068 9.97608 19.8045 10.373 19.8068C10.4747 19.8068 10.5304 19.7733 10.5833 19.6783C10.9934 18.9361 11.4089 18.1971 11.8298 17.4613C11.8964 17.3455 11.9022 17.2602 11.8334 17.1425C11.4097 16.4013 10.9958 15.6526 10.5706 14.9136C10.5487 14.8816 10.5203 14.8549 10.4873 14.8353C10.4544 14.8157 10.4178 14.8036 10.3799 14.8C9.53065 14.7926 8.67923 14.7974 7.83142 14.7922C7.71744 14.7922 7.65882 14.8346 7.60599 14.9304C7.22967 15.6142 6.85191 16.2973 6.46726 16.9764C6.43785 17.0218 6.41977 17.0741 6.41459 17.1284C6.40942 17.1828 6.41732 17.2376 6.43759 17.2881C6.74458 18.1703 7.20608 18.9871 7.79922 19.698C7.85388 19.758 7.92862 19.7945 8.00837 19.8001C8.39916 19.8116 8.79068 19.8064 9.18183 19.8068ZM18.821 19.8068C19.2126 19.8068 19.6041 19.8116 19.9949 19.8023C20.0743 19.7982 20.1493 19.7635 20.2051 19.7051C20.8139 18.9834 21.284 18.1491 21.5903 17.2468C21.6148 17.1636 21.6074 17.0739 21.5696 16.9961C21.1868 16.3018 20.7935 15.6135 20.407 14.9211C20.3888 14.8797 20.3585 14.8452 20.3204 14.8223C20.2823 14.7995 20.2382 14.7893 20.1943 14.7933C19.3443 14.7978 18.4936 14.7933 17.6443 14.8007C17.6059 14.8038 17.5686 14.8153 17.5349 14.8346C17.5013 14.8539 17.472 14.8805 17.4493 14.9125C17.0191 15.6649 16.599 16.4229 16.1727 17.1771C16.1213 17.2684 16.1231 17.335 16.1756 17.4278C16.6002 18.176 17.0203 18.927 17.4359 19.6809C17.4876 19.7751 17.5445 19.8098 17.6472 19.8086C18.0384 19.8045 18.4299 19.8071 18.821 19.8075V19.8068Z" fill="#A29213"/>
<path d="M7.68697 3.64681L8.09658 3.41699L10.0618 5.28904L9.65034 5.51997C9.45567 5.33373 9.26643 5.15346 9.06524 4.96126C8.8608 5.07524 8.65418 5.18475 8.45408 5.30729C8.42405 5.32554 8.40776 5.40003 8.41428 5.44399C8.44142 5.63991 8.48665 5.83359 8.50836 6.02988C8.5083 6.06193 8.50121 6.09355 8.48761 6.12238C8.47402 6.15122 8.45427 6.17651 8.42984 6.19638C8.23191 6.3327 8.02493 6.45711 7.82519 6.58003L6.6311 5.4045L7.27627 7.10149L7.03094 7.31976L5.55931 6.45078L5.53905 6.47722L6.53051 7.78684L6.20774 8.08258L4.68799 6.02281C4.69523 6.00195 4.69559 5.99487 4.69921 5.99115C5.01872 5.64885 5.01908 5.64847 5.4229 5.88201C5.83106 6.11891 6.23886 6.35729 6.67561 6.61206C6.59419 6.40459 6.51965 6.22022 6.44909 6.03435C6.3134 5.67715 6.18494 5.31697 6.04202 4.96275C5.99642 4.85101 6.01162 4.78173 6.10353 4.71171C6.19544 4.64168 6.27577 4.56272 6.35682 4.48822L8.11829 6.28466C7.96993 5.37582 7.82954 4.5169 7.68697 3.64681ZM8.17039 4.08558C8.22359 4.39399 8.26918 4.65844 8.31803 4.94227L8.79277 4.67595L8.17039 4.08558Z" fill="#A29213"/>
<path d="M7.37644 24.5147L7.02002 24.2685L8.59152 22.2314C8.6057 22.2344 8.61953 22.2389 8.63277 22.2449C9.01524 22.4937 9.01813 22.4944 8.90089 22.9432C8.78872 23.3727 8.66895 23.7999 8.55352 24.229C8.54611 24.2688 8.54103 24.3089 8.53833 24.3493C8.9454 24.0495 9.33439 23.7601 9.72627 23.4755C10.0968 23.2066 10.1004 23.2088 10.4557 23.5478C10.028 24.2845 9.59926 25.022 9.16034 25.7781L8.79849 25.5267C9.09557 25.022 9.38468 24.5296 9.69985 23.9936L8.2275 25.0779C8.21514 25.0779 8.20288 25.0757 8.19131 25.0712C7.93187 24.9084 7.93404 24.9088 8.01944 24.5993C8.14717 24.137 8.27273 23.6737 8.37369 23.1965L7.37644 24.5147Z" fill="#A29213"/>
<path d="M11.3416 4.01529C11.1759 3.45025 11.0159 2.90682 10.8509 2.33917L11.2566 2.20508L11.9802 4.70064C11.8619 4.74087 11.757 4.79301 11.6473 4.8068C11.5905 4.81387 11.5153 4.76582 11.4664 4.7215C10.9906 4.29465 10.5184 3.86481 10.027 3.41785C10.1963 4.00039 10.3603 4.56357 10.5307 5.1491L10.1272 5.27611C9.88371 4.44066 9.64453 3.61973 9.40137 2.78427C9.49494 2.75882 9.5869 2.72748 9.67673 2.69041C9.78167 2.64013 9.8544 2.67179 9.93509 2.74516C10.3993 3.16792 10.8658 3.5862 11.3416 4.01529Z" fill="#A29213"/>
<path d="M12.7951 3.32087C12.7539 2.74055 13.0278 2.22282 13.4917 2.00455C13.6396 1.93388 13.8006 1.89701 13.9636 1.89649C14.1267 1.89597 14.2879 1.9318 14.4363 2.00152C14.5846 2.07125 14.7165 2.17321 14.8229 2.30039C14.9293 2.42758 15.0077 2.57698 15.0527 2.73832C15.1569 3.091 15.1479 3.46889 15.027 3.81588C14.9401 4.06976 14.7713 4.2853 14.5487 4.42658C14.3261 4.56786 14.0632 4.62634 13.8038 4.59227C13.5444 4.55821 13.3042 4.43365 13.1232 4.23936C12.9422 4.04508 12.8314 3.79281 12.8092 3.52461C12.8038 3.45682 12.8002 3.3894 12.7951 3.32087ZM14.6872 3.22328C14.6383 3.05567 14.6018 2.85378 14.5207 2.67351C14.4722 2.55505 14.3888 2.45523 14.2823 2.38809C14.1758 2.32094 14.0515 2.28985 13.927 2.29917C13.6469 2.31035 13.4566 2.47275 13.3516 2.73422C13.2819 2.8993 13.2467 3.07764 13.2483 3.25764C13.2499 3.43765 13.2883 3.61528 13.361 3.77901C13.4746 4.04197 13.6733 4.19915 13.9668 4.19506C14.2494 4.19096 14.4672 4.03564 14.566 3.74809C14.6184 3.59165 14.6416 3.42665 14.6872 3.22328Z" fill="#A29213"/>
<path d="M20.7856 5.66737L19.9306 5.07513L19.3075 6.03946L18.9341 5.78954C19.4081 5.06061 19.8716 4.34695 20.3453 3.61914C20.4712 3.70406 20.5877 3.7834 20.7133 3.8687L20.1546 4.73023L21.0085 5.31985L21.5669 4.46316L21.9421 4.71495L20.5345 6.88162L20.1654 6.62983L20.7856 5.66737Z" fill="#A29213"/>
<path d="M20.459 23.1102L19.6742 23.8007L20.4011 24.6798L20.0704 24.9737L18.4287 22.9921L18.7576 22.6941C18.9747 22.9549 19.1882 23.2126 19.4111 23.4804L20.1927 22.7951L19.5461 22.0039C19.6546 21.9097 19.7607 21.8177 19.8844 21.7119L21.5254 23.6942C21.4194 23.7892 21.3137 23.8831 21.1918 23.9922L20.459 23.1102Z" fill="#A29213"/>
<path d="M10.582 26.3714L11.9708 24.0583C11.9914 24.0531 12.0037 24.046 12.0142 24.0483C12.4571 24.1425 12.4484 24.1436 12.4893 24.6196C12.5454 25.2614 12.6181 25.9021 12.6829 26.5431C12.6934 26.6466 12.6988 26.7509 12.7082 26.8806C12.5635 26.8493 12.4321 26.8325 12.3102 26.7897C12.274 26.7763 12.2451 26.6936 12.2378 26.6407C12.215 26.4626 12.2017 26.2831 12.1901 26.1039C12.1836 26.0023 12.1456 25.9423 12.0417 25.9319C11.9883 25.924 11.9354 25.9128 11.8832 25.8983C11.4327 25.7948 11.4327 25.7948 11.2087 26.1729C11.0166 26.498 11.0166 26.498 10.582 26.3714ZM12.1543 25.5583C12.1239 25.2681 12.0964 25.004 12.0645 24.7016L11.6303 25.4372L12.1543 25.5583Z" fill="#A29213"/>
<path d="M22.1155 6.2816L22.7575 6.9677L22.5067 7.24109L21.8384 6.58442L21.3416 7.09322L22.0584 7.87914L21.7837 8.15477L20.7749 7.04331L22.5042 5.21484L23.475 6.27378L23.1967 6.53116L22.5563 5.80484L22.1155 6.2816Z" fill="#A29213"/>
<path d="M18.4675 25.3926L18.6781 25.7003C18.3206 26.1305 17.5112 26.3812 16.9948 26.059C16.4882 25.7427 16.2009 24.962 16.4021 24.3858C16.6011 23.8159 17.281 23.3839 17.8387 23.4829L17.8748 23.8595C17.2709 23.8927 16.912 24.1202 16.8056 24.5248C16.705 24.9077 16.9141 25.4585 17.242 25.669C17.5803 25.8873 18.0131 25.7912 18.4675 25.3926Z" fill="#A29213"/>
<path d="M15.9174 3.59696C15.8479 3.96944 15.7813 4.32664 15.7118 4.69874L15.2798 4.61195C15.4343 3.76234 15.5877 2.92055 15.7466 2.04785L17.1408 2.31678C17.119 2.45385 17.0991 2.57751 17.0771 2.71532L16.1131 2.53244C16.0697 2.75965 16.0299 2.97419 15.985 3.20289L16.8701 3.37422C16.8513 3.50161 16.8339 3.62043 16.8118 3.76644L15.9174 3.59696Z" fill="#A29213"/>
<path d="M18.0039 2.98282C18.0534 2.85618 18.0979 2.7437 18.1486 2.61035L19.9086 3.37317L19.7588 3.74863L19.0825 3.45922L18.2456 5.48323L17.8389 5.3037L18.6675 3.28304L18.0039 2.98282Z" fill="#A29213"/>
<path d="M14.9148 26.8622L14.4766 26.9058C14.4284 26.1776 14.381 25.4557 14.3318 24.7059L13.6128 24.7506C13.6013 24.6192 13.59 24.4936 13.5767 24.3454L15.4818 24.2188C15.4937 24.3607 15.5039 24.4817 15.5158 24.6199L14.7798 24.684C14.825 25.4122 14.8695 26.1318 14.9148 26.8622Z" fill="#A29213"/>
<path d="M1.95886 14.132C2.16258 14.132 2.36702 14.1189 2.56893 14.1364C2.72815 14.1499 2.78966 14.0828 2.82765 13.9372C2.88121 13.7308 2.95358 13.5301 3.03246 13.2812L3.3118 14.1323H4.16431L3.47681 14.6538L3.73733 15.5008L3.03535 14.9816L2.33446 15.4986C2.4137 15.2438 2.47377 15.0274 2.54903 14.8162C2.59028 14.7007 2.58232 14.63 2.47305 14.5555C2.29212 14.4359 2.12314 14.2974 1.94873 14.1666L1.95886 14.132Z" fill="#A29213"/>
<path d="M24.9985 13.3281C25.0621 13.5337 25.1338 13.7378 25.187 13.9461C25.2232 14.0872 25.2811 14.1487 25.4341 14.136C25.6407 14.1185 25.8502 14.1315 26.1104 14.1315C25.8976 14.291 25.7294 14.4254 25.5521 14.5461C25.4435 14.6206 25.4146 14.6895 25.4652 14.8199C25.5448 15.0255 25.6006 15.2404 25.6823 15.4996L24.9818 14.9823L24.2798 15.4981C24.3587 15.2478 24.4166 15.0404 24.4901 14.8389C24.5385 14.7052 24.5299 14.6191 24.3978 14.5372C24.2208 14.4277 24.0605 14.2895 23.8481 14.1297C24.1155 14.1297 24.3294 14.12 24.5422 14.133C24.6779 14.1412 24.7292 14.0865 24.7629 13.9583C24.8193 13.7457 24.8964 13.5389 24.9648 13.3296L24.9985 13.3281Z" fill="#A29213"/>
</g>
<defs>
<clipPath id="clip0_1289_51">
<rect width="28" height="34" fill="white"/>
</clipPath>
</defs>
</svg>
