<?xml version="1.0" encoding="UTF-8"?>
<svg id="Layer_1" data-name="Layer 1" xmlns="http://www.w3.org/2000/svg" viewBox="0 0 235.22 258.43">
  <defs>
    <style>
      .cls-1, .cls-2 {
        stroke-width: 0px;
      }

      .cls-2 {
        fill: #fff;
      }
    </style>
  </defs>
  <path class="cls-1" d="m233.26,208.15c-2.19,4.08-4.26,8-6.44,11.85-.25.45-1.19.71-1.82.71-10.42.04-20.84.03-31.26.03-61.65,0-123.3,0-184.95.03-1.51,0-2.32-.43-3.01-1.8-1.8-3.61-3.79-7.13-5.78-10.8.7-.42,1.36-.81,2.02-1.2,15.86-9.26,27.37-22.27,34.05-39.46,3.2-8.23,4.53-16.75,4.6-25.58.12-15.34.57-30.68.71-46.02.12-12.2,3.88-23.32,9.99-33.63,11.9-20.11,29.66-32.03,52.52-36.44,1.55-.3,1.93-.86,1.91-2.35-.07-4.58-.08-9.16.06-13.73C106.04,4.1,110.43-.13,115.8,0c5.6.14,9.62,3.86,9.91,9.38.25,4.76.38,9.54.46,14.31.02,1.23.42,1.68,1.61,1.87,9.99,1.67,19.45,4.88,28.07,10.27,18.95,11.85,31.02,28.64,35.01,50.7,1.25,6.93,1,14.16,1.19,21.27.37,13.87.44,27.76.91,41.63.26,7.78,2.73,15.13,5.93,22.17,7.02,15.45,18.14,27.17,32.79,35.61.5.29.99.59,1.58.95ZM63.27,79.55c-.01,3.17,1.43,5.29,3.7,6.16,2.61,1,4.71.57,6.41-1.59,1.1-1.4,2.01-2.99,2.84-4.57,4.54-8.61,11.06-15.22,19.72-19.72,1.51-.78,3.02-1.6,4.38-2.61,2.13-1.59,2.73-4.21,1.72-6.53-1.57-3.58-4.71-4.66-8.79-2.83-12.89,5.81-22.36,15.18-28.6,27.83-.7,1.42-1.07,3-1.37,3.87Z"/>
  <path class="cls-1" d="m145.02,230.45c-.11,14.27-12.36,28.54-29.44,27.96-15.54-.53-27.23-13.89-27.38-27.96h56.82Z"/>
  <path class="cls-2" d="m63.27,79.55c.3-.87.67-2.45,1.37-3.87,6.24-12.65,15.71-22.02,28.6-27.83,4.07-1.83,7.22-.75,8.79,2.83,1.02,2.32.42,4.93-1.72,6.53-1.35,1.01-2.87,1.83-4.38,2.61-8.66,4.5-15.17,11.11-19.72,19.72-.84,1.59-1.74,3.17-2.84,4.57-1.7,2.16-3.8,2.58-6.41,1.59-2.26-.86-3.71-2.99-3.7-6.16Z"/>
</svg>