<svg width="47" height="39" viewBox="0 0 47 39" fill="none" xmlns="http://www.w3.org/2000/svg">
<g clip-path="url(#clip0_920_2644)">
<path d="M5.26339 33.5668C5.26339 32.9115 5.24666 32.3385 5.27498 31.7643C5.27498 31.6356 5.42304 31.4952 5.53248 31.4012C6.12859 30.9107 6.74143 30.4395 7.33496 29.9425C7.46417 29.835 7.54713 29.682 7.56671 29.5151C7.59117 28.0679 7.58087 26.6234 7.58087 25.1067L5.26339 26.0079C5.26339 25.4929 5.24537 25.0294 5.27627 24.5711C5.29277 24.5018 5.32442 24.437 5.36894 24.3813C5.41346 24.3257 5.46975 24.2806 5.53377 24.2492C6.10799 23.9917 6.70023 23.7896 7.27316 23.536C7.40191 23.4793 7.56285 23.3068 7.56414 23.1871C7.58216 21.194 7.57701 19.1958 7.57701 17.1848L5.27884 16.4831V14.8956L7.58087 15.5613V12.8756C7.58087 11.8134 7.5474 10.7499 7.59375 9.69031C7.62207 9.05429 7.4753 8.54959 7.02082 8.09253C6.59208 7.65994 6.27793 7.10632 5.82474 6.70591C5.16683 6.12268 5.23764 5.41842 5.28013 4.69227C5.84663 4.53391 6.23287 4.68326 6.58307 5.14805C7.19205 5.95788 7.86412 6.71878 8.52589 7.48741C8.63362 7.61676 8.78635 7.70049 8.95334 7.72174C10.3696 7.73976 11.7858 7.73204 13.2806 7.73204L11.751 4.63563C12.3227 4.63563 12.8274 4.61631 13.3282 4.64979C13.4377 4.65751 13.5677 4.83519 13.6334 4.96265C14.0531 5.77763 14.4483 6.6042 14.8732 7.40888C14.9414 7.53763 15.1127 7.70242 15.2389 7.70371C16.7336 7.72431 18.2284 7.71659 19.8004 7.71659C19.6331 6.67501 19.4721 5.67334 19.3086 4.6485H20.8536C21.0287 5.67077 21.2012 6.68016 21.375 7.69985H26.2495C26.4207 6.6969 26.5932 5.69137 26.7709 4.65751H28.3249C28.1601 5.67592 28.0004 6.67115 27.8305 7.71659C29.3935 7.71659 30.9037 7.72431 32.414 7.70242C32.5427 7.70242 32.7011 7.52604 32.7706 7.39343C33.1946 6.58059 33.604 5.76132 33.9989 4.93561C34.0342 4.83105 34.1051 4.74219 34.1992 4.68455C34.2933 4.6269 34.4047 4.60412 34.5138 4.62018C34.9426 4.64335 35.3726 4.62018 35.8825 4.62018C35.3597 5.66948 34.8705 6.65441 34.3452 7.71015C35.5876 7.71015 36.7579 7.66122 37.9218 7.72817C38.6583 7.77066 39.1501 7.55694 39.5685 6.94667C40.0037 6.31322 40.5715 5.77119 41.0285 5.15062C41.3646 4.69485 41.7495 4.50688 42.3328 4.66395C42.3804 5.33473 42.4834 5.99908 41.8847 6.58875C41.286 7.17842 40.7981 7.87237 40.2663 8.52384C40.1502 8.6507 40.076 8.81031 40.0539 8.9809C40.041 11.1516 40.0449 13.3236 40.0449 15.5664L42.3431 14.8969V16.4934L40.0462 17.1977C40.0462 19.2048 40.0462 21.1889 40.0578 23.1626C40.0708 23.24 40.1013 23.3135 40.1471 23.3773C40.1928 23.4411 40.2526 23.4936 40.3217 23.5308C40.8779 23.7793 41.4457 24.0085 42.0212 24.2106C42.3006 24.3072 42.3856 24.4578 42.3701 24.7385C42.3469 25.1389 42.3637 25.5419 42.3637 26.0105L40.0462 25.1028C40.0462 26.6298 40.0462 28.1053 40.0578 29.5794C40.0876 29.73 40.1731 29.8638 40.2972 29.9541C40.8921 30.4472 41.5075 30.9146 42.0997 31.4128C42.2398 31.5302 42.3316 31.6953 42.3572 31.8763C42.3894 32.4042 42.3688 32.9359 42.3688 33.55C42.2066 33.4406 42.092 33.3724 41.989 33.2925C39.8144 31.5557 37.6437 29.8163 35.4589 28.0885C35.2482 27.9289 34.993 27.8389 34.7289 27.831C27.4683 27.8181 20.2086 27.8181 12.9497 27.831C12.6706 27.8376 12.4005 27.9312 12.1772 28.0988C10.0155 29.8009 7.87056 31.5235 5.71916 33.2411C5.5917 33.3337 5.46553 33.4213 5.26339 33.5668ZM25.477 12.3464L25.9804 9.30792H21.6428C21.8166 10.3379 21.9827 11.3396 22.1501 12.3464H25.477ZM15.8002 9.28604C16.3075 10.3032 16.7761 11.2482 17.2576 12.188C17.2852 12.2334 17.3226 12.272 17.3673 12.3007C17.4119 12.3295 17.4624 12.3478 17.5151 12.3541C18.5245 12.3606 19.5249 12.3606 20.5845 12.3606C20.4068 11.2997 20.2382 10.2941 20.0695 9.28475L15.8002 9.28604ZM27.049 12.3606C27.6477 12.3606 28.2077 12.2859 28.7317 12.376C29.9317 12.5807 30.6424 12.1481 31.0016 10.9778C31.1793 10.3984 31.532 9.87184 31.823 9.28604H27.5601C27.3915 10.3006 27.2254 11.3061 27.049 12.3606ZM15.6045 12.3606C15.0895 11.3306 14.6234 10.3714 14.1265 9.4238C14.0763 9.32852 13.8587 9.27831 13.7183 9.27702C12.6085 9.27059 11.5 9.27059 10.3902 9.27059C10.2768 9.27989 10.1641 9.29666 10.0529 9.3208C10.873 10.3044 11.6519 11.2443 12.4399 12.1764C12.5166 12.2758 12.6286 12.3417 12.7527 12.3606C13.6784 12.3683 14.6041 12.3606 15.6045 12.3606ZM32.0226 12.3606C33.0216 12.3606 33.9358 12.3721 34.855 12.349C35.0197 12.3167 35.1667 12.225 35.2683 12.0915C35.9056 11.3486 36.5275 10.5928 37.1545 9.84094L37.6141 9.27059C36.2571 9.27059 35.0237 9.27059 33.7916 9.2796C33.7258 9.2882 33.6627 9.31138 33.607 9.34747C33.5513 9.38356 33.5044 9.43163 33.4697 9.48817C32.992 10.4126 32.5311 11.346 32.0226 12.3606ZM36.1811 16.738C36.8841 16.5256 37.5085 16.3183 38.1433 16.1548C38.4407 16.0775 38.5063 15.9321 38.5051 15.6488C38.4922 14.1206 38.5051 12.5923 38.4973 11.0641C38.4867 10.9439 38.4695 10.8244 38.4458 10.7061C37.6978 11.6074 36.9936 12.4378 36.2996 13.2811C36.2304 13.3672 36.1906 13.4733 36.1863 13.5837C36.1773 14.6098 36.1811 15.6385 36.1811 16.738ZM9.16448 17.6624V22.7957C9.87775 22.5124 10.5511 22.2562 11.2116 21.9704C11.2735 21.9351 11.3266 21.8861 11.3668 21.8272C11.4069 21.7683 11.4331 21.701 11.4433 21.6305C11.4614 20.634 11.4614 19.6366 11.4433 18.6384C11.4375 18.5653 11.414 18.4947 11.3747 18.4328C11.3354 18.3708 11.2817 18.3194 11.218 18.283C10.5511 18.0628 9.87132 17.8736 9.16448 17.6624ZM9.12586 10.6379C9.12586 12.4687 9.12586 14.1515 9.13487 15.8342C9.14635 15.8904 9.17101 15.943 9.20683 15.9878C9.24264 16.0326 9.28859 16.0682 9.34087 16.0917C10.0245 16.3106 10.7159 16.505 11.4433 16.72C11.4433 15.6372 11.4433 14.6085 11.4433 13.5798C11.44 13.4693 11.4012 13.3627 11.3326 13.276C10.6374 12.4365 9.9344 11.5997 9.12586 10.6379ZM38.4806 17.6637C37.7506 17.8787 37.0721 18.0667 36.4039 18.2882C36.3426 18.3243 36.2908 18.3744 36.2525 18.4343C36.2142 18.4943 36.1907 18.5624 36.1837 18.6332C36.167 19.6297 36.1696 20.6262 36.1837 21.624C36.1835 21.6821 36.1963 21.7394 36.2213 21.7918C36.2463 21.8442 36.2827 21.8902 36.3279 21.9266C37.0309 22.2266 37.7442 22.5034 38.4845 22.7995L38.4806 17.6637ZM12.9973 16.9685H16.0448V13.948H13.0038L12.9973 16.9685ZM17.6465 16.9685H20.6875V13.9429H17.6529L17.6465 16.9685ZM22.2879 13.9249V16.9698H25.3199V13.93L22.2879 13.9249ZM26.9228 16.9608H29.9536V13.9339H26.928L26.9228 16.9608ZM31.5578 16.9608H34.6065V13.9377H31.5616L31.5578 16.9608ZM16.0628 21.6163V18.5727H13.027V21.6163H16.0628ZM20.6978 21.6163V18.5727H17.6645V21.6163H20.6978ZM25.3328 21.6163V18.5778H22.3059V21.6112L25.3328 21.6163ZM26.9267 21.606H29.9587V18.5714H26.9267V21.606ZM31.5681 18.5701V21.6125H34.6014V18.565L31.5681 18.5701ZM13.0282 23.2051V26.2358H16.059V23.2025L13.0282 23.2051ZM20.6875 26.2526V23.2192H17.658V26.25L20.6875 26.2526ZM25.3392 23.2192H22.2917V26.2474H25.3405L25.3392 23.2192ZM26.9383 23.2064V26.2371H29.9716V23.2038L26.9383 23.2064ZM31.5642 26.2397H34.595V23.2064H31.5655L31.5642 26.2397ZM11.4433 23.5617C10.7005 23.8553 10.0271 24.1115 9.36533 24.3909C9.30705 24.4194 9.25609 24.461 9.21636 24.5123C9.17664 24.5636 9.1492 24.6234 9.13616 24.687C9.12071 25.932 9.12715 27.177 9.12715 28.5314C9.91509 27.8993 10.6258 27.3353 11.3262 26.7585C11.4003 26.6789 11.4409 26.5738 11.4395 26.465C11.4524 25.5161 11.4433 24.5698 11.4433 23.5617ZM36.176 23.554C36.176 24.5672 36.176 25.5135 36.176 26.4598C36.174 26.5686 36.2136 26.6741 36.2867 26.7547C36.9871 27.3315 37.703 27.8941 38.4883 28.5263C38.4883 27.1757 38.4948 25.9307 38.4793 24.6857C38.466 24.6222 38.4382 24.5626 38.3983 24.5115C38.3583 24.4604 38.3072 24.4191 38.2489 24.3909C37.5961 24.1063 36.9253 23.8475 36.1811 23.5514L36.176 23.554Z" fill="#A29213"/>
<path d="M3.71839 33.9897C2.89697 33.9897 2.14122 34.0039 1.38675 33.9897C0.93484 33.9768 0.664468 33.6743 0.628418 33.2172C0.628418 33.1206 0.628418 33.0241 0.628418 32.9275C0.628418 23.298 0.628418 13.6706 0.628418 4.04529C0.628418 1.94282 1.92749 0.386247 3.9437 0.0450621C4.19966 0.0102917 4.45795 -0.00434476 4.7162 0.00128749C17.4486 0.000429163 30.1819 0 42.916 0C45.3622 0 46.9986 1.64284 46.9986 4.09293C46.9986 13.7062 46.9986 23.3151 46.9986 32.9198C46.9986 33.7644 46.7617 33.9949 45.8991 33.9961H43.9086V4.24871C43.9086 3.29855 43.7014 3.08997 42.7499 3.08997H4.87713C3.9231 3.08997 3.71839 3.29468 3.71839 4.24871V33.9897Z" fill="#A29213"/>
</g>
<g clip-path="url(#clip1_920_2644)">
<path d="M18.6284 33.9987C18.6308 31.2685 20.8119 29.0452 23.5454 29.0007C26.3377 28.9552 28.5855 31.1791 28.6278 33.9197C28.6707 36.7082 26.4476 38.9633 23.6995 38.9994C20.8816 39.0366 18.6293 36.7694 18.6284 33.9987ZM24.5031 37.0346C24.9637 37.0076 25.4204 36.9546 25.8741 36.8736C25.9171 36.866 25.9429 36.8463 25.9635 36.8077C26.3017 36.1737 26.6407 35.5402 26.9817 34.9078C27.0068 34.8613 27.004 34.8274 26.9812 34.782C26.7641 34.3494 26.5097 33.9391 26.2495 33.5316C26.1714 33.4092 26.1 33.3624 25.945 33.3811C25.2814 33.4612 24.6156 33.5216 23.9508 33.5915C23.927 33.594 23.8956 33.6136 23.8846 33.6343C23.6197 34.1327 23.3567 34.632 23.0955 35.1322C23.0846 35.1529 23.0852 35.1903 23.0968 35.2106C23.4392 35.8065 23.7832 36.4016 24.129 36.9954C24.1405 37.015 24.1734 37.0321 24.197 37.033C24.2989 37.0371 24.401 37.0348 24.503 37.0348L24.5031 37.0346ZM23.953 33.2708C24.3219 33.2331 24.6761 33.1971 25.0303 33.1608C25.3722 33.1256 25.7139 33.0898 26.0557 33.0553C26.09 33.0518 26.1116 33.0418 26.1249 33.0062C26.2758 32.6005 26.4276 32.195 26.5816 31.7904C26.5993 31.7438 26.5883 31.7148 26.5573 31.6802C26.0876 31.153 25.6185 30.6251 25.1511 30.0961C25.1162 30.0566 25.0812 30.036 25.0286 30.0383C24.723 30.0518 24.4169 30.0583 24.1116 30.0781C23.8874 30.0926 23.6644 30.1238 23.4408 30.1476C23.4002 30.1518 23.3759 30.1682 23.3616 30.2119C23.1723 30.7875 22.981 31.3623 22.7886 31.9368C22.7769 31.972 22.7832 31.9929 22.8084 32.0186C22.9095 32.1229 23.0106 32.2274 23.1071 32.3357C23.3773 32.6389 23.645 32.9443 23.9146 33.248C23.9265 33.2615 23.9471 33.2673 23.9531 33.2706L23.953 33.2708ZM23.2178 38.0807C23.2309 38.0683 23.2526 38.0534 23.2673 38.0334C23.4593 37.7739 23.6493 37.5131 23.8425 37.2546C23.8739 37.2127 23.8724 37.1827 23.847 37.1391C23.5183 36.5739 23.1911 36.0079 22.8655 35.4409C22.8417 35.3995 22.8132 35.3832 22.7687 35.3769C22.1993 35.2973 21.6351 35.1908 21.0796 35.0412C21.0327 35.0286 21.01 35.0402 20.9847 35.0801C20.7219 35.4953 20.4583 35.91 20.1913 36.3226C20.1547 36.3792 20.1513 36.4212 20.1844 36.4799C20.4107 36.8816 20.6565 37.2697 20.948 37.6281C20.9824 37.6703 21.0197 37.6901 21.0719 37.6993C21.6499 37.8009 22.2276 37.9047 22.8055 38.0077C22.9387 38.0314 23.072 38.0548 23.2179 38.0807H23.2178ZM19.677 31.9824C19.6905 31.9939 19.7068 32.0123 19.727 32.0243C20.0669 32.2264 20.4079 32.4268 20.7473 32.6299C20.7863 32.6533 20.8129 32.6481 20.8481 32.6253C21.3558 32.2994 21.891 32.0265 22.4511 31.8028C22.4949 31.7853 22.5158 31.7598 22.5299 31.7169C22.7031 31.1912 22.8775 30.6658 23.0536 30.1409C23.0695 30.0937 23.0643 30.0686 23.0207 30.0392C22.7605 29.8643 22.4878 29.7154 22.1943 29.6031C22.1335 29.5799 22.085 29.5773 22.0254 29.5994C21.3752 29.8402 20.8021 30.2014 20.3134 30.6939C20.2422 30.7656 20.1702 30.8415 20.1194 30.9277C19.9393 31.2341 19.8217 31.5688 19.698 31.9004C19.69 31.9216 19.6865 31.9446 19.6768 31.9823L19.677 31.9824ZM19.9273 36.138C19.9434 36.1176 19.9547 36.1056 19.9634 36.092C20.2368 35.6636 20.5105 35.2356 20.7818 34.806C20.7984 34.7797 20.8046 34.7384 20.7985 34.7075C20.6861 34.1398 20.6261 33.5671 20.6293 32.9884C20.6295 32.9393 20.6123 32.9148 20.5718 32.891C20.2913 32.7273 20.0123 32.561 19.7327 32.3956C19.6562 32.3504 19.5792 32.3059 19.5021 32.2607C19.4895 32.2749 19.4799 32.2832 19.4732 32.2935C19.3595 32.4703 19.2442 32.6462 19.134 32.8251C19.1006 32.8792 19.0706 32.9397 19.0576 33.0012C18.8759 33.8536 18.9216 34.6939 19.2031 35.5197C19.2147 35.5537 19.2344 35.5895 19.2605 35.613C19.3841 35.7244 19.5084 35.8356 19.6385 35.9392C19.729 36.0114 19.8292 36.0711 19.9274 36.138H19.9273ZM28.2926 34.371C28.2428 34.4091 28.2045 34.4409 28.164 34.4694C27.9162 34.6434 27.651 34.7867 27.3773 34.9151C27.3493 34.9282 27.3194 34.9511 27.3051 34.9775C26.9465 35.6424 26.5893 36.3082 26.2343 36.9751C26.2191 37.0039 26.218 37.0468 26.2253 37.0798C26.2537 37.2076 26.291 37.3335 26.3196 37.4613C26.3431 37.5663 26.359 37.6729 26.3783 37.7799C26.6879 37.6294 27.3301 36.9341 27.6511 36.3964C28.0221 35.7749 28.2322 35.1013 28.2926 34.3709V34.371ZM25.4028 29.6622C25.3977 29.7279 25.3903 29.7812 25.3905 29.8346C25.3905 29.8608 25.397 29.8936 25.4134 29.9121C25.8844 30.446 26.357 30.9787 26.8301 31.5109C26.8458 31.5287 26.8679 31.5441 26.89 31.5522C27.2274 31.6773 27.5448 31.841 27.8446 32.0393C27.855 32.0461 27.8671 32.05 27.8785 32.0553C27.3611 30.941 26.5372 30.1493 25.4028 29.6621V29.6622ZM21.3527 38.0718C21.7512 38.4142 23.4192 38.8121 23.776 38.6685C23.585 38.5812 23.3868 38.4905 23.1881 38.4005C23.1732 38.3937 23.156 38.3919 23.1397 38.3889C22.7055 38.3116 22.2713 38.2345 21.8371 38.1575C21.6756 38.1289 21.5142 38.1003 21.3527 38.0717V38.0718Z" fill="#A29213"/>
</g>
<defs>
<clipPath id="clip0_920_2644">
<rect width="46.3715" height="34" fill="white" transform="translate(0.628418)"/>
</clipPath>
<clipPath id="clip1_920_2644">
<rect width="10" height="10" fill="white" transform="translate(18.6284 29)"/>
</clipPath>
</defs>
</svg>
