<?xml version="1.0" encoding="UTF-8"?>
<svg id="Layer_1" data-name="Layer 1" xmlns="http://www.w3.org/2000/svg" viewBox="0 0 100 100">
  <defs>
    <style>
      .cls-1 {
        fill: #004883;
      }

      .cls-1, .cls-2, .cls-3 {
        stroke-width: 0px;
      }

      .cls-2 {
        fill: #fff;
      }

      .cls-3 {
        fill: #e32934;
      }
    </style>
  </defs>
  <path class="cls-2" d="m530.49,1060.79c292.08-.11,530.2-237.27,530.1-530.11C1060.5,237.72,825.25.44,531.21,0,244.71-.42.85,227.29.89,530.33c.04,304.87,246.14,529.8,529.61,530.46Z"/>
  <path class="cls-1" d="m530.49,1060.79C247.03,1060.13.92,835.2.89,530.33.85,227.29,244.71-.42,531.21,0c294.04.43,529.29,237.72,529.39,530.68.1,292.84-238.03,530-530.1,530.11Zm7.31-1051.81C254.04,4.33,17.54,230.57,9.76,515.77c-7.97,292.04,224.27,532.15,513.87,536.12,289.43,3.97,525.87-227.15,528.04-518.94C1053.85,241.25,818.11,11.73,537.8,8.98Z"/>
  <path class="cls-2" d="m537.8,8.98c280.31,2.75,516.05,232.27,513.87,523.97-2.18,291.8-238.62,522.92-528.04,518.94C234.03,1047.92,1.79,807.81,9.76,515.77,17.54,230.57,254.04,4.33,537.8,8.98Zm-10,25.72c-105.91.73-206.04,31.49-292.57,98.42C89.29,246.03,23.33,395.99,38.51,580.18c7.24,87.84,38.85,167.34,89.9,239.17,3.58,5.04,6.54,6.29,12.66,4.43,155.53-47.33,292.13-126.95,409.93-239.06,126.75-120.62,217.56-263.76,271.09-430.46q6.54-20.36-11.24-32.5c-84.3-57.65-177.65-86.15-283.05-87.06ZM153.9,849.3c-.24,1.05-.49,2.09-.73,3.14,121.8,133.18,271.98,192.52,452.26,167.65,185.35-25.57,340.65-160.38,397.97-341.82,21.8-69.01,27.66-139.65,18.36-211.31-9.13-70.34-48.17-176.41-72.15-198.93-.05.24-.17.5-.12.71.22.96.49,1.92.74,2.88,25.01,97.21,13.56,189.42-39.21,275.35-43.89,71.48-108.25,118.59-184.4,150.84-59.16,25.06-121.08,41.14-183.44,55.72-99.87,23.36-199.8,46.48-299.54,70.42-30.19,7.25-59.83,16.83-89.72,25.35Z"/>
  <path class="cls-3" d="m527.8,34.7c105.4.91,198.75,29.4,283.05,87.06q17.81,12.18,11.24,32.5c-53.53,166.7-144.34,309.83-271.09,430.46-117.81,112.11-254.4,191.73-409.93,239.06-6.12,1.86-9.08.61-12.66-4.43-51.05-71.83-82.66-151.32-89.9-239.17-15.17-184.19,50.79-334.15,196.73-447.05,86.53-66.94,186.65-97.7,292.57-98.42Z"/>
  <path class="cls-1" d="m153.9,849.3c29.89-8.51,59.52-18.1,89.72-25.35,99.73-23.93,199.66-47.05,299.54-70.42,62.36-14.59,124.28-30.67,183.44-55.72,76.16-32.26,140.51-79.37,184.4-150.84,52.77-85.93,64.23-178.14,39.21-275.35-.25-.96-.52-1.91-.74-2.88-.05-.22.08-.47.12-.71,23.98,22.52,63.03,128.59,72.15,198.93,9.3,71.67,3.44,142.3-18.36,211.31-57.32,181.43-212.62,316.25-397.97,341.82-180.28,24.87-330.46-34.47-452.26-167.65.24-1.05.49-2.09.73-3.14Z"/>
</svg>