<svg width="30" height="31" viewBox="0 0 30 31" fill="none" xmlns="http://www.w3.org/2000/svg">
<path d="M14.7596 30.6853C22.8997 30.6821 29.536 23.8218 29.5332 15.3509C29.5307 6.87649 22.9744 0.0127446 14.7797 1.6779e-05C6.79512 -0.0121325 -0.00111464 6.57478 1.37122e-07 15.3408C0.00111491 24.1597 6.85977 30.6662 14.7599 30.6853H14.7596Z" fill="white"/>
<path d="M14.7596 30.6853C6.85977 30.6662 0.000836219 24.1597 1.37122e-07 15.3408C-0.00111464 6.57478 6.79512 -0.0121325 14.7797 1.6779e-05C22.9744 0.0124553 29.5307 6.87649 29.5335 15.3509C29.5363 23.8218 22.8997 30.6821 14.7599 30.6853H14.7596ZM14.9634 0.259779C7.05514 0.12527 0.464026 6.66966 0.247202 14.9196C0.0250826 23.3674 6.49747 30.313 14.5684 30.4278C22.6347 30.5426 29.2241 23.8571 29.2846 15.4165C29.3454 6.9786 22.7754 0.339328 14.9634 0.259779Z" fill="#004883"/>
<path d="M14.9639 0.259727C22.776 0.339276 29.3459 6.97855 29.2851 15.4165C29.2244 23.8573 22.6349 30.5429 14.569 30.4278C6.49801 30.3129 0.0256193 23.3673 0.247738 14.9195C0.464562 6.66961 7.05567 0.125218 14.9639 0.259727ZM14.6852 1.00372C11.7335 1.02484 8.94299 1.91463 6.53145 3.8507C2.46419 7.11682 0.625926 11.4547 1.04898 16.7827C1.25076 19.3236 2.13171 21.6233 3.55444 23.7011C3.65421 23.8469 3.73671 23.8831 3.90727 23.8293C8.24179 22.4602 12.0488 20.157 15.3318 16.914C18.8642 13.4249 21.395 9.2843 22.8869 4.46221C23.0084 4.06958 22.904 3.7562 22.5736 3.52209C20.2242 1.85446 17.6226 1.03005 14.6852 1.00372ZM4.26483 24.5675C4.25814 24.5978 4.25118 24.6279 4.24449 24.6583C7.63898 28.5108 11.8244 30.2273 16.8487 29.5079C22.0143 28.7682 26.3424 24.8686 27.9399 19.6201C28.5474 17.6239 28.7107 15.5805 28.4516 13.5076C28.1971 11.4729 27.1091 8.40464 26.4408 7.75321C26.4394 7.76015 26.436 7.76767 26.4374 7.77375C26.4436 7.80152 26.4511 7.82929 26.4581 7.85706C27.1551 10.669 26.836 13.3364 25.3653 15.822C24.1421 17.8897 22.3484 19.2525 20.2262 20.1854C18.5774 20.9103 16.8518 21.3754 15.1138 21.7972C12.3305 22.4729 9.54552 23.1417 6.76583 23.8342C5.92445 24.0439 5.09841 24.321 4.26539 24.5675H4.26483Z" fill="white"/>
<path d="M14.6848 1.00378C17.6222 1.03011 20.2238 1.85423 22.5732 3.52215C22.9041 3.75703 23.0085 4.07041 22.8865 4.46227C21.3946 9.28436 18.8638 13.4247 15.3314 16.9141C12.0481 20.1571 8.24138 22.4602 3.90686 23.8293C3.7363 23.8831 3.6538 23.847 3.55403 23.7012C2.1313 21.6234 1.25035 19.324 1.04857 16.7828C0.625795 11.4547 2.46406 7.11688 6.53132 3.85105C8.94286 1.91469 11.7331 1.0249 14.6851 1.00407L14.6848 1.00378Z" fill="#E32934"/>
<path d="M4.26407 24.5676C5.09708 24.3214 5.92285 24.044 6.76451 23.8343C9.54392 23.1421 12.3289 22.4733 15.1125 21.7972C16.8504 21.3752 18.5761 20.9101 20.2249 20.1854C22.3474 19.2523 24.1408 17.8895 25.364 15.8221C26.8347 13.3365 27.154 10.6691 26.4567 7.85714C26.4498 7.82937 26.4422 7.80189 26.4361 7.77383C26.4347 7.76747 26.4384 7.76024 26.4395 7.7533C27.1078 8.40473 28.1961 11.473 28.4502 13.5077C28.7094 15.5809 28.5461 17.624 27.9386 19.6202C26.3411 24.8684 22.013 28.7683 16.8474 29.508C11.8231 30.2274 7.63766 28.5109 4.24316 24.6584C4.24985 24.628 4.25682 24.5979 4.26351 24.5676H4.26407Z" fill="#004883"/>
</svg>
