<svg width="50" height="49" viewBox="0 0 50 49" fill="none" xmlns="http://www.w3.org/2000/svg">
<path d="M47.7802 0H2.22018C0.995943 0 0 0.975914 0 2.17541V46.8245C0 48.024 0.995943 49 2.22018 49H47.7802C49.0042 49 50 48.024 50 46.8245V2.17541C50 0.975914 49.0042 0 47.7802 0ZM47.7802 47.2794H2.22018C1.96408 47.2794 1.75575 47.0753 1.75575 46.8245V41.4283L18.1772 25.3352L34.1315 40.9706C34.303 41.1385 34.5276 41.2225 34.7523 41.2225C34.9769 41.2225 35.2017 41.1385 35.3731 40.9706C35.7159 40.6346 35.7159 40.0899 35.3731 39.7538L18.7979 23.5102C18.6265 23.3421 18.4019 23.2582 18.1772 23.2582C17.9525 23.2582 17.7279 23.3422 17.5565 23.5102L1.75575 38.9948V2.17541C1.75575 1.92468 1.96408 1.72066 2.22018 1.72066H47.7802C48.036 1.72066 48.2442 1.92468 48.2442 2.17541V38.6433L32.8023 23.5102C32.738 23.4472 32.6663 23.3961 32.5898 23.3566C32.2587 23.186 31.8393 23.2372 31.5607 23.5102L28.112 26.8902C27.7692 27.2261 27.7692 27.7708 28.1121 28.1068C28.2835 28.2747 28.5082 28.3588 28.7328 28.3588C28.9574 28.3588 29.1822 28.2747 29.3536 28.1067L32.1815 25.3353L48.1358 40.9706C48.1699 41.0039 48.2065 41.033 48.2442 41.0597V46.8245C48.2442 47.0753 48.0361 47.2794 47.7802 47.2794Z" fill="white"/>
<path d="M30.2744 15.2006C30.2744 12.5286 28.0562 10.3546 25.3296 10.3546C22.603 10.3546 20.3848 12.5286 20.3848 15.2006C20.3848 17.8727 22.603 20.0466 25.3296 20.0466C28.0562 20.0466 30.2744 17.8727 30.2744 15.2006ZM25.3296 18.3259C23.5711 18.3259 22.1405 16.9239 22.1405 15.2006C22.1405 13.4772 23.5711 12.0753 25.3296 12.0753C27.088 12.0753 28.5186 13.4772 28.5186 15.2006C28.5186 16.9239 27.088 18.3259 25.3296 18.3259Z" fill="white"/>
</svg>
