<?xml version="1.0" encoding="UTF-8"?>
<svg id="Layer_1" data-name="Layer 1" xmlns="http://www.w3.org/2000/svg" viewBox="0 0 291.45 384">
  <defs>
    <style>
      .cls-1, .cls-2 {
        stroke-width: 0px;
      }

      .cls-2 {
        fill: #fff;
      }
    </style>
  </defs>
  <path class="cls-1" d="m292.01,191.97c0,60.26,0,120.52,0,180.78,0,8.42-2.18,10.58-10.7,10.58-90.37,0-180.74,0-271.12,0-8.67,0-10.75-2.11-10.75-10.91,0-120.27,0-240.55,0-360.82,0-8.95,2.02-10.95,11.07-10.95,90.25,0,180.49,0,270.74,0,8.69,0,10.75,2.09,10.75,10.9,0,60.14,0,120.27,0,180.41Zm-30.01.02c0-50.26,0-100.51,0-150.77,0-8.28-2.22-10.54-10.36-10.54-70.62,0-141.24,0-211.86,0-8.02,0-10.34,2.28-10.34,10.18,0,100.76,0,201.53,0,302.29,0,7.88,2.33,10.17,10.35,10.17,70.62,0,141.24,0,211.86,0,8.11,0,10.34-2.28,10.34-10.56,0-50.26,0-100.51,0-150.77Z"/>
  <path class="cls-2" d="m262,191.99c0,50.26,0,100.51,0,150.77,0,8.28-2.23,10.56-10.34,10.56-70.62,0-141.24,0-211.86,0-8.02,0-10.35-2.29-10.35-10.17,0-100.76,0-201.53,0-302.29,0-7.9,2.32-10.18,10.34-10.18,70.62,0,141.24,0,211.86,0,8.14,0,10.36,2.26,10.36,10.54,0,50.26,0,100.51,0,150.77ZM44.72,45.87v138.63h41.3c5.55-34.11,32.95-51.98,58.43-52.55,25.78-.58,54.97,16.73,60.99,52.29h41.25V45.9h-52.21c0,9.06,0,17.91,0,26.76,0,8.27-2.23,10.54-10.36,10.54-25.63,0-51.25,0-76.88,0-7.95,0-10.27-2.32-10.27-10.25,0-8.97,0-17.94,0-27.08h-52.24Zm160.59,153.82c-4.56,30.18-28.47,50.64-56.2,52.24-14.09.81-26.98-2.97-38.41-11.28-13.92-10.12-21.92-23.94-24.55-40.84h-41.48v138.24h52.3c0-9.37,0-18.49,0-27.6,0-7.16,2.51-9.65,9.74-9.65,24.5,0,49,0,73.51,0,13.47,0,14.27.79,14.27,14.13v23.11h52.33v-138.35h-41.51Zm-15.46-15.35c-3.2-21.6-22.88-37.75-45.14-37.33-21.27.4-40.9,17.36-43.04,37.33h88.18Zm-88.19,15.35c2.5,21.59,23.82,38.48,46.83,37.26,20.52-1.09,40.92-19.57,41.09-37.26h-87.92Zm77.64-131.63v-22.15h-67.07v22.15h67.07Zm.02,248.02h-67.04v22.04h67.04v-22.04Z"/>
  <path class="cls-1" d="m44.72,45.87h52.24c0,9.15,0,18.11,0,27.08,0,7.93,2.33,10.25,10.27,10.25,25.63,0,51.25,0,76.88,0,8.14,0,10.36-2.27,10.36-10.54,0-8.85,0-17.7,0-26.76h52.21v138.34h-41.25c-6.02-35.56-35.21-52.87-60.99-52.29-25.48.57-52.89,18.44-58.43,52.55h-41.3V45.87Z"/>
  <path class="cls-1" d="m205.31,199.69h41.51v138.35h-52.33v-23.11c0-13.34-.8-14.13-14.27-14.13-24.5,0-49,0-73.51,0-7.23,0-9.73,2.49-9.74,9.65-.01,9.11,0,18.23,0,27.6h-52.3v-138.24h41.48c2.64,16.9,10.63,30.71,24.55,40.84,11.43,8.31,24.32,12.09,38.41,11.28,27.73-1.6,51.64-22.06,56.2-52.24Z"/>
  <path class="cls-1" d="m189.84,184.33h-88.18c2.13-19.97,21.77-36.93,43.04-37.33,22.26-.42,41.95,15.73,45.14,37.33Z"/>
  <path class="cls-1" d="m101.65,199.68h87.92c-.17,17.69-20.57,36.17-41.09,37.26-23.01,1.22-44.33-15.67-46.83-37.26Z"/>
  <path class="cls-1" d="m179.29,68.05h-67.07v-22.15h67.07v22.15Z"/>
  <path class="cls-1" d="m179.32,316.07v22.04h-67.04v-22.04h67.04Z"/>
</svg>