<svg width="32" height="38" viewBox="0 0 32 38" fill="none" xmlns="http://www.w3.org/2000/svg">
<path d="M31.2084 22.9377L31.1322 18.9797C31.1318 18.9608 31.1065 18.955 31.0979 18.9719C31.0893 18.9891 31.0634 18.9826 31.064 18.9633C31.0671 18.8612 31.0706 18.7589 31.0706 18.6569C31.0674 16.3726 30.5718 14.0877 30.0076 12.0272C29.4685 10.073 28.9952 8.39929 28.334 6.88154C27.6751 5.36571 26.8104 4.02772 25.583 2.87315C24.2919 1.65701 22.7011 0.962489 21.0028 0.545312C19.3027 0.130601 17.4847 0.000636304 15.7182 0C13.9523 0.000636304 12.1343 0.130601 10.4347 0.545312C8.73591 0.962489 7.14511 1.65701 5.85342 2.87251C4.6267 4.02772 3.76194 5.36579 3.10353 6.88154C2.44234 8.39921 1.96903 10.073 1.4299 12.0265C0.865223 14.0882 0.370114 16.3725 0.36636 18.6568C0.36636 18.7704 0.370392 18.8843 0.37392 18.998C0.374526 19.0175 0.348341 19.0242 0.339467 19.0068C0.330801 18.9898 0.305179 18.9957 0.304806 19.0148L0.228127 22.937C0.221527 23.2635 0.217773 23.5887 0.217773 23.9119C0.218258 25.2301 0.278322 26.5171 0.486126 27.7531C0.692961 28.9867 1.05504 30.1767 1.65805 31.2268C2.35806 32.4492 3.19066 33.4509 4.14152 34.2423C5.56903 35.4317 7.24411 36.1486 9.16097 36.5733C11.0798 36.998 13.25 37.136 15.7182 37.1366C18.9268 37.1348 21.743 36.8046 24.12 35.9143C25.3075 35.4684 26.3866 34.879 27.3404 34.1081C28.2927 33.3383 29.1187 32.3821 29.7804 31.2269C30.3829 30.1768 30.7445 28.9867 30.9508 27.7538C31.1581 26.5191 31.2183 25.2326 31.2188 23.9145C31.2188 23.5906 31.2151 23.2647 31.2084 22.9377ZM0.743819 24.3169C0.74366 24.3166 0.743778 24.3165 0.744019 24.3167C0.744047 24.3167 0.744073 24.3168 0.744089 24.3168L0.745941 24.3204L0.743819 24.3169ZM28.9237 20.6776C28.7808 21.2982 28.5645 21.8614 28.2474 22.3843C27.686 23.3076 27.0409 24.0394 26.2789 24.64C25.1372 25.5384 23.7168 26.1372 21.9622 26.504C20.2096 26.8708 18.1317 27.0032 15.7183 27.0026C12.4998 27.0045 9.87998 26.7651 7.82962 26.0576C6.8035 25.7044 5.92075 25.2393 5.15868 24.64C4.39668 24.0393 3.75153 23.3076 3.19018 22.3843C2.8726 21.8614 2.65674 21.2981 2.51385 20.6776C2.37138 20.0584 2.30508 19.3807 2.30508 18.6569C2.30181 16.8725 2.7202 14.8207 3.25315 12.8926C3.78659 10.9516 4.23428 9.40592 4.78528 8.1493C5.33858 6.89029 5.97658 5.89917 6.98617 4.93978C7.93188 4.0414 9.26184 3.41902 10.7888 3.04909C12.3148 2.67542 14.0272 2.54609 15.7183 2.54673C17.4099 2.54609 19.1228 2.67542 20.6483 3.04909C22.1757 3.41902 23.5052 4.0414 24.4509 4.93978C25.4605 5.89981 26.099 6.89085 26.6523 8.1493C27.2032 9.40592 27.651 10.9516 28.1843 12.8926C28.7173 14.8201 29.1352 16.8725 29.1319 18.6569C29.1319 19.3807 29.0662 20.0584 28.9237 20.6776Z" fill="#A29213"/>
<path d="M14.0477 19.3467C13.4313 19.3467 12.916 19.8153 12.8577 20.4289C12.7911 21.1306 13.3429 21.7373 14.0477 21.7373H17.3888C18.0938 21.7373 18.6456 21.1302 18.5787 20.4284C18.5201 19.8151 18.0049 19.3467 17.3888 19.3467H14.0477Z" fill="#A29213"/>
<path d="M18.1558 6.54826C18.1087 6.05249 17.6923 5.67383 17.1943 5.67383H14.2427C13.7447 5.67383 13.3283 6.05249 13.2812 6.54826C13.2273 7.11523 13.6731 7.60551 14.2427 7.60551H17.1943C17.7638 7.60551 18.2097 7.11523 18.1558 6.54826Z" fill="#A29213"/>
<path d="M13.1224 11.487C13.3164 11.1724 13.5626 10.9256 13.8361 10.7328C14.3852 10.3499 15.0468 10.1721 15.7179 10.1702C16.2225 10.1708 16.7204 10.2728 17.1691 10.4835C17.6168 10.6949 18.023 11.0151 18.3145 11.487C18.5219 11.8222 18.8509 12.0926 19.2451 12.0926H20.6905C22.5414 12.0926 23.8994 10.3528 23.4499 8.55731L22.9955 6.74191C22.8241 6.05862 22.3385 5.59668 21.7904 5.59668H21.5325C20.1667 5.59668 19.0976 6.77249 19.227 8.13211C19.2615 8.49416 18.9768 8.80729 18.6131 8.80729H13.7571C12.8924 8.80729 12.2154 8.06282 12.2974 7.20198C12.3794 6.34115 11.7025 5.59668 10.8377 5.59668H9.64551C9.09841 5.59668 8.61282 6.05862 8.44147 6.74191L7.98694 8.55765C7.53752 10.353 8.8953 12.0926 10.746 12.0926H12.1918C12.586 12.0926 12.9151 11.8222 13.1224 11.487Z" fill="#A29213"/>
<path d="M14.1646 13.7176C14.5357 13.988 15.1028 14.1684 15.718 14.1665C16.18 14.1671 16.6144 14.0683 16.9591 13.9017C17.3436 13.7201 17.1453 13.293 16.7201 13.293H14.3531C14.0915 13.293 13.9524 13.5647 14.1646 13.7176Z" fill="#A29213"/>
<path d="M15.7182 11.3711C15.3103 11.3705 14.9089 11.4569 14.5757 11.6135C14.2859 11.7489 14.4232 12.0923 14.7431 12.0923H17.0502C17.2284 12.0923 17.3149 11.8941 17.1694 11.7914C16.7955 11.5264 16.2626 11.3692 15.7182 11.3711Z" fill="#A29213"/>
<path d="M25.336 16.0942C24.9239 14.4478 23.4445 13.293 21.7474 13.293H19.4176C18.9799 13.293 18.624 13.6205 18.4082 14.0012C18.2274 14.3208 17.9869 14.5713 17.7115 14.7697C17.1606 15.1645 16.4648 15.3653 15.7179 15.3671C15.1585 15.3665 14.6275 15.2514 14.1636 15.0295C13.7026 14.8064 13.3003 14.4793 13.0287 14.0012C12.8115 13.6211 12.4569 13.293 12.0192 13.293H9.68973C7.99244 13.293 6.51285 14.4479 6.10077 16.0944L5.23247 19.5637C5.10556 20.0717 5.17095 20.6281 5.40945 21.0602C5.648 21.493 6.03042 21.7492 6.4365 21.7492H10.0014C11.0276 21.7492 11.8855 20.9689 11.9826 19.9474C12.0798 18.9258 12.9377 18.1456 13.9639 18.1456H17.4728C18.499 18.1456 19.357 18.9258 19.4541 19.9474C19.5513 20.9689 20.4092 21.7492 21.4354 21.7492H25.0003C25.4073 21.7492 25.7887 21.493 26.0264 21.0602C26.2649 20.6281 26.3312 20.0717 26.2043 19.5637L25.336 16.0942Z" fill="#A29213"/>
</svg>
