<?xml version="1.0" encoding="UTF-8"?>
<svg id="Layer_1" data-name="Layer 1" xmlns="http://www.w3.org/2000/svg" viewBox="0 0 605.3 980.32">
  <defs>
    <style>
      .cls-1 {
        fill: #fff;
        stroke-width: 0px;
      }

      .cls-2 {
        fill: none;
        stroke: #000;
        stroke-miterlimit: 10;
        stroke-width: 2px;
      }
    </style>
  </defs>
  <path class="cls-1" d="m303.35,29.69c-1.15,1.2-2.01,2.2-2.98,3.1-6.06,5.63-11.68,11.88-18.33,16.69-10.41,7.53-22.12,10.31-34.72,5.41-8.02-3.12-14.05-8.81-19.1-15.53-2.11-2.8-4.37-3.56-7.73-3.19-11.56,1.29-22.32,4.97-32.81,9.84-20.73,9.62-38.69,23.43-56.87,36.95-20.11,14.97-40.11,30.11-60.6,44.54-13.13,9.25-27.62,16.2-43.07,20.91-13.43,4.09-11.01,1.06-11.02,14.12-.08,79.56-.12,159.13-.05,238.69.03,32.82.46,65.63.54,98.45.04,15.99-.42,31.98-.46,47.97-.07,23.58.02,47.16.06,70.74.1,68.07.19,136.14.35,204.21.02,7.17,2.95,13.23,8.24,18,9.28,8.35,21.09,11.72,32.51,15.46,29.85,9.77,60.01,18.6,89.81,28.55,27.05,9.03,54.03,18.37,80.57,28.78,25.93,10.17,50.7,22.91,72.6,40.49,2.5,2.01,3.99,1.52,6.16-.31,14.55-12.24,30.7-22.02,47.92-29.91,14.12-6.47,28.42-12.63,42.92-18.21,15.5-5.97,31.26-11.27,47.01-16.54,17.03-5.7,34.2-10.94,51.26-16.55,16.06-5.28,32.14-10.51,48.03-16.25,10.91-3.94,21.81-8.12,32.16-13.31,9.12-4.57,13.53-12.57,13.52-23.32-.1-97.11.07-194.23.06-291.34-.01-123.89-.13-247.77-.11-371.66,0-3.75-1.32-5.05-4.8-6.2-10.27-3.41-20.75-6.6-30.42-11.36-23.07-11.34-42.57-28.03-62.99-43.37-19.07-14.33-38.28-28.53-58.07-41.83-13.47-9.06-28.58-15.02-44.91-17.31-4.51-.63-8.09-.4-10.91,4.02-1.99,3.11-4.94,5.75-7.86,8.11-9.77,7.89-20.57,11.04-32.99,6.88-9.14-3.07-16.63-8.47-23.22-15.29-3.22-3.34-6.33-6.79-9.71-10.42Z"/>
  <path class="cls-2" d="m303.39,5.54c-1.2,1.26-2.12,2.32-3.13,3.26-6.38,5.92-12.29,12.5-19.29,17.57-10.96,7.92-23.28,10.85-36.53,5.69-8.43-3.28-14.79-9.27-20.1-16.34-2.22-2.95-4.6-3.75-8.13-3.35-12.16,1.36-23.48,5.23-34.53,10.35-21.81,10.12-40.71,24.65-59.84,38.88-21.16,15.75-42.2,31.68-63.76,46.87-13.81,9.73-29.06,17.05-45.31,22-14.13,4.31-11.58,1.11-11.6,14.86-.08,83.72-.13,167.43-.06,251.15.03,34.53.48,69.05.56,103.58.04,16.82-.44,33.65-.49,50.47-.07,24.81.03,49.62.06,74.43.11,71.62.2,143.24.36,214.86.02,7.54,3.1,13.92,8.67,18.94,9.77,8.78,22.19,12.33,34.2,16.27,31.41,10.28,63.15,19.57,94.49,30.04,28.46,9.5,56.85,19.33,84.77,30.28,27.29,10.7,53.34,24.1,76.39,42.6,2.63,2.11,4.2,1.6,6.49-.32,15.31-12.88,32.3-23.17,50.42-31.47,14.86-6.81,29.91-13.29,45.16-19.16,16.31-6.28,32.89-11.85,49.47-17.4,17.91-6,35.99-11.52,53.93-17.41,16.9-5.55,33.82-11.05,50.54-17.1,11.48-4.15,22.95-8.55,33.84-14,9.59-4.8,14.24-13.23,14.23-24.53-.11-102.18.08-204.36.07-306.54-.01-130.35-.14-260.7-.11-391.06,0-3.94-1.39-5.31-5.05-6.52-10.81-3.58-21.83-6.95-32.01-11.95-24.27-11.93-44.8-29.49-66.28-45.63-20.07-15.07-40.28-30.01-61.1-44.01-14.17-9.53-30.07-15.8-47.25-18.22-4.75-.67-8.51-.42-11.48,4.22-2.09,3.28-5.2,6.05-8.27,8.53-10.28,8.3-21.65,11.62-34.72,7.24-9.62-3.23-17.49-8.91-24.43-16.09-3.39-3.51-6.66-7.14-10.21-10.97Z"/>
</svg>