<?xml version="1.0" encoding="UTF-8"?>
<svg id="Layer_1" data-name="Layer 1" xmlns="http://www.w3.org/2000/svg" viewBox="0 0 512 512">
  <defs>
    <style>
      .cls-1, .cls-2 {
        stroke-width: 0px;
      }

      .cls-2 {
        fill: #fff;
      }
    </style>
  </defs>
  <path class="cls-1" d="m0,272c0-10.67,0-21.33,0-32,1.12-8.56,1.96-17.16,3.4-25.66,9.05-53.25,32.42-99.33,70.35-137.77C112.04,37.75,158.12,13.39,211.91,3.93,221.22,2.3,230.63,1.29,240,0c10.67,0,21.33,0,32,0,8.72,1.14,17.49,1.98,26.14,3.46,48.08,8.22,90.63,28.31,127.06,60.73,44.54,39.64,72.4,88.87,82.87,147.7,1.66,9.31,2.64,18.73,3.93,28.11v32c-.28,1.29-.73,2.56-.83,3.86-2.98,39.15-14.13,75.85-34.45,109.4-40.6,67.03-99.45,108.28-176.65,122.82-9.28,1.75-18.71,2.63-28.08,3.92h-32c-6.25-.77-12.51-1.44-18.73-2.33-50.95-7.3-95.97-27.7-134.45-61.88C42.37,408.3,14.61,359.19,3.99,300.6,2.27,291.14,1.31,281.54,0,272Zm234.75,5.25c0,2.92,0,4.91,0,6.9,0,27.49.06,54.98-.03,82.47-.03,9.87,4.1,17.12,13.14,21.03,13.97,6.04,29.18-4.16,29.3-19.81.22-28.15.07-56.31.08-84.47,0-1.91,0-3.83,0-6.12,2.83,0,4.81,0,6.79,0,27.66,0,55.31.04,82.97-.03,9.98-.03,17.55-5.03,20.84-13.43,5.56-14.17-4.63-28.89-20.39-28.99-27.99-.17-55.98-.05-83.97-.05-1.93,0-3.85,0-6.24,0,0-2.73,0-4.7,0-6.67,0-27.66-.03-55.31.01-82.97.02-9.65-4.1-16.76-12.92-20.67-14.13-6.26-29.43,4.02-29.53,19.96-.18,27.99-.06,55.98-.06,83.97,0,1.94,0,3.88,0,6.38-2.63,0-4.58,0-6.53,0-27.66,0-55.31.05-82.97-.02-9.88-.03-17.1,4.19-20.95,13.25-5.96,14,4.3,29.09,19.98,29.2,27.99.21,55.98.07,83.97.07,1.95,0,3.9,0,6.51,0Z"/>
  <path class="cls-2" d="m234.75,277.25c-2.61,0-4.56,0-6.51,0-27.99,0-55.98.13-83.97-.07-15.68-.12-25.94-15.2-19.98-29.2,3.85-9.06,11.07-13.27,20.95-13.25,27.66.07,55.31.02,82.97.02,1.95,0,3.91,0,6.53,0,0-2.5,0-4.44,0-6.38,0-27.99-.12-55.98.06-83.97.1-15.94,15.41-26.22,29.53-19.96,8.82,3.91,12.93,11.02,12.92,20.67-.05,27.66-.01,55.31-.01,82.97,0,1.97,0,3.94,0,6.67,2.39,0,4.31,0,6.24,0,27.99,0,55.98-.11,83.97.05,15.76.09,25.96,14.81,20.39,28.99-3.3,8.4-10.87,13.41-20.84,13.43-27.66.07-55.31.03-82.97.03-1.98,0-3.95,0-6.79,0,0,2.29,0,4.21,0,6.12,0,28.16.14,56.31-.08,84.47-.12,15.65-15.33,25.85-29.3,19.81-9.04-3.91-13.17-11.16-13.14-21.03.08-27.49.03-54.98.03-82.47,0-1.99,0-3.97,0-6.9Z"/>
</svg>