<svg width="30" height="38" viewBox="0 0 30 38" fill="none" xmlns="http://www.w3.org/2000/svg">
<path d="M14.5742 4.68583L18.3145 0H21.9772L16.4187 7.05602L14.5742 4.68583Z" fill="#9B8C12"/>
<path d="M18.2752 9.68437L25.9836 -6.10352e-05H21.9765L16.418 7.05596L18.2752 9.68437Z" fill="white"/>
<path d="M18.2754 9.68437L25.9839 -6.10352e-05H29.6896L21.6318 10.1583C21.6318 10.1583 21.5027 10.0506 21.0826 10.0506H18.7072L18.2754 9.68437Z" fill="#9B8C12"/>
<path d="M22.4068 16.3973V11.0473C22.4068 10.4777 21.9452 10.0162 21.3756 10.0162H8.22982C7.70683 10.0162 7.28223 10.4411 7.28223 10.9648V16.3963H7.28326L9.26302 15.0576C9.26302 15.0576 9.26406 15.0576 9.26475 15.0565V11.9552H20.4246V15.0576L22.4068 16.3973Z" fill="#AC6C46"/>
<path d="M14.8442 37.2823C21.3677 37.2823 26.6561 31.9939 26.6561 25.4704C26.6561 18.9468 21.3677 13.6584 14.8442 13.6584C8.32061 13.6584 3.03223 18.9468 3.03223 25.4704C3.03223 31.9939 8.32061 37.2823 14.8442 37.2823Z" fill="#AC6C46"/>
<path d="M14.8445 34.6908C19.9368 34.6908 24.065 30.5627 24.065 25.4703C24.065 20.378 19.9368 16.2499 14.8445 16.2499C9.75217 16.2499 5.62402 20.378 5.62402 25.4703C5.62402 30.5627 9.75217 34.6908 14.8445 34.6908Z" fill="#8E4B28"/>
<path d="M0 0H3.62605L12.9256 11.9552H9.25706L0 0Z" fill="#9B8C12"/>
<path d="M7.55063 -6.10352e-05H3.62598L12.9255 11.9551H16.9171L7.55063 -6.10352e-05Z" fill="white"/>
<path d="M16.9173 11.9551H20.5033L11.134 -6.10352e-05H7.55078L16.9173 11.9551Z" fill="#9B8C12"/>
<path d="M7.28251 30.7469C7.28251 30.7469 3.57672 25.9153 7.18896 20.3302C7.18896 20.3302 10.2689 15.3223 16.6348 16.4235C16.6348 16.4235 19.1925 16.8903 21.2016 18.791C21.2016 18.791 17.8686 15.5578 12.6898 16.8143C12.6263 16.8298 12.5624 16.845 12.4989 16.8595C12.0743 16.9555 9.60644 17.6218 7.5718 20.4863C7.5718 20.4863 4.38899 24.7189 7.28251 30.7469Z" fill="#D4946E"/>
<path d="M12.4338 26.4744H9.30176V27.0761H12.4338V26.4744Z" fill="white"/>
<path d="M20.7141 26.4746H17.582V27.0763H20.7141V26.4746Z" fill="white"/>
<path d="M11.8138 29.3057H9.30176V31.0217H9.83234V29.8715H11.8138V29.305V29.3057Z" fill="white"/>
<path d="M19.6348 27.6072H19.0684V31.0217H19.6348V27.6072Z" fill="white"/>
<path d="M13.6191 26.4746H14.1856V30.4556H16.1498V26.4746H16.725V30.4355C16.725 30.5146 16.715 30.5933 16.6898 30.6679C16.6432 30.8052 16.5358 30.9775 16.2917 30.9775H14.0714C14.0714 30.9775 13.8052 31.0034 13.6733 30.7044C13.6357 30.6192 13.6205 30.5256 13.6205 30.4321V26.4739L13.6191 26.4746Z" fill="white"/>
<path d="M14.865 24.8453C16.7509 24.8453 18.2798 23.3164 18.2798 21.4305C18.2798 19.5445 16.7509 18.0157 14.865 18.0157C12.979 18.0157 11.4502 19.5445 11.4502 21.4305C11.4502 23.3164 12.979 24.8453 14.865 24.8453Z" fill="#D4946E"/>
<path d="M13.7065 19.3667C13.9875 19.1199 14.3683 18.9963 14.8491 18.9963C15.1684 18.9963 15.4419 19.0516 15.6693 19.1624C15.8968 19.2732 16.0694 19.424 16.1865 19.6156C16.3035 19.8072 16.3622 20.0219 16.3622 20.2605C16.3622 20.5415 16.2921 20.7704 16.1516 20.9468C16.0111 21.1235 15.8471 21.2436 15.66 21.3075V21.333C15.9027 21.4138 16.0939 21.5481 16.2344 21.7352C16.3749 21.9227 16.445 22.1629 16.445 22.4567C16.445 22.7208 16.3843 22.9538 16.2631 23.1557C16.1419 23.358 15.9652 23.5165 15.7332 23.6314C15.5012 23.7464 15.2257 23.8037 14.9064 23.8037C14.3959 23.8037 13.9882 23.6784 13.6841 23.4271C13.3796 23.1761 13.2191 22.7974 13.2021 22.2906H14.2619C14.2661 22.4781 14.3192 22.6258 14.4214 22.7342C14.5236 22.8426 14.6724 22.8972 14.8685 22.8972C15.0345 22.8972 15.1633 22.8492 15.2547 22.7536C15.3462 22.6579 15.3921 22.5313 15.3921 22.3738C15.3921 22.1695 15.3272 22.0217 15.1974 21.9302C15.0676 21.8388 14.8602 21.7929 14.575 21.7929H14.3707V20.9057H14.575C14.7922 20.9057 14.9675 20.8684 15.1018 20.7938C15.2358 20.7193 15.3031 20.5864 15.3031 20.3948C15.3031 20.2415 15.2606 20.1224 15.1753 20.0371C15.0901 19.9522 14.9731 19.9094 14.8243 19.9094C14.6624 19.9094 14.5422 19.9584 14.4635 20.0561C14.3848 20.1542 14.3389 20.2753 14.3261 20.42H13.2601C13.2771 19.9646 13.4262 19.6136 13.7068 19.3667H13.7065Z" fill="white"/>
</svg>
