<svg width="26" height="43" viewBox="0 0 26 43" fill="none" xmlns="http://www.w3.org/2000/svg">
<g clip-path="url(#clip0_937_1329)">
<path d="M8.66399 25.0384L5.95779 23.1098C5.44227 22.7389 4.94158 22.3495 4.40627 22.0133C4.05801 21.7884 3.67966 21.614 3.2825 21.4953C3.00187 21.4161 2.91162 21.3209 2.91162 21.0366C2.91904 14.1135 2.9211 7.19035 2.9178 0.267232C2.9178 0.19182 2.92769 0.116407 2.93635 0.00390625H19.7385V23.1383H16.0717C15.8509 22.0759 15.6291 21.0106 15.4066 19.9425C14.9405 17.6912 14.4893 15.4363 14.0059 13.1875C13.8357 12.362 13.3863 11.6203 12.7333 11.0873C12.0803 10.5544 11.2636 10.2626 10.4207 10.2613C8.68995 10.2613 7.13967 11.4505 6.85904 13.1838C6.73541 13.9787 6.87634 14.8416 7.02099 15.6563C7.5155 18.391 8.05946 21.1145 8.57375 23.8454C8.63803 24.1866 8.62938 24.5464 8.66399 25.0384Z" fill="#E21212"/>
<path d="M16.5761 24.6293C17.6492 24.6293 18.6036 24.6701 19.5518 24.617C20.3678 24.5712 21.1998 24.4451 21.8575 23.9024C21.9619 23.8007 22.0447 23.6789 22.101 23.5445C22.1573 23.41 22.1859 23.2656 22.1851 23.1198C22.1851 22.9307 21.8995 22.7292 21.7066 22.5771C21.6139 22.5054 21.4408 22.5351 21.2801 22.5165V18.3627C21.3011 18.3627 21.3432 18.3441 21.3543 18.3552C22.5906 19.6583 23.7403 21.0231 24.5773 22.629C25.4266 24.2597 25.5032 25.9348 24.7231 27.5741C24.1524 28.8249 23.4719 30.0226 22.6895 31.1531C21.5533 32.7393 21.0242 34.5084 20.7015 36.3788C20.6756 36.5284 20.6373 36.6768 20.5977 36.8598H20.1217C15.8096 36.8598 11.4987 36.8536 7.18787 36.8709C6.80586 36.8709 6.65998 36.7473 6.5413 36.4036C6.28168 35.6482 5.97014 34.9114 5.66602 34.1325C6.64638 33.9842 7.45985 33.5218 7.92592 32.5773C8.39199 31.6328 8.31164 30.6969 7.77262 29.7685C7.90614 29.6918 8.01988 29.6226 8.1435 29.5571C8.43321 29.4072 8.69039 29.2015 8.90024 28.9517C9.11008 28.702 9.26843 28.4132 9.36618 28.102C9.61343 27.265 9.82854 26.4133 10.0288 25.5615C10.3268 24.2955 9.94352 23.079 9.7111 21.8527C9.24131 19.3801 8.75422 16.915 8.29062 14.4437C8.04337 13.1308 8.78513 12.0367 10.0535 11.7882C11.2082 11.5619 12.3011 12.3111 12.5681 13.5684C13.2802 16.9348 13.9898 20.3011 14.6587 23.6749C15.0023 25.4131 15.9951 26.6234 17.5021 27.4715C17.983 27.7435 18.4144 27.6545 18.6395 27.2737C18.8768 26.8694 18.7235 26.4689 18.2166 26.1759C17.5435 25.8133 16.9777 25.2799 16.5761 24.6293Z" fill="#E0AC69"/>
<path d="M13.7401 38.3375C16.3981 38.3375 19.0561 38.3462 21.7141 38.3301C22.1517 38.3301 22.3136 38.4537 22.3025 38.905C22.2761 40.0786 22.2761 41.2527 22.3025 42.4271C22.3124 42.8833 22.1443 43.0008 21.7091 42.9995C16.3775 42.9872 11.0459 42.9872 5.71423 42.9995C5.29266 42.9995 5.13565 42.8759 5.14183 42.4444C5.15996 41.2551 5.15996 40.0654 5.14183 38.8753C5.13442 38.4414 5.30502 38.3276 5.71917 38.3301C8.39323 38.345 11.066 38.3375 13.7401 38.3375Z" fill="white"/>
<path d="M2.69265 22.8184C2.96958 22.942 3.27247 23.0285 3.51725 23.1979C4.82028 24.1045 6.11424 25.0268 7.39914 25.9647C8.10876 26.479 8.26453 27.2628 7.81205 27.9007C7.35958 28.5386 6.55477 28.6424 5.84886 28.1479C4.53594 27.2265 3.2292 26.2964 1.92864 25.3577C1.3785 24.9608 1.18688 24.3921 1.37479 23.8197C1.47096 23.5413 1.64746 23.2976 1.882 23.1194C2.11655 22.9412 2.39863 22.8364 2.69265 22.8184Z" fill="#E0AC69"/>
<path d="M0 28.2743C0.0105074 28.0547 0.0809257 27.8422 0.20362 27.6598C0.326314 27.4774 0.496602 27.332 0.696021 27.2395C1.20907 26.9737 1.71224 27.0318 2.17955 27.3632C2.96705 27.9207 3.7595 28.4894 4.54948 29.0531C5.07737 29.424 5.6102 29.7949 6.12944 30.1819C6.7859 30.669 6.93054 31.4787 6.48795 32.0956C6.38378 32.2402 6.2518 32.3625 6.09975 32.4553C5.94771 32.5482 5.77865 32.6098 5.60249 32.6366C5.42632 32.6633 5.2466 32.6545 5.07385 32.6109C4.9011 32.5673 4.7388 32.4896 4.59646 32.3824C3.24521 31.4379 1.9088 30.4724 0.569921 29.5093C0.197803 29.2423 0 28.8726 0 28.2743Z" fill="#E0AC69"/>
</g>
<defs>
<clipPath id="clip0_937_1329">
<rect width="25.2632" height="43" fill="white"/>
</clipPath>
</defs>
</svg>
