<?xml version="1.0" encoding="UTF-8"?>
<svg id="Layer_1" data-name="Layer 1" xmlns="http://www.w3.org/2000/svg" viewBox="0 0 100 100">
  <defs>
    <style>
      .cls-1 {
        stroke-width: 0px;
      }
    </style>
  </defs>
  <path class="cls-1" d="m18.18,152.24c-1.29-6.91-1.33-13.96-.55-20.95,1.59-14.17-4.49-26.9-9.47-39.87-6.97-18.18-2.05-35.27,13.5-47.14,8.64-6.59,18.4-10.71,29.2-12.09,11.11-1.43,18.06,4.18,19.32,15.36,1.49,13.25-3.14,24.96-10.46,35.95-.62.94-1.31,1.83-2,2.72-7.83,10.24-8.88,20.91-3.64,32.67,4.17,9.36,7.4,19.13,10.92,28.77.61,1.66.67,3.55.8,5.34,1.01,14.45-3.88,22.31-15.36,24.77-13.93,2.99-25.34-2.43-29.71-15.29-1.13-3.32-1.91-6.76-2.56-10.24Z"/>
  <path class="cls-1" d="m53.7,19.07c-.73-3.47-.63-7.1.58-10.42,2.2-6.07,6.92-9.12,13.17-7.75,2.29.5,4.75,1.96,6.31,3.71,4.58,5.15,5.53,17.17,1.13,22.39-2.24,2.66-6.44,4.42-10.02,5.03-4.15.7-7.78-1.86-9.33-5.97-.84-2.24-1.35-4.61-1.85-6.98Z"/>
  <path class="cls-1" d="m20.95,25.15c0-5.13,2.52-8.05,6.79-7.91,4.28.14,7.37,4.53,7.22,10.41-.11,4.34-2.05,7.35-6.68,7.69-4.32.31-7.33-4.03-7.32-10.18Z"/>
  <path class="cls-1" d="m49.94,19.89c0,5.38-2.53,8.5-6.89,8.52-4.38.01-6.81-3.22-6.84-9.14-.03-5.51,2.36-8.77,6.52-8.89,4.47-.12,7.22,3.5,7.22,9.51Z"/>
  <path class="cls-1" d="m8.89,33.31c.06-2.95,1.35-5.91,5.74-5.98,3.5-.06,6.21,3.96,6.08,8.79-.1,3.64-1.58,6.28-5.63,6.5-3.76.2-6.21-3.2-6.2-9.31Z"/>
  <path class="cls-1" d="m10.21,44.52c.79,2.84-.1,5.95-2.48,7.68-.59.43-1.21.73-1.85.78-4.46.32-5.21-3.62-5.43-7.15-.2-3.24.97-5.91,4.73-5.81,3.12.08,4.28,1.84,5.03,4.51Z"/>
  <g>
    <path class="cls-1" d="m146.7,191.67c1.29-6.91,1.33-13.96.55-20.95-1.59-14.17,4.49-26.9,9.47-39.87,6.97-18.18,2.05-35.27-13.5-47.14-8.64-6.59-18.4-10.71-29.2-12.09-11.11-1.43-18.06,4.18-19.32,15.36-1.56,13.81,3.55,25.95,11.41,37.34,8.77,10.65,10.16,21.73,4.69,33.99-4.17,9.36-7.4,19.13-10.92,28.77-.61,1.66-.67,3.55-.8,5.34-1.01,14.45,3.88,22.31,15.36,24.77,13.93,2.99,25.34-2.43,29.71-15.29,1.13-3.32,1.91-6.76,2.56-10.24Z"/>
    <path class="cls-1" d="m111.17,58.5c.73-3.47.63-7.1-.58-10.42-2.2-6.07-6.92-9.12-13.17-7.75-2.29.5-4.75,1.96-6.31,3.71-4.58,5.15-5.53,17.17-1.13,22.39,2.24,2.66,6.44,4.42,10.02,5.03,4.15.7,7.78-1.86,9.33-5.97.84-2.24,1.35-4.61,1.85-6.98Z"/>
    <path class="cls-1" d="m143.93,64.58c0-5.13-2.52-8.05-6.79-7.91-4.28.14-7.37,4.53-7.22,10.41.11,4.34,2.05,7.35,6.68,7.69,4.32.31,7.33-4.03,7.32-10.18Z"/>
    <path class="cls-1" d="m114.93,59.32c0,5.38,2.53,8.5,6.89,8.52,4.38.01,6.81-3.22,6.84-9.14.03-5.51-2.36-8.77-6.52-8.89-4.47-.12-7.22,3.5-7.22,9.51Z"/>
    <path class="cls-1" d="m155.99,72.74c-.06-2.95-1.35-5.91-5.74-5.98-3.5-.06-6.21,3.96-6.08,8.79.1,3.64,1.58,6.28,5.63,6.5,3.76.2,6.21-3.2,6.2-9.31Z"/>
    <path class="cls-1" d="m154.66,83.94c-.79,2.84.1,5.95,2.48,7.68.59.43,1.21.73,1.85.78,4.46.32,5.21-3.62,5.43-7.15.2-3.24-.97-5.91-4.73-5.81-3.12.08-4.28,1.84-5.03,4.51Z"/>
  </g>
</svg>