<svg width="30" height="38" viewBox="0 0 30 38" fill="none" xmlns="http://www.w3.org/2000/svg">
<path d="M14.5742 4.68583L18.3145 0H21.9772L16.4187 7.05602L14.5742 4.68583Z" fill="#9B8C12"/>
<path d="M18.2752 9.68443L25.9836 0H21.9765L16.418 7.05602L18.2752 9.68443Z" fill="white"/>
<path d="M18.2754 9.68443L25.9839 0H29.6896L21.6318 10.1584C21.6318 10.1584 21.5027 10.0507 21.0826 10.0507H18.7072L18.2754 9.68443Z" fill="#9B8C12"/>
<path d="M22.4068 16.3973V11.0473C22.4068 10.4777 21.9452 10.0162 21.3756 10.0162H8.22982C7.70683 10.0162 7.28223 10.4411 7.28223 10.9648V16.3963H7.28326L9.26302 15.0576C9.26302 15.0576 9.26406 15.0576 9.26475 15.0565V11.9552H20.4246V15.0576L22.4068 16.3973Z" fill="#C1C1C1"/>
<path d="M14.8442 37.2823C21.3677 37.2823 26.6561 31.9939 26.6561 25.4704C26.6561 18.9468 21.3677 13.6584 14.8442 13.6584C8.32061 13.6584 3.03223 18.9468 3.03223 25.4704C3.03223 31.9939 8.32061 37.2823 14.8442 37.2823Z" fill="#C1C1C1"/>
<path d="M14.8445 34.6908C19.9368 34.6908 24.065 30.5627 24.065 25.4703C24.065 20.378 19.9368 16.2499 14.8445 16.2499C9.75217 16.2499 5.62402 20.378 5.62402 25.4703C5.62402 30.5627 9.75217 34.6908 14.8445 34.6908Z" fill="#919495"/>
<path d="M0 0H3.62605L12.9256 11.9552H9.25706L0 0Z" fill="#9B8C12"/>
<path d="M7.55063 0H3.62598L12.9255 11.9552H16.9171L7.55063 0Z" fill="white"/>
<path d="M16.9173 11.9552H20.5033L11.134 0H7.55078L16.9173 11.9552Z" fill="#9B8C12"/>
<path d="M7.28251 30.7469C7.28251 30.7469 3.57672 25.9153 7.18896 20.3302C7.18896 20.3302 10.2689 15.3223 16.6348 16.4235C16.6348 16.4235 19.1925 16.8903 21.2016 18.791C21.2016 18.791 17.8686 15.5578 12.6898 16.8143C12.6263 16.8298 12.5624 16.845 12.4989 16.8595C12.0743 16.9555 9.60644 17.6218 7.5718 20.4863C7.5718 20.4863 4.38899 24.7189 7.28251 30.7469Z" fill="#D7D9DB"/>
<path d="M12.4338 26.4745H9.30176V27.0762H12.4338V26.4745Z" fill="white"/>
<path d="M20.7131 26.4746H17.5811V27.0763H20.7131V26.4746Z" fill="white"/>
<path d="M11.8138 29.3057H9.30176V31.0217H9.83234V29.8715H11.8138V29.305V29.3057Z" fill="white"/>
<path d="M19.6348 27.6072H19.0684V31.0217H19.6348V27.6072Z" fill="white"/>
<path d="M13.6191 26.4746H14.1856V30.4555H16.1498V26.4746H16.725V30.4355C16.725 30.5145 16.715 30.5932 16.6898 30.6678C16.6432 30.8052 16.5358 30.9774 16.2917 30.9774H14.0714C14.0714 30.9774 13.8052 31.0033 13.6733 30.7044C13.6357 30.6191 13.6205 30.5256 13.6205 30.432V26.4739L13.6191 26.4746Z" fill="white"/>
<path d="M14.865 24.8453C16.7509 24.8453 18.2798 23.3164 18.2798 21.4305C18.2798 19.5445 16.7509 18.0157 14.865 18.0157C12.979 18.0157 11.4502 19.5445 11.4502 21.4305C11.4502 23.3164 12.979 24.8453 14.865 24.8453Z" fill="#F2F2F4"/>
<path d="M13.4032 22.7778C13.8292 22.4257 14.1647 22.1367 14.4105 21.9106C14.6559 21.6845 14.8638 21.4477 15.0333 21.1998C15.2028 20.952 15.2877 20.711 15.2877 20.4763C15.2877 20.2982 15.2463 20.159 15.1637 20.0589C15.0812 19.9592 14.9573 19.9091 14.7923 19.9091C14.6273 19.9091 14.4978 19.9709 14.4043 20.0948C14.3107 20.2188 14.2641 20.3938 14.2641 20.6196H13.1885C13.1971 20.2502 13.2765 19.9416 13.4263 19.6937C13.5761 19.4458 13.7739 19.2636 14.0197 19.1462C14.2652 19.0288 14.5379 18.9702 14.8379 18.9702C15.355 18.9702 15.7451 19.1027 16.0081 19.3678C16.2712 19.633 16.4027 19.9785 16.4027 20.4045C16.4027 20.8695 16.2439 21.301 15.9267 21.6987C15.6094 22.0963 15.2052 22.4844 14.7139 22.8624H16.4742V23.7685H13.2016V22.9407C13.3493 22.8234 13.4167 22.7692 13.4035 22.7778H13.4032Z" fill="#919495"/>
</svg>
