<?xml version="1.0" encoding="UTF-8"?>
<svg id="Layer_1" data-name="Layer 1" xmlns="http://www.w3.org/2000/svg" viewBox="0 0 343.96 302.3">
  <defs>
    <style>
      .cls-1 {
        stroke-width: 0px;
      }
    </style>
  </defs>
  <path class="cls-1" d="m343.96,167.37c-3.12,11.4-6.4,22.76-9.3,34.21-1.94,7.65-6.45,12.16-14.14,13.89-10.9,2.46-21.77,5.04-32.58,7.85-2.43.63-4.98,2.04-6.76,3.8-22.02,21.82-43.91,43.77-65.82,65.69-8.59,8.59-18.71,11.93-30.29,7.58-18.75-7.04-26.55-29.55-12.96-45.44,1.09-1.27,2.25-2.49,3.43-3.68,21.84-21.84,43.7-43.66,65.48-65.57,1.33-1.33,2.39-3.25,2.85-5.07,2.85-11.26,5.58-22.56,8.18-33.88,1.7-7.38,5.95-11.92,13.38-13.79,10.51-2.65,20.94-5.59,31.4-8.43,5.56-1.51,10.84-1.42,15.55,2.43,3.29,2.69,3.51,4.8.54,7.82-5.41,5.51-11.04,10.81-16.32,16.44-7.5,7.99-3.98,20.54,6.43,23.21,5.45,1.4,10.12-.3,14.05-4.26,4.89-4.92,9.81-9.81,14.72-14.71,4.18-4.16,6.53-3.95,9.69,1.1,1.05,1.67,1.66,3.61,2.48,5.43v5.37Zm-128.79,91.63c2.21-1.5,4.13-2.42,5.56-3.84,10.18-10.05,20.27-20.19,30.38-30.32.78-.78,1.57-1.62,2.12-2.57,1.46-2.51,1.23-5.01-.79-7.07-2.12-2.17-4.71-2.45-7.32-.87-1.03.62-1.92,1.53-2.78,2.4-9.89,9.86-19.78,19.74-29.65,29.63-.86.87-2.1,1.73-2.33,2.78-.42,1.93-.87,4.31-.1,5.93.76,1.6,3.01,2.5,4.91,3.93Zm-7.51,8.83c.07-4.31-3.44-7.92-7.75-7.98-4.34-.06-7.91,3.4-7.98,7.74-.08,4.32,3.41,7.91,7.74,7.98,4.33.06,7.93-3.42,7.99-7.74Z"/>
  <path class="cls-1" d="m152.05,287.18c-7.84,0-15.71.61-23.44-.14-11.5-1.11-20.43-10.66-20.14-22.21.18-7.18-1.92-10.75-8.87-12.2-3.31-.69-6.58-4.05-9.47-3.61-2.86.44-5.17,4.2-7.81,6.4-8.54,7.11-21.25,7.4-29.63.03-6.87-6.05-13.42-12.54-19.55-19.34-8.99-9.97-8.27-23.21,1.21-33.24,4.9-5.19,4.87-5.17,1.96-11.61-1.06-2.34-2.2-4.69-2.8-7.16-.88-3.63-2.71-4.74-6.54-4.74-4.36,0-9.08-.53-13.02-2.25-9-3.93-13.48-11.49-13.77-21.26-.24-7.94-.22-15.89-.01-23.83.35-13.65,10.39-23.43,24.06-23.75,7.56-.18,7.51-.2,10.23-7.35,1.11-2.92,2.39-5.79,3.84-8.55.94-1.81.48-2.85-.75-4.35-3.23-3.93-7.09-7.73-8.97-12.3-3.85-9.34-1.37-18.03,5.58-25.28,5.27-5.49,10.64-10.88,16.14-16.14,10.31-9.86,24.1-9.7,34.54.25,5.13,4.89,5.1,4.83,11.64,1.89,3.15-1.42,6.49-2.43,9.61-3.9.93-.44,1.77-1.75,1.99-2.8.33-1.61.07-3.34.1-5.02.24-13.27,8.54-23.04,21.72-24.12,9.33-.77,18.82-.74,28.15.06,12.59,1.08,20.95,10.82,21.38,23.45q.27,7.83,7.72,10.63c1.67.63,3.29,1.39,4.91,2.14,5.64,2.62,5.45,2.41,10.06-1.6,3.07-2.67,6.49-5.3,10.23-6.74,8.38-3.22,16.48-1.69,23.15,4.33,6.55,5.91,12.93,12.09,18.79,18.68,9.07,10.21,8.46,23.2-.96,33.25q-5.03,5.36-2.01,11.9c.88,1.93,1.66,3.91,2.4,5.89,2.11,5.67,2.09,5.71,8.02,5.69,5.49-.03,10.69,1,15.24,4.24,1.6,1.14,3.01,2.56,4.96,4.24-8.34,2.24-16.02,4.49-23.79,6.34-12.07,2.87-19.08,10.28-21.67,22.38-2.13,9.94-4.62,19.8-7.19,29.63-.56,2.13-1.79,4.35-3.33,5.91-20.8,20.97-41.58,41.98-62.66,62.66-12.38,12.15-16.72,26.03-11.28,42.69.1.3.05.65.06.86Zm-72.07-143.23c.05,35.24,28.74,63.84,63.93,63.73,35.08-.11,63.6-28.63,63.69-63.69.09-35.09-28.69-63.92-63.82-63.93-35.18,0-63.85,28.7-63.8,63.89Z"/>
</svg>