<svg width="32" height="28" viewBox="0 0 32 28" fill="none" xmlns="http://www.w3.org/2000/svg">
<path d="M31.4111 15.7933L31.4058 15.8115C31.3141 16.129 31.2207 16.4457 31.1274 16.762C30.9412 17.3929 30.7556 18.0222 30.5852 18.6527C30.4964 18.9873 30.3423 19.2629 30.1159 19.4738C29.8897 19.6845 29.5984 19.8241 29.2455 19.8985C28.2827 20.1064 27.3224 20.3138 26.3712 20.5543L26.3692 20.5548L26.3692 20.5548C26.1764 20.6002 25.9672 20.707 25.8258 20.8401L25.8254 20.8405C24.3684 22.1999 22.9164 23.5686 21.4654 24.9364C20.982 25.3922 20.4987 25.8478 20.0153 26.3029C19.2276 27.0446 18.288 27.3372 17.2127 26.9619L17.2126 26.9618C16.3482 26.6588 15.7306 26.0178 15.4881 25.2726C15.2449 24.5248 15.3824 23.6797 16.0132 22.9851C16.0133 22.985 16.0133 22.985 16.0134 22.9849L16.1059 23.0689C16.2031 22.9608 16.3002 22.861 16.4062 22.7613L16.4068 22.7607C18.3317 20.9482 20.2654 19.1275 22.1902 17.3067L31.4111 15.7933ZM31.4111 15.7933L31.4107 15.7744L31.4019 15.3171L31.4013 15.2903L31.3899 15.2661C31.373 15.2302 31.3559 15.1921 31.3381 15.1527C31.2872 15.0392 31.2315 14.9153 31.1621 14.8043L31.1622 14.8042L31.1595 14.8002C31.0179 14.5919 30.8683 14.4349 30.6746 14.4136C30.481 14.3924 30.2998 14.5129 30.1139 14.688L29.4648 15.2992L28.8158 15.9103L28.8158 15.9103L28.8146 15.9114C28.497 16.2181 28.1335 16.3425 27.6946 16.2373C26.8669 16.0348 26.5981 15.1113 27.1885 14.5181C27.4685 14.2396 27.7553 13.9725 28.0438 13.7038C28.2374 13.5235 28.4318 13.3425 28.6255 13.1568C28.763 13.0272 28.8628 12.8859 28.8506 12.7232C28.8386 12.563 28.7212 12.4339 28.5715 12.3186L28.571 12.3181C28.1139 11.9702 27.6101 11.9672 27.0961 12.0968C26.7723 12.1781 26.4505 12.2612 26.1296 12.3441C25.528 12.4994 24.9292 12.654 24.3253 12.7948L24.3243 12.795C23.9809 12.878 23.7009 13.02 23.4861 13.2292C23.271 13.4386 23.1285 13.7082 23.049 14.0343C22.8196 14.9731 22.5815 15.9114 22.3258 16.8494L31.4111 15.7933ZM21.3796 24.8456C22.8306 23.4778 24.2829 22.1087 25.7401 20.7491L21.3796 24.8456ZM21.3796 24.8456C20.8961 25.3013 20.4129 25.7569 19.9296 26.2119M21.3796 24.8456L19.9296 26.2119M19.9296 26.2119C19.1702 26.927 18.2783 27.2014 17.2539 26.8439L19.9296 26.2119ZM23.171 20.2745L23.1706 20.2743L23.166 20.283C23.1332 20.3448 23.0789 20.3975 23.0052 20.4668C22.1138 21.3062 21.2226 22.1454 20.3226 22.9845C20.2658 23.0341 20.1996 23.0768 20.1188 23.1244C20.097 23.1373 20.074 23.1507 20.0498 23.1646C20.0071 23.1893 19.9611 23.2159 19.9134 23.2449C19.8903 23.2306 19.8676 23.2171 19.8458 23.2043C19.839 23.2003 19.8324 23.1964 19.8259 23.1926C19.789 23.1709 19.7558 23.1514 19.7251 23.1314C19.6491 23.0821 19.6164 23.0468 19.6051 23.0167L19.6023 23.0091L19.5985 23.002C19.5796 22.9664 19.5714 22.9115 19.5774 22.8342C19.5832 22.7584 19.6009 22.6777 19.6189 22.5973L19.6189 22.5973L19.6196 22.5937C19.6209 22.5872 19.628 22.5703 19.6622 22.5372C19.6782 22.5217 19.6965 22.506 19.7182 22.4875L19.7224 22.484C19.742 22.4673 19.7645 22.4481 19.7857 22.4282L19.7861 22.4278C20.3625 21.8796 20.9425 21.3353 21.5241 20.7894C21.8156 20.5159 22.1075 20.242 22.3995 19.967C22.4812 19.8901 22.5493 19.8269 22.6217 19.7858C22.7189 19.7332 22.8081 19.7146 22.887 19.7228C22.9649 19.731 23.0431 19.7664 23.118 19.8403C23.1907 19.9122 23.2248 19.983 23.2329 20.0491C23.2409 20.1148 23.2247 20.1901 23.171 20.2745ZM18.5581 23.5847L18.5582 23.5847C18.8872 23.5917 19.1316 23.8427 19.1247 24.1218C19.1177 24.4038 18.8636 24.6471 18.5371 24.6402C18.2179 24.6332 17.9724 24.3831 17.9794 24.103C17.9864 23.82 18.2415 23.5778 18.5581 23.5847ZM19.2496 24.1249C19.2585 23.7674 18.9494 23.468 18.5608 23.4597L18.5344 24.7652C18.9229 24.7735 19.2408 24.4824 19.2496 24.1249Z" fill="#CB997E" stroke="black" stroke-width="0.25"/>
<path d="M14.2885 26.1755H14.1635C13.9507 26.1755 13.734 26.1807 13.5156 26.1858C13.0346 26.1972 12.545 26.2088 12.0687 26.1663L12.0681 26.1663C10.9841 26.0646 10.1364 25.1755 10.165 24.1005L10.165 24.1002C10.1736 23.795 10.131 23.5928 10.0322 23.4538C9.93574 23.3179 9.769 23.2194 9.47336 23.1614L9.47196 23.1611C9.32744 23.1311 9.18351 23.052 9.06291 22.9857C9.04186 22.9741 9.02152 22.9629 9.00202 22.9525C8.85411 22.8732 8.75314 22.8341 8.67229 22.8477L8.66822 22.8484L8.66821 22.8483C8.58374 22.8598 8.49384 22.9231 8.3821 23.0337C8.34379 23.0717 8.30663 23.1112 8.26771 23.1526C8.25131 23.17 8.23459 23.1878 8.21734 23.2059C8.16095 23.2652 8.10055 23.3264 8.03669 23.3794L8.03608 23.3799C7.23558 24.0354 6.03662 24.0663 5.23937 23.3778L5.2392 23.3776C4.62147 22.8423 4.03921 22.2802 3.49255 21.6828C3.07135 21.224 2.87276 20.6861 2.8954 20.1439C2.91801 19.6027 3.16057 19.0683 3.60165 18.6131C3.71233 18.4979 3.789 18.418 3.84163 18.3513C3.89345 18.2857 3.91196 18.2451 3.91789 18.2113C3.92377 18.1779 3.92025 18.1347 3.89388 18.0581C3.867 17.9801 3.82203 17.8824 3.75667 17.741C3.65915 17.541 3.55589 17.3212 3.49899 17.0891M14.2885 26.1755L3.62025 17.0588M14.2885 26.1755V26.0505C14.2885 26.05 14.2885 26.0493 14.2885 26.0485C14.2887 26.0323 14.2892 25.9721 14.2458 25.9205M14.2885 26.1755L14.2458 25.9205M3.49899 17.0891C3.49894 17.0889 3.49889 17.0887 3.49884 17.0885L3.62025 17.0588M3.49899 17.0891C3.49903 17.0893 3.49908 17.0895 3.49913 17.0897L3.62025 17.0588M3.49899 17.0891C3.46285 16.9477 3.4145 16.8783 3.35704 16.8389C3.29608 16.7971 3.20244 16.7735 3.04144 16.7735C2.64303 16.7735 2.20478 16.7295 1.8347 16.5714M3.62025 17.0588C3.54011 16.7445 3.37982 16.6485 3.04144 16.6485C2.64963 16.6485 2.23111 16.6048 1.88382 16.4564M1.8347 16.5714C1.83478 16.5714 1.83486 16.5714 1.83494 16.5715L1.88382 16.4564M1.8347 16.5714C0.983827 16.2098 0.558084 15.4996 0.53002 14.6009L0.529999 14.6002C0.512137 13.9085 0.512135 13.208 0.529995 12.5162C0.558422 11.2485 1.51646 10.3533 2.79744 10.3166L2.79779 10.3166C2.96951 10.3122 3.08866 10.3089 3.17928 10.2977C3.2684 10.2867 3.31461 10.2694 3.34651 10.2468C3.37841 10.2242 3.40965 10.1866 3.44923 10.1071C3.48783 10.0296 3.52801 9.92605 3.58504 9.77897L3.59272 9.75916C3.69247 9.50136 3.81007 9.24426 3.93633 8.99671C3.96873 8.93319 3.96812 8.9031 3.96374 8.88412C3.95788 8.85876 3.93868 8.82412 3.88279 8.76091L3.88055 8.75837L3.88059 8.75834C3.81731 8.68273 3.75082 8.60748 3.68262 8.53028C3.67547 8.52218 3.66829 8.51406 3.6611 8.50591C3.58585 8.42069 3.509 8.33314 3.43553 8.24325C3.28898 8.06393 3.15133 7.86994 3.05995 7.65319C2.87652 7.22419 2.84197 6.80389 2.9389 6.40503C3.03552 6.00744 3.26074 5.6391 3.58432 5.30828L3.58454 5.30806C4.05678 4.82762 4.53023 4.35468 5.02202 3.89884C5.50179 3.44693 6.06852 3.22107 6.64111 3.22572C7.21352 3.23037 7.78153 3.46527 8.26479 3.91625L8.26521 3.91665C8.38043 4.02518 8.46024 4.09959 8.52671 4.15008C8.59169 4.19944 8.63275 4.21698 8.66803 4.22235C8.70402 4.22782 8.75032 4.22315 8.83092 4.19606C8.90912 4.16978 9.00583 4.12747 9.14259 4.06764L9.16237 4.05898L9.16319 4.05863C9.28939 4.0045 9.41738 3.95703 9.54147 3.911C9.56095 3.90378 9.58034 3.89658 9.59961 3.88941C9.743 3.83601 9.88104 3.78306 10.0137 3.72011L10.0174 3.71839L10.0174 3.71845C10.0273 3.71412 10.0512 3.6959 10.0775 3.65849C10.1025 3.62307 10.118 3.58683 10.1228 3.56426C10.1336 3.5071 10.136 3.44528 10.1349 3.37554C10.1345 3.3504 10.1335 3.32063 10.1325 3.28932C10.131 3.24362 10.1293 3.19465 10.1293 3.15212V3.1502L10.1293 3.1502C10.1386 2.54332 10.3369 2.01101 10.6937 1.61688C11.0509 1.22236 11.56 0.97403 12.1763 0.923647C13.0122 0.853162 13.8652 0.862042 14.6994 0.93239L14.6996 0.932403C15.8894 1.03423 16.6726 1.93702 16.7194 3.10345L16.7194 3.10357C16.7275 3.30995 16.7836 3.47665 16.8809 3.60811C16.9781 3.73951 17.1227 3.84413 17.3218 3.91596L1.88382 16.4564M1.8347 16.5714L1.88382 16.4564M14.2458 25.9205C14.0211 25.2234 14.0022 24.5909 14.1659 24.0089C14.3321 23.4177 14.6894 22.8688 15.2295 22.3521L15.2297 22.3519C17.1091 20.5443 18.9617 18.7107 20.8135 16.8778L20.8139 16.8774C20.8139 16.8773 20.814 16.8773 20.8141 16.8772C20.9662 16.7279 21.0823 16.5068 21.1402 16.3081L21.1409 16.3057C21.3726 15.4494 21.5959 14.5828 21.7835 13.7155M14.2458 25.9205L25.2678 10.8169L25.3377 10.7133C25.3379 10.7135 25.3382 10.7136 25.3385 10.7138C25.4165 10.7665 25.4883 10.8277 25.5593 10.8897C25.5695 10.8987 25.5798 10.9077 25.5901 10.9167C25.6526 10.9714 25.7165 11.0275 25.7902 11.0852L25.9889 11.2411L25.7445 11.3046C25.4998 11.3682 25.2597 11.4331 25.0225 11.4972C24.5485 11.6253 24.0861 11.7503 23.6218 11.8554M21.7835 13.7155C21.7835 13.7156 21.7835 13.7157 21.7835 13.7158L21.6614 13.6891L21.7835 13.7155ZM21.7835 13.7155C21.8953 13.2056 22.0997 12.8028 22.3995 12.4977C22.6991 12.1927 23.1015 11.9777 23.6218 11.8554M23.6218 11.8554C23.622 11.8553 23.6221 11.8553 23.6223 11.8553L23.5937 11.7336L23.6213 11.8555C23.6214 11.8554 23.6216 11.8554 23.6218 11.8554ZM8.65146 22.7245C8.80035 22.6993 8.96109 22.7873 9.12684 22.8781C9.24856 22.9447 9.37299 23.0129 9.49742 23.0387C10.1208 23.161 10.3078 23.4752 10.2899 24.1038C10.2632 25.1077 11.0558 25.9458 12.0798 26.0418L8.65146 22.7245ZM8.65146 22.7245C8.47642 22.7481 8.32593 22.9082 8.17502 23.0686M8.65146 22.7245L8.17502 23.0686M8.17502 23.0686C8.1033 23.1449 8.03148 23.2213 7.95689 23.2832L8.17502 23.0686ZM23.2019 9.95268L23.3196 9.91065C23.3195 9.91033 23.3194 9.91002 23.3193 9.9097C23.2559 9.73229 23.1832 9.55413 23.1012 9.38415C23.101 9.38384 23.1009 9.38354 23.1007 9.38323L22.9882 9.43762L23.2019 9.95268ZM23.256 8.48575C23.256 8.48574 23.2561 8.48573 23.2561 8.48572C23.2561 8.48564 23.2562 8.48556 23.2563 8.48549L23.1663 8.39876L23.256 8.48575ZM21.0202 16.2731C20.9668 16.4564 20.8599 16.6572 20.7264 16.7882L20.7261 16.7885C18.874 18.6216 17.0219 20.4548 15.1431 22.2618L21.0202 16.2731ZM13.433 18.9766C10.3656 18.9851 7.87687 16.5423 7.86817 13.5403C7.85948 10.5481 10.3563 8.0959 13.4246 8.08727C16.4835 8.08736 18.9894 10.5479 18.9807 13.5403C18.972 16.5334 16.4921 18.968 13.433 18.9766Z" fill="#FCB400" stroke="black" stroke-width="0.25"/>
</svg>
