<svg width="34" height="26" viewBox="0 0 34 26" fill="none" xmlns="http://www.w3.org/2000/svg">
<path d="M8.18252 25.6382C7.79375 25.6382 7.48828 25.3729 7.48828 25.0352V9.93692L5.54442 11.3599C5.51665 11.384 5.48888 11.384 5.48888 11.4082C5.21119 11.5529 4.90572 11.6494 4.60026 11.6494C4.04487 11.6494 3.54502 11.4082 3.23955 11.0223L0.268223 7.25974C-0.231627 6.60853 -0.00947192 5.74026 0.740304 5.30612L8.98783 0.313544C9.04337 0.289425 9.09891 0.241187 9.18222 0.241187C9.20999 0.241187 9.95977 0.0241187 11.015 0H11.8759C12.0702 0 12.2646 0.0723562 12.3757 0.19295C12.5146 0.313544 12.5701 0.482375 12.5423 0.651206C12.5423 0.675325 12.5423 0.723562 12.5146 0.747681C12.5701 2.55659 14.7639 4.2449 17.0965 4.2449C19.4292 4.2449 21.6229 2.55659 21.6785 0.747681C21.6785 0.723562 21.6785 0.675325 21.6507 0.651206C21.6229 0.482375 21.7062 0.313544 21.8173 0.19295C21.9284 0.0723562 22.1228 0 22.3172 0H24.0111C24.6776 0 25.2052 0.265306 25.2607 0.289425C25.2885 0.289425 25.2885 0.313544 25.3163 0.313544L33.2861 5.30612C34.0081 5.71614 34.2303 6.60853 33.7304 7.25974L30.7591 10.9258C30.4814 11.3117 29.9538 11.5529 29.3984 11.5529C29.0652 11.5529 28.7597 11.4805 28.5098 11.3117C28.482 11.3117 28.482 11.2876 28.4542 11.2635L26.677 9.98516L26.6214 25.1558C26.6214 25.4935 26.316 25.7588 25.9272 25.7588L8.18252 26V25.6382Z" fill="#A29213"/>
</svg>
