<?xml version="1.0" encoding="UTF-8"?>
<svg id="Layer_1" data-name="Layer 1" xmlns="http://www.w3.org/2000/svg" viewBox="0 0 981.09 763.27">
  <defs>
    <style>
      .cls-1, .cls-2 {
        stroke-width: 0px;
      }

      .cls-2 {
        fill: #fff;
      }
    </style>
  </defs>
  <path class="cls-1" d="m811.43,594.87c-12.52-6.96-25.04-13.92-38.27-21.27,2.18-4.84,4.43-9.87,6.65-14.82,17.6,4.23,67.22,36.18,69.75,45.51-1.78-1.31-2.95-2.16-4.33-3.18-2.34.9-4.96,1.9-7.57,2.9,1.07,2.07,6.71,4.65,8.83,4.21.96-.2,2.7-.31,2.9.1.53,1.1.98,2.87.44,3.73-1.77,2.82-3.57,5.88-6.11,7.92-18.91,15.16-38,30.09-57.04,45.09-.18.14-.44.18-1.03.41-3.39-4.12-6.85-8.34-10.63-12.95,9.37-7.56,18.53-15.05,27.81-22.4,9.2-7.28,18.53-14.41,28.33-22.02-4.92-3.16-9.49-6.1-14.74-9.47-.54,5.38-1.01,10.15-1.53,15.37-1.46,0-2.79.07-4.11,0-28.56-1.65-57.14-3.16-85.69-5-52.27-3.37-104.56-6.3-156.95-4.11-31.32,1.31-62.7,2.61-93.89,5.62-84.66,8.16-167.2,25.62-245.82,59.13-1.25.53-2.51,1.06-4.37,1.84-2.62-5.04-5.18-9.94-8.02-15.41,12.02-5.05,23.41-10.11,35-14.66,41.64-16.34,84.78-27.34,128.78-34.78,31.87-5.39,63.86-10.38,95.98-13.91,28.15-3.09,56.54-4.52,84.86-5.56,47.87-1.75,95.71.48,143.51,3,34.44,1.82,68.86,3.95,103.29,5.93,1.18.07,2.37,0,3.56,0,.14-.42.28-.83.42-1.25Z"/>
  <path class="cls-1" d="m676.39,177.22c8.08,19.81,15.83,38.83,23.8,58.37-5.56,2.16-10.58,4.12-16.04,6.24-3.24-7.53-6.47-14.68-9.41-21.94-6.65-16.42-13.18-32.89-19.7-49.36-.78-1.96-1.57-4.02-1.75-6.09-.48-5.63.6-6.78,6.64-5.19,2.27.6,4.68.66,7.27,1.01-.68-4.29-6.22-7.15-10.45-6.02,1.33-3.54,4.2-5.16,7.27-5.92,5.07-1.25,10.25-2.31,15.44-2.79,15.08-1.37,29.99-3.58,44.62-7.54,1.07-.29,2.18-.39,3.93-.7,1.41,5.44,2.79,10.79,4.21,16.26-13.98,5.56-28.52,5.88-43.08,9.02,8.75,4.07,16.97,7.64,24.98,11.65,55.5,27.74,102.4,66.07,141.56,114.18,20.39,25.05,39.9,50.62,55,79.3,13.55,25.75,23.07,52.87,26.22,81.89,2.51,23.16,3.65,46.4-2.6,69.26-1.53,5.61-3.74,11.03-5.78,16.91-5.73-2.48-10.81-4.67-15.76-6.81,2.04-8.64,4.25-16.57,5.75-24.63,5.27-28.33,2.76-56.23-5.48-83.69-9.32-31.07-24.58-59.18-43.26-85.49-25.22-35.51-53.9-67.96-87.29-96-31.15-26.15-66.3-45.75-103.74-61.38-.43-.18-.92-.22-2.35-.54Zm-2.11-6c1.24-2.83,2.12-4.84,3.3-7.53-2.47.39-4.1.65-6.12.97.97,2.25,1.72,4.02,2.81,6.56Z"/>
  <path class="cls-1" d="m568,217.93c4,4.07,7.82,7.96,12.16,12.38-7.7,5.98-14.67,11.81-22.05,17.07-29.9,21.3-63.15,35.07-98.81,43.3-26.07,6.01-52.5,9.27-79.2,7.29-35.55-2.63-70.06-10.47-103.4-23.24-48.57-18.6-91.7-45.77-129.28-81.74-1.23-1.18-2.51-2.32-4.46-4.11,1.6,12.7,3.09,24.51,4.64,36.87-5.58,1.03-11,2.03-17.09,3.15-1.38-9.02-2.74-17.5-3.95-26.01-1.24-8.78-2.35-17.58-3.46-26.37-.45-3.53-.98-7.14,2.91-11.09-1.33,6.04.99,8.08,6.16,7.61.04-2.72,1.39-5.46-1.98-7.74-2.19-1.48-1.58-4.07,1.03-4.81,2.24-.64,4.68-.88,7.02-.79,16.1.62,32.2,1.36,48.3,2.09,6.35.29,12.69.62,19.25.95v16.67h-44.63c3.7,3.85,7.14,7.68,10.84,11.23,35.84,34.47,78.54,57.09,125.47,72.32,26.07,8.46,52.62,15.01,80.01,17.11,31.97,2.45,63.36-1.44,94.07-10.6,34.14-10.18,65.19-26.31,92.91-48.78.87-.7,1.77-1.37,3.55-2.75Z"/>
  <path class="cls-1" d="m366.4,115.66c2.19,5.6,4.16,10.66,6,15.38-5.46,3.33-10.84,5.84-15.31,9.47-19.08,15.5-21.21,41.37-7.12,60.81,6.07,8.37,15.24,11.89,25.19,13.17,12.07,1.56,23.92,1.32,34.71-5.6,22.72-14.56,26.78-49.2,7.97-68.51-5.86-6.01-13.39-8.01-21.38-8.62-4.08-.31-8.2-.05-12.78-.05v-17.02c20.76-3.75,43.09,4.09,54.88,23.66,15.32,25.44,9.8,61.32-12.72,80.61-9.07,7.77-19.85,11.95-31.53,13.65-18.05,2.62-34.91-.36-49.4-12.12-30.13-24.45-31.34-77.62,10.91-100,3.18-1.68,6.54-3.01,10.58-4.84Z"/>
  <path class="cls-1" d="m684.54,313.45c28.12-1.28,51.7,18.63,56.24,47.14,2.41,15.16.53,29.67-7.26,43.06-11.31,19.45-29.17,28.02-50.84,28.31-37.37.5-60.88-31.56-62.81-59.05-1.57-22.43,9.97-40.95,30.98-49.17,3.56-1.39,7.25-2.48,11.43-3.9.29,5.88.64,11.21.72,16.55.01.75-1.13,1.74-1.97,2.23-2.15,1.25-4.47,2.22-6.65,3.42-15.08,8.34-19.5,17.83-16.23,34.72,5.42,27.97,32.78,44.08,59.69,34.79,14.43-4.98,22.29-16.16,25.22-30.59,3.49-17.22-.58-32.29-15.21-43.28-5.82-4.38-12.73-6.31-19.89-7.03-2.58-.26-3.5-1.16-3.45-3.64.09-4.47.03-8.95.03-13.56Z"/>
  <path class="cls-1" d="m217.99,473.37c17.55-6.34,33.15-3.03,46.77,8.6,18.85,16.1,22.8,41.22,10.12,64.33-11.2,20.42-28.27,33.16-51.78,35.71-10.5,1.14-20.25-2.54-28.88-8.53-31.24-21.68-29.98-69.82,2.28-89.81.31-.19.67-.33,1.76-.86,2.35,4.71,4.82,9.38,6.95,14.21.3.68-.76,2.4-1.62,3.1-7.89,6.43-12.78,14.52-14.37,24.63-2.56,16.29,10.04,35.67,26.14,39.24,3.98.88,8.68.86,12.51-.39,19.41-6.32,32.29-19.25,36.1-39.63,3.87-20.71-14.11-38.69-35.08-35.64-2.27.33-3.35-.09-4.31-2.14-2.01-4.27-4.29-8.41-6.58-12.84Z"/>
  <path class="cls-1" d="m89.31,763.27c-4.87-3.65-9.32-6.98-14.03-10.52,12.31-16.89,24.42-33.51,36.92-50.65-8.4-6.77-16.62-13.43-24.87-20.04-6.63-5.31-13.27-10.61-19.98-15.82-1.78-1.38-2-2.56-.57-4.3,3-3.66,5.9-7.4,9.12-11.44,15.76,12.5,31.19,24.74,47.12,37.38,9.78-14.48,19.39-28.72,29.33-43.44,4.73,3.03,9.4,6.02,14.77,9.45-10.13,15.12-19.96,29.79-30.02,44.8,17.35,12.94,34.85,25.99,52.83,39.39-3.54,4.64-6.96,9.12-10.66,13.98-17.85-13.24-35.27-26.16-52.86-39.2-12.43,16.9-24.69,33.55-37.09,50.41Z"/>
  <path class="cls-1" d="m629.82,671.03c-3.83.87-7.37,1.53-10.83,2.49-20.97,5.82-22.78,24.93-17.76,38.03,5.44,14.21,17.29,21,33.43,19.39,20.7-2.06,36.06-21.15,33.48-41.76-1.21-9.65-6.28-17.01-14.38-22.18-2.2-1.4-3.38-3-3.95-5.47-1.03-4.49-2.31-8.92-3.62-13.87,7.24-.38,13.35,1.74,18.81,5.61,22.69,16.13,28.04,46.31,12.52,69.87-13.66,20.72-39.89,30.44-63.37,23.48-17.77-5.27-31.42-23.43-32.3-43.19-.82-18.39,5.24-33.6,21.92-42.78,5.64-3.1,12.43-4.15,18.72-6.03,1.93-.57,3.18.03,3.69,2.37,1.02,4.72,2.41,9.36,3.65,14.03Z"/>
  <path class="cls-1" d="m921.5,629.02c-17.37-15.13-34.49-30.05-51.88-45.2,3.57-4.32,7.02-8.49,11.11-13.43,17.42,15.03,34.59,29.85,51.88,44.77,6.9-9.02,13.87-18.13,21.29-27.82,4.6,3.52,9.08,6.95,13.97,10.69-7.57,9.98-14.87,19.59-22.52,29.68,11.82,11.32,23.68,22.68,35.75,34.24-4.37,3.89-8.53,7.6-13.08,11.66-7.3-6.88-15.37-14.49-23.44-22.11-2.63-2.49-5.34-4.91-7.85-7.52-1.86-1.93-3.13-1.8-4.76.32-6.17,8.01-12.41,15.98-18.75,23.86-3.12,3.88-6.48,7.56-9.92,11.54-4.35-3.49-8.41-6.74-13.27-10.63,10.37-13.19,20.59-26.19,31.49-40.05Z"/>
  <path class="cls-1" d="m597.87,136.86c11.22,8.83,22.28,17.53,33.63,26.47-3.52,4.56-6.92,8.96-10.63,13.77-11.19-8.62-22.14-17.05-33.34-25.69-8.42,11.69-16.64,23.11-25.24,35.05-4.68-3.44-9.14-6.72-14.03-10.31,8.52-12.01,16.79-23.66,25.3-35.67-11.14-8.85-21.95-17.45-33.15-26.35,3.35-4.59,6.62-9.07,10.19-13.97,11.31,8.76,22.14,17.15,33.19,25.71,9.3-13.25,18.45-26.31,27.91-39.8,4.87,3.9,9.11,7.29,13.63,10.91-9.13,13.24-18.17,26.37-27.48,39.87Z"/>
  <path class="cls-1" d="m84.57,119.26c-9.55-4.04-18.71-7.91-28.35-11.99-4.57,12.19-9.06,24.15-13.77,36.72-5.39-2.11-10.53-4.12-16.24-6.36,4.57-12.59,9-24.82,13.56-37.4-3.86-1.83-7.64-3.42-11.22-5.36-8.88-4.8-17.66-9.77-26.51-14.63-2.22-1.22-2.63-2.72-1.2-4.8,2.59-3.78,5.15-7.59,7.59-11.19,12.56,6.63,24.64,13,37.1,19.58,5.94-16.55,11.55-32.2,17.43-48.58,5.91,2.71,10.93,5.01,16.21,7.43-1.77,4.58-3.44,8.59-4.88,12.68-3.72,10.59-7.23,21.25-11.07,31.79-.94,2.6-.1,3.6,2.05,4.52,6.65,2.85,13.27,5.75,19.88,8.69,2.04.91,3.98,2.04,6.37,3.28-2.28,5.12-4.48,10.07-6.94,15.61Z"/>
  <path class="cls-1" d="m177.01,0h17.09c0,1.86.09,3.3-.01,4.73-1.26,16.68-2.56,33.35-3.81,50.03-.16,2.12-.83,3.15-3.22,2.84-3.45-.46-6.95-.71-10.43-.83-2.79-.1-3.92-1-3.65-4.07,1.29-14.55,2.37-29.11,3.5-43.68.23-2.96.36-5.93.55-9.01Z"/>
  <path class="cls-1" d="m132.54,52.8c-5.71.84-11.09,1.63-16.88,2.48-4.04-17.55-6.53-34.99-7.56-53.42,4.89-.34,9.41-.75,13.94-.93,2.04-.08,3.38.82,3.72,3.26,2.1,15.31,4.36,30.6,6.56,45.9.11.73.13,1.48.23,2.71Z"/>
  <path class="cls-1" d="m140.25.98c5.36-.31,10.3-.69,15.25-.77.78-.01,2.25,1.32,2.29,2.08.66,15.71,1.15,31.44,1.67,47.16,0,.1-.12.21-.47.77-5.13.23-10.55.48-16.6.75-.71-16.69-1.41-32.87-2.14-49.99Z"/>
  <path class="cls-1" d="m174.7,71.35c5.89.94,11.13,1.78,17.29,2.76-1.24,7.39-2.42,14.43-3.69,21.98-5.47-1.06-10.46-1.92-15.36-3.12-.67-.17-1.41-2.17-1.26-3.2.82-5.91,1.9-11.78,3.02-18.42Z"/>
  <path class="cls-1" d="m143.59,76.09c5.81,1.12,11.14,2.15,17.09,3.3-.89,4.84-1.73,9.41-2.65,14.38-5.91-1.21-11.24-2.3-17.08-3.49.89-4.78,1.73-9.35,2.63-14.19Z"/>
  <path class="cls-1" d="m133.24,82.9c.41.81.72,1.33.94,1.89,2.85,7.28,2.62,7.72-4.91,9.52-2.9.69-5.8,1.39-8.7,2.07-.23.06-.49,0-.87,0-.17-.19-.5-.41-.62-.71-3.12-8.27-3.06-8.39,5.48-10.62,2.75-.72,5.53-1.38,8.67-2.15Z"/>
  <path class="cls-2" d="m674.28,171.22c-1.09-2.54-1.85-4.31-2.81-6.56,2.01-.32,3.64-.58,6.12-.97-1.18,2.69-2.06,4.7-3.3,7.53Z"/>
</svg>