<?xml version="1.0" encoding="UTF-8"?>
<svg id="Layer_1" data-name="Layer 1" xmlns="http://www.w3.org/2000/svg" viewBox="0 0 590.04 690.93">
  <defs>
    <style>
      .cls-1 {
        fill: #606060;
      }

      .cls-1, .cls-2 {
        stroke-width: 0px;
      }

      .cls-2 {
        fill: none;
      }
    </style>
  </defs>
  <rect class="cls-2" x="-584.04" y="-168.24" width="1027.7" height="1027.41"/>
  <g>
    <path class="cls-1" d="m177.6,690.93c-12.89-2.6-24.79-7.04-35.06-15.8-20.76-17.72-27.5-50.81-14.74-74.9,14.36-27.11,44.34-40.89,71.85-32.91,24.86,7.21,40.86,23.45,45.74,48.79,4.88,25.33-3.35,47.06-24.43,62.09-8.61,6.14-19.83,8.6-29.87,12.73h-13.5Z"/>
    <path class="cls-1" d="m425.92,0c12.8,2.84,24.69,7.3,34.87,16.15,20.66,17.96,27.02,50.78,14.01,75.04-14.35,26.75-44.06,40.26-71.43,32.48-46.9-13.33-62.68-68.07-29.8-104.02,9.17-10.02,20.88-16.09,34.37-18.47,1.52-.27,2.99-.78,4.49-1.18,4.5,0,9,0,13.5,0Z"/>
    <path class="cls-1" d="m302.65,626.7c.14-34.49,28.29-62.84,62.7-62.61,35.29.24,62.79,27.56,62.81,63.16.02,34.69-28.82,62.55-63.03,62.34-34.43-.22-62.62-28.59-62.48-62.89Z"/>
    <path class="cls-1" d="m125.36,494.6c-1.1,35.44-29.64,62.71-64.21,61.64C26.46,555.17-.62,527.64.01,492.91c.67-36.95,29.12-62.08,63.16-62.05,35.04.03,63.26,29.61,62.19,63.74Z"/>
    <path class="cls-1" d="m93.29,287.26c-9.34-9.16-18.06-17.59-26.64-26.18-5.28-5.28-5.27-7.84-.18-13.05,5.81-5.96,11.84-11.7,17.61-17.69,4.37-4.54,8.37-4.35,12.68.06,8.62,8.82,17.36,17.53,26.56,26.79,8.78-8.8,17.13-17.23,25.55-25.61,6.4-6.37,8.56-6.36,15.01.01,5.12,5.06,10.21,10.15,15.27,15.27,6.34,6.41,6.41,8.81.16,15.05-8.27,8.25-16.65,16.4-25.74,25.35,7.61,7.6,14.84,14.83,22.08,22.05q11.12,11.11.02,22.22c-3.34,3.34-6.68,6.68-10.02,10.02-8.78,8.77-9.79,8.81-18.33.22-7.76-7.8-15.44-15.66-23.94-24.29-8.11,8.24-15.75,16.05-23.45,23.8-9.19,9.25-9.87,9.22-19.28-.2-4.77-4.77-9.46-9.63-14.34-14.29-4.5-4.3-4.54-8.3-.06-12.67,8.83-8.62,17.51-17.39,27.05-26.88Z"/>
    <path class="cls-1" d="m270.72,229.91c-8.49,8.52-16.39,16.44-24.29,24.35-8.16,8.17-9.5,8.14-17.87-.21-4.93-4.92-9.9-9.8-14.76-14.79-5.15-5.29-5.22-7.86-.08-13.04,8.66-8.74,17.47-17.34,26.6-26.38-8.94-8.93-17.34-17.3-25.7-25.7-6.35-6.39-6.32-8.48.13-14.98,4.9-4.94,9.84-9.86,14.78-14.77,7.11-7.07,9.02-7.13,15.94-.17,8.2,8.25,16.32,16.58,24.98,25.4,8.98-9.04,17.3-17.48,25.7-25.86,6.34-6.32,8.52-6.28,14.99.13,5.11,5.06,10.19,10.14,15.25,15.25,6.37,6.44,6.42,8.71.15,15-8.37,8.39-16.8,16.71-25.78,25.62,8.8,8.7,17.1,16.85,25.33,25.07,6.76,6.75,6.78,8.89.26,15.47-5.38,5.43-10.74,10.86-16.22,16.19-5.29,5.14-7.87,5.19-13.05.05-8.73-8.66-17.32-17.47-26.38-26.63Z"/>
    <path class="cls-1" d="m416.75,410.77c-9.27,9.36-17.75,18.02-26.35,26.55-5.54,5.5-7.88,5.44-13.54-.11-5.62-5.51-11.19-11.07-16.7-16.69-5.41-5.52-5.48-8.16-.1-13.57,8.54-8.59,17.23-17.03,26.51-26.19-8.76-8.68-17.04-16.84-25.27-25.06-6.96-6.95-6.94-8.98,0-15.97,4.6-4.63,9.21-9.23,13.83-13.84,7.7-7.68,9.43-7.71,16.93-.19,8.06,8.09,16.08,16.22,24.64,24.86,8.91-9.01,17.21-17.49,25.61-25.87,6.1-6.09,8.55-6.09,14.55-.17,5.76,5.69,11.42,11.48,17.19,17.15,4.22,4.15,4.11,8.09-.09,12.19-8.85,8.62-17.63,17.32-27.1,26.63,8.43,8.43,16.47,16.46,24.5,24.49,8.07,8.08,8.07,9.32.01,17.39-4.77,4.78-9.52,9.57-14.32,14.31-6.39,6.31-8.49,6.31-15-.23-8.25-8.28-16.41-16.65-25.3-25.68Z"/>
    <path class="cls-1" d="m483.23,196.56c-3.63,2.8-6.96,5.43-10.34,7.97-3.99,3-6.9,2.09-7.64-2.85-2.41-16.22-4.68-32.46-6.76-48.72-.63-4.93,1.9-6.65,6.61-4.74,14.98,6.06,30.01,12.01,44.91,18.25,5.05,2.12,5.16,4.66.87,8.48-1.51,1.34-3.18,2.49-4.76,3.76-1.57,1.26-3.11,2.55-5.32,4.38,1.97,3.01,3.85,5.96,5.81,8.86,29.7,44.09,52.46,91.44,66.99,142.64,12.93,45.54,18.91,91.87,15.51,139.24-.13,1.79-.39,3.58-.73,5.34-1.34,6.9-6.11,11.1-11.82,10.51-6.4-.67-10.37-6.24-9.72-13.79,5.42-62.9-6.77-122.92-29.92-181.07-13.09-32.88-30.02-63.75-49.95-92.98-1.12-1.65-2.3-3.26-3.73-5.28Z"/>
    <path class="cls-1" d="m376.59,238.88c-2.46-3.12-5.37-6.55-7.99-10.19-2.48-3.46-1.35-6.28,2.69-6.94,16.4-2.65,32.84-5.1,49.29-7.43,4.55-.65,6.44,1.7,4.76,6.08-5.87,15.29-11.8,30.56-17.84,45.78-1.91,4.81-4.84,4.81-8.03,1.05-2.72-3.22-5.38-6.48-8.88-10.71-14.2,14.51-28.54,28.11-41.67,42.78-32.73,36.58-59.41,77.18-78.55,122.52-11.91,28.21-21.18,57.21-25.28,87.7-.99,7.33-6,11.81-11.89,11.14-6.51-.74-10.16-5.9-9.69-13.74.07-1.12.1-2.26.34-3.35,3.72-16.4,6.47-33.1,11.4-49.13,20.71-67.28,56.59-125.82,104.35-177.25,11.92-12.83,24.32-25.21,36.98-38.3Z"/>
  </g>
</svg>