<svg width="27" height="28" viewBox="0 0 27 28" fill="none" xmlns="http://www.w3.org/2000/svg">
<g clip-path="url(#clip0_261_301)">
<path d="M15.1899 19.4397C15.1946 19.3304 15.2025 19.2351 15.2025 19.1391C15.2025 18.5882 15.1938 18.0373 15.2088 17.4863C15.234 16.5348 15.496 15.6533 16.1328 14.9308C16.6262 14.3712 17.1559 13.8439 17.695 13.3245C18.9203 12.1557 19.7625 10.6428 20.1104 8.98557C20.729 6.13887 20.888 3.25832 20.9352 0.36361C20.9423 0.0724071 20.7778 0 20.522 0C15.5632 0 10.6049 0 5.6471 0C5.31103 0 5.22525 0.0834256 5.23233 0.419489C5.24571 1.07902 5.26224 1.73777 5.289 2.39652C5.3677 4.43258 5.55108 6.4584 5.94224 8.46219C6.25075 10.0363 6.79302 11.5127 7.90982 12.7122C8.41195 13.2513 8.94635 13.7613 9.46815 14.2862C10.082 14.8986 10.6172 15.5683 10.8061 16.4364C10.8965 16.9087 10.9492 17.3874 10.9635 17.868C10.9887 18.3851 10.969 18.9046 10.969 19.4374L15.1899 19.4397Z" fill="white"/>
<path d="M13.0874 27.5344H18.7848C19.2389 27.5344 19.2861 27.4864 19.2861 27.022C19.2861 25.8415 19.2861 24.6609 19.2861 23.4804C19.2861 23.0727 19.2137 22.9995 18.8068 22.9995H7.35308C6.95405 22.9995 6.88086 23.0782 6.88086 23.4883C6.88086 24.6798 6.88086 25.8709 6.88086 27.0614C6.88086 27.4754 6.94225 27.5336 7.36095 27.5336L13.0874 27.5344Z" fill="white"/>
<path d="M20.2339 11.3082C20.4173 11.2507 20.5676 11.2129 20.7116 11.157C22.6548 10.4054 24.2462 9.16978 25.5778 7.58548C26.1052 6.95586 26.5443 6.27114 26.8096 5.48725C27.3172 3.98323 26.8048 2.76726 25.3315 2.18171C24.6735 1.92041 23.955 1.79921 23.2537 1.66777C22.7674 1.57648 22.2644 1.57569 21.734 1.53162V2.75939C22.107 2.78772 22.4785 2.80504 22.8476 2.84596C23.6598 2.9349 24.4713 3.04036 25.193 3.46536C25.6794 3.75184 25.9013 4.17841 25.7376 4.71202C25.5802 5.22202 25.3835 5.74146 25.0907 6.1822C24.0557 7.73974 22.6375 8.87307 20.9824 9.72386C20.863 9.77903 20.7651 9.87195 20.7037 9.9883C20.5361 10.4062 20.3984 10.8359 20.2339 11.3082Z" fill="white"/>
<path d="M5.71707 10.9736L5.76351 10.8949C5.63758 10.4919 5.49671 10.0937 5.39282 9.68601C5.36817 9.57348 5.32047 9.46727 5.25275 9.37407C5.18502 9.28088 5.09872 9.20273 4.9993 9.14453C3.91142 8.46526 2.95287 7.59811 2.16834 6.58352C1.74255 6.02473 1.3813 5.42973 1.24278 4.7277C1.13103 4.16575 1.30496 3.72029 1.81575 3.46214C2.20197 3.2719 2.60824 3.12539 3.02699 3.02534C3.49055 2.91043 3.97143 2.86793 4.42713 2.78923V1.59058C4.17449 1.61655 3.96041 1.63308 3.74792 1.66062C2.86722 1.77317 1.99676 1.93215 1.2176 2.38863C0.314871 2.91673 -0.0983217 3.70534 0.0197335 4.7576C0.102372 5.50056 0.416399 6.15223 0.815425 6.76848C1.66464 8.07495 2.77829 9.12013 4.06115 9.98587C4.59398 10.3424 5.16379 10.6454 5.71707 10.9736Z" fill="white"/>
<path d="M16.8089 22.1535V20.7879C16.8089 20.3401 16.7483 20.2795 16.2981 20.2795H9.86725C9.78855 20.2795 9.69096 20.2551 9.63114 20.2913C9.52726 20.3598 9.37457 20.4613 9.36985 20.5558C9.34466 21.0823 9.35804 21.6112 9.35804 22.1535H16.8089Z" fill="white"/>
<path d="M15.1896 19.4397H10.9608C10.9608 18.9069 10.9805 18.3875 10.9553 17.8704C10.9409 17.3898 10.8883 16.9111 10.7979 16.4388C10.6129 15.573 10.0778 14.9009 9.45994 14.2886C8.93814 13.7668 8.40374 13.2568 7.90161 12.7145C6.78481 11.5143 6.24254 10.0386 5.93403 8.46455C5.54051 6.46077 5.36264 4.43494 5.28079 2.39888C5.25403 1.74013 5.2375 1.08139 5.22412 0.42185C5.22412 0.0857868 5.30991 0 5.64597 0C10.6043 0 15.5626 0 20.5209 0C20.7775 0 20.942 0.0724071 20.9349 0.36361C20.8877 3.25832 20.7287 6.13887 20.1125 8.98321C19.7645 10.6405 18.9224 12.1533 17.697 13.3221C17.1603 13.8416 16.6282 14.3689 16.1348 14.9285C15.4981 15.651 15.236 16.5324 15.2108 17.484C15.1958 18.0349 15.2069 18.5858 15.2045 19.1367C15.2045 19.2328 15.1966 19.328 15.1896 19.4397Z" fill="#A29213"/>
<path d="M13.0874 27.5344H7.36095C6.94225 27.5344 6.88086 27.4737 6.88086 27.0621C6.88086 25.8716 6.88086 24.6806 6.88086 23.489C6.88086 23.0774 6.95405 23.0002 7.35308 23.0002H18.8099C19.2168 23.0002 19.2892 23.0734 19.2892 23.4811C19.2892 24.6622 19.2892 25.8428 19.2892 27.0228C19.2892 27.4871 19.242 27.5351 18.7879 27.5351L13.0874 27.5344Z" fill="#A29213"/>
<path d="M20.2339 11.3082C20.3984 10.8359 20.5361 10.4062 20.7061 9.98831C20.7674 9.87197 20.8653 9.77904 20.9847 9.72387C22.6375 8.87309 24.0542 7.73976 25.093 6.18222C25.3858 5.74148 25.5849 5.22203 25.74 4.71203C25.9021 4.17843 25.6817 3.75185 25.1954 3.46537C24.4736 3.04037 23.6622 2.93491 22.85 2.84598C22.4809 2.80505 22.1094 2.78774 21.7363 2.7594V1.5332C22.2668 1.57728 22.7697 1.57806 23.2561 1.66936C23.9573 1.80079 24.6728 1.922 25.3339 2.18329C26.8072 2.76727 27.3196 3.98324 26.8119 5.48884C26.5467 6.27587 26.1075 6.95902 25.5802 7.58707C24.2485 9.17137 22.6572 10.407 20.714 11.1586C20.5676 11.2129 20.4173 11.2547 20.2339 11.3082Z" fill="#A29213"/>
<path d="M5.71707 10.9736C5.16615 10.6454 4.59398 10.344 4.0643 9.98351C2.78144 9.11777 1.66778 8.07259 0.818573 6.76611C0.416399 6.15223 0.102372 5.50056 0.0197335 4.7576C-0.0983217 3.70534 0.314871 2.91673 1.2176 2.38863C1.99676 1.93215 2.87037 1.77317 3.74792 1.66062C3.96041 1.63308 4.17449 1.61655 4.42713 1.59058V2.79238C3.97065 2.86478 3.49055 2.91043 3.02699 3.02849C2.60833 3.12778 2.20207 3.2735 1.81575 3.46293C1.30496 3.72108 1.13103 4.16654 1.24278 4.72848C1.38209 5.43052 1.74255 6.02473 2.16834 6.58352C2.95238 7.59706 3.9101 8.46338 4.99694 9.14217C5.09636 9.20037 5.18266 9.27852 5.25039 9.37171C5.31811 9.46491 5.3658 9.57112 5.39046 9.68365C5.49434 10.0913 5.63522 10.4896 5.76115 10.8925L5.71707 10.9736Z" fill="#A29213"/>
<path d="M16.8088 22.1535H9.36586C9.36586 21.6112 9.35248 21.0823 9.37766 20.5558C9.38238 20.4613 9.53507 20.3598 9.63896 20.2913C9.69484 20.2551 9.79636 20.2795 9.87507 20.2795H16.3059C16.7561 20.2795 16.8159 20.3401 16.8167 20.7879L16.8088 22.1535Z" fill="#A29213"/>
</g>
<defs>
<clipPath id="clip0_261_301">
<rect width="27" height="27.5344" fill="white"/>
</clipPath>
</defs>
</svg>
