<?xml version="1.0" encoding="UTF-8"?>
<svg id="Layer_1" data-name="Layer 1" xmlns="http://www.w3.org/2000/svg" viewBox="0 0 413.25 778.21">
  <defs>
    <style>
      .cls-1 {
        stroke-width: 0px;
      }
    </style>
  </defs>
  <path class="cls-1" d="m103.77,550.35H0V189.89h98.2c-7.15,89.8-9.69,179.76-21.23,269.06.43.21.86.41,1.29.62.72-.91,1.79-1.7,2.13-2.74,29.48-89.56,66.42-176.34,98.68-264.86,1.02-2.79,2.35-3.74,5.38-3.73,25.26.14,50.53,0,75.8.17,3.31.02,4.75-1.15,6.15-4,29.66-60.14,59.44-120.23,89.2-180.33.64-1.29,1.35-2.55,2.16-4.08-.85,12.05-118.03,301.19-159.28,394.29-57.49,129.77-118.46,257.87-183.85,383.92,9.57-25.21,19.04-50.46,28.74-75.62,9.79-25.36,19.73-50.66,29.75-75.93,10.02-25.24,20.23-50.41,30.64-76.31Z"/>
  <path class="cls-1" d="m120.01,584.38h91.07c-.43,6.17-1.05,12.16-1.2,18.16-.11,4.21.13,8.47.72,12.63,2.36,16.73,12.03,24.63,29.04,24.25,18.67-.42,31.7-9.38,38.65-26.43,2.95-7.24,4.95-15.1,5.97-22.86,1.91-14.65-4-26.87-15-36.15-8.44-7.12-17.55-13.59-26.93-19.43-15.94-9.91-32.35-19.11-46.31-31.81-5.26-4.78-9.84-10.31-14.87-15.35-2.05-2.05-1.82-3.82-.73-6.27,19.25-43,38.4-86.04,57.57-129.08,7.14-16.03,14.22-32.1,21.52-48.06.75-1.63,2.64-3.38,4.34-3.83,32.27-8.72,64.66-9.98,97.03-.6,28.96,8.39,48.15,31.5,51.43,61.46,1.88,17.21,1.03,34.25-2.84,51.35h-88.65c.46-3.85,1.18-7.56,1.28-11.29.19-6.98.82-14.08-.17-20.92-1.96-13.53-9.55-19.52-23.14-19.34-14,.18-24.57,6.26-31.33,18.68-4.56,8.39-6.78,17.46-7.46,26.89-.68,9.41,2.52,17.75,9.55,23.8,7.47,6.43,15.56,12.23,23.79,17.67,15.97,10.55,32.65,20.06,48.25,31.11,15.28,10.83,27.41,24.78,34.53,42.53,5.27,13.15,6.84,26.89,5.84,40.85-1.73,24.1-7.69,47.16-19.26,68.5-21.6,39.84-55.31,63.43-99.36,72.4-30.06,6.12-60.15,6.03-89.93-2.21-33.81-9.35-54.6-35.15-56.36-70.17-.43-8.56-.27-17.18.24-25.73.41-6.83,1.76-13.6,2.73-20.72Z"/>
</svg>