<?xml version="1.0" encoding="UTF-8"?>
<svg id="Layer_1" data-name="Layer 1" xmlns="http://www.w3.org/2000/svg" viewBox="0 0 1061.48 1060.79">
  <defs>
    <style>
      .cls-1 {
        fill: #e60000;
      }

      .cls-1, .cls-2 {
        stroke-width: 0px;
      }

      .cls-2 {
        fill: #fff;
      }
    </style>
  </defs>
  <path class="cls-1" d="m530.43.01c290.75-2.08,538.14,238.77,530.9,543.78-6.85,288.54-247.58,523.69-543.76,516.85C231.37,1054.04-7.2,815.35.17,516.41,7.21,230.61,243.12-1.3,530.43.01Zm212.16,58.9c-8.28-2.41-15.45-3.33-22.68-3.69-17.97-.89-35.89-.14-53.8,1.7-20.08,2.06-39.93,5.41-59.56,10.07-57.87,13.74-111.82,36.78-162.17,68.35-49.05,30.76-91.39,68.8-125.78,115.52-31.6,42.93-55.63,89.67-71.2,140.7-11.74,38.49-17.95,77.84-17.78,118.1.1,22.9,2.3,45.63,6.6,68.15,7.35,38.46,20.7,74.66,40.93,108.19,25.36,42.04,58.73,76.39,100.47,102.41,37.23,23.22,77.67,37.29,121.37,41.7,22.38,2.26,44.71,1.18,66.91-2.05,32.62-4.74,63.56-14.7,92.53-30.57,28.36-15.54,53.21-35.45,74.56-59.74,19.38-22.05,35.05-46.49,47-73.27,11.03-24.72,18.6-50.47,22.35-77.31,2.66-19.02,3.23-38.09,2.1-57.26-1.21-20.53-4.16-40.75-9.43-60.62-9.67-36.44-26.61-69.04-51.66-97.35-23.01-26-50.71-45.79-81.47-61.47-23.91-12.18-49.03-21.3-74.88-28.43-4.52-1.25-9.06-2.46-13.88-3.76-1.9-34.01,4.61-66.17,19.09-96.4,30.59-63.84,80.31-105.04,150.36-122.97Z"/>
  <path class="cls-2" d="m742.59,58.92c-70.06,17.93-119.77,59.13-150.36,122.97-14.49,30.23-20.99,62.39-19.09,96.4,4.82,1.31,9.36,2.51,13.88,3.76,25.85,7.13,50.97,16.24,74.88,28.43,30.75,15.67,58.46,35.47,81.47,61.47,25.05,28.31,41.99,60.91,51.66,97.35,5.27,19.87,8.22,40.09,9.43,60.62,1.13,19.18.56,38.24-2.1,57.26-3.76,26.84-11.32,52.59-22.35,77.31-11.95,26.79-27.62,51.22-47,73.27-21.35,24.29-46.2,44.2-74.56,59.74-28.96,15.87-59.91,25.83-92.53,30.57-22.2,3.22-44.54,4.3-66.91,2.05-43.7-4.4-84.14-18.48-121.37-41.7-41.74-26.03-75.1-60.37-100.47-102.41-20.23-33.53-33.58-69.73-40.93-108.19-4.31-22.53-6.51-45.26-6.6-68.15-.17-40.26,6.04-79.61,17.78-118.1,15.57-51.03,39.6-97.77,71.2-140.7,34.39-46.72,76.73-84.77,125.78-115.52,50.35-31.57,104.3-54.61,162.17-68.35,19.63-4.66,39.48-8.01,59.56-10.07,17.9-1.84,35.82-2.59,53.8-1.7,7.23.36,14.4,1.27,22.68,3.69Z"/>
</svg>