<svg width="37" height="26" viewBox="0 0 37 26" fill="none" xmlns="http://www.w3.org/2000/svg">
<path d="M2.61664 25.9921C1.97894 25.9921 1.39222 26.003 0.806495 25.9921C0.455661 25.9823 0.24576 25.7509 0.217773 25.4014C0.217773 25.3276 0.217773 25.2537 0.217773 25.1799C0.217773 17.8161 0.217773 10.454 0.217773 3.09346C0.217773 1.48569 1.2263 0.295365 2.79156 0.0344593C2.99027 0.00787011 3.19079 -0.00332246 3.39127 0.00098455C13.2759 0.000328183 23.1613 0 33.0473 0C34.9464 0 36.2168 1.25629 36.2168 3.12988C36.2168 10.4812 36.2168 17.8292 36.2168 25.174C36.2168 25.8198 36.0329 25.9961 35.3632 25.997H33.8179V3.24902C33.8179 2.52242 33.657 2.36292 32.9183 2.36292H3.51622C2.77557 2.36292 2.61664 2.51946 2.61664 3.24902V25.9921Z" fill="#A29213"/>
</svg>
