<svg width="19" height="31" viewBox="0 0 19 31" fill="none" xmlns="http://www.w3.org/2000/svg">
<g clip-path="url(#clip0_949_1878)">
<path d="M6.46395 18.0511L4.51297 16.6607C4.14132 16.3933 3.78035 16.1126 3.39443 15.8701C3.14336 15.708 2.8706 15.5823 2.58427 15.4967C2.38196 15.4397 2.31689 15.371 2.31689 15.166C2.32224 10.1749 2.32373 5.18386 2.32135 0.192769C2.32135 0.138402 2.32848 0.0840349 2.33472 0.00292969H14.4479V16.6812H11.8044C11.6452 15.9153 11.4853 15.1473 11.3249 14.3773C10.9889 12.7543 10.6636 11.1286 10.3151 9.50739C10.1924 8.91225 9.86838 8.37756 9.39762 7.99332C8.92687 7.60908 8.3381 7.39876 7.73044 7.39776C6.48267 7.39776 5.36502 8.25516 5.16271 9.50471C5.07358 10.0778 5.17518 10.6999 5.27946 11.2872C5.63597 13.2587 6.02812 15.2222 6.39889 17.191C6.44524 17.437 6.439 17.6963 6.46395 18.0511Z" fill="#F4D100"/>
<path d="M12.1677 17.7562C12.9413 17.7562 13.6293 17.7856 14.3129 17.7473C14.9012 17.7143 15.501 17.6234 15.9752 17.2322C16.0504 17.1588 16.1101 17.0711 16.1507 16.9741C16.1913 16.8772 16.2119 16.7731 16.2113 16.668C16.2113 16.5316 16.0055 16.3863 15.8664 16.2767C15.7996 16.225 15.6748 16.2464 15.5589 16.233V13.2384C15.5741 13.2384 15.6044 13.225 15.6124 13.233C16.5037 14.1724 17.3326 15.1564 17.9359 16.3142C18.5482 17.4897 18.6035 18.6974 18.0411 19.8792C17.6297 20.781 17.139 21.6444 16.575 22.4594C15.7559 23.6029 15.3744 24.8783 15.1418 26.2268C15.1231 26.3347 15.0955 26.4416 15.067 26.5735H14.7238C11.6151 26.5735 8.50724 26.5691 5.39939 26.5815C5.12399 26.5815 5.01882 26.4924 4.93326 26.2446C4.7461 25.7001 4.5215 25.1689 4.30225 24.6074C5.00902 24.5004 5.59547 24.1671 5.93148 23.4862C6.26749 22.8052 6.20955 22.1306 5.82096 21.4612C5.91722 21.406 5.99922 21.356 6.08834 21.3088C6.2972 21.2007 6.48261 21.0524 6.63389 20.8724C6.78518 20.6923 6.89934 20.4841 6.9698 20.2598C7.14806 19.6564 7.30314 19.0423 7.44752 18.4282C7.66232 17.5156 7.38603 16.6386 7.21847 15.7544C6.87979 13.9719 6.52863 12.1947 6.1944 10.4131C6.01615 9.46656 6.55091 8.67779 7.46535 8.49865C8.29779 8.33555 9.08567 8.87565 9.27818 9.78207C9.79155 12.209 10.3031 14.6359 10.7853 17.0682C11.0331 18.3213 11.7488 19.1938 12.8352 19.8052C13.1819 20.0013 13.493 19.9371 13.6552 19.6626C13.8263 19.3712 13.7158 19.0824 13.3504 18.8712C12.8651 18.6098 12.4572 18.2252 12.1677 17.7562Z" fill="#E0AC69"/>
<path d="M10.1232 27.6392C12.0395 27.6392 13.9557 27.6454 15.8719 27.6338C16.1874 27.6338 16.3042 27.7229 16.2961 28.0483C16.2771 28.8944 16.2771 29.7408 16.2961 30.5875C16.3033 30.9163 16.1821 31.001 15.8683 31.0001C12.0246 30.9912 8.18087 30.9912 4.33714 31.0001C4.03322 31.0001 3.92003 30.911 3.92448 30.5999C3.93755 29.7426 3.93755 28.8849 3.92448 28.0269C3.91914 27.714 4.04213 27.632 4.3407 27.6338C6.26851 27.6445 8.19543 27.6392 10.1232 27.6392Z" fill="white"/>
<path d="M2.15883 16.4502C2.35847 16.5393 2.57683 16.6017 2.7533 16.7238C3.6927 17.3774 4.62556 18.0423 5.55188 18.7185C6.06346 19.0892 6.17576 19.6543 5.84956 20.1142C5.52336 20.5741 4.94314 20.6489 4.43423 20.2924C3.48771 19.6281 2.54564 18.9576 1.60803 18.2809C1.21141 17.9948 1.07327 17.5848 1.20874 17.1721C1.27807 16.9714 1.40532 16.7957 1.57441 16.6672C1.7435 16.5387 1.94686 16.4632 2.15883 16.4502Z" fill="#E0AC69"/>
<path d="M0.217773 20.3832C0.225349 20.2249 0.276115 20.0717 0.364569 19.9402C0.453023 19.8087 0.575789 19.7039 0.719556 19.6372C1.08943 19.4456 1.45218 19.4875 1.78907 19.7263C2.35681 20.1283 2.92811 20.5383 3.49763 20.9447C3.8782 21.2121 4.26234 21.4794 4.63667 21.7584C5.10993 22.1096 5.21421 22.6933 4.89514 23.1381C4.82003 23.2423 4.72489 23.3305 4.61527 23.3974C4.50565 23.4644 4.38378 23.5088 4.25677 23.5281C4.12977 23.5473 4.00021 23.541 3.87567 23.5096C3.75113 23.4781 3.63412 23.4221 3.5315 23.3449C2.55735 22.6639 1.59389 21.9679 0.628647 21.2736C0.360376 21.081 0.217773 20.8146 0.217773 20.3832Z" fill="#E0AC69"/>
</g>
<defs>
<clipPath id="clip0_949_1878">
<rect width="18.213" height="31" fill="white" transform="translate(0.217773)"/>
</clipPath>
</defs>
</svg>
